<?xml version="1.0" encoding="UTF-8" standalone="no"?>
<!-- Created with Inkscape (http://www.inkscape.org/) -->

<svg
   xmlns:dc="http://purl.org/dc/elements/1.1/"
   xmlns:cc="http://creativecommons.org/ns#"
   xmlns:rdf="http://www.w3.org/1999/02/22-rdf-syntax-ns#"
   xmlns:svg="http://www.w3.org/2000/svg"
   xmlns="http://www.w3.org/2000/svg"
   xmlns:sodipodi="http://sodipodi.sourceforge.net/DTD/sodipodi-0.dtd"
   xmlns:inkscape="http://www.inkscape.org/namespaces/inkscape"
   width="32"
   height="32"
   viewBox="0 0 8.4666666 8.4666666"
   version="1.1"
   id="svg8"
   inkscape:version="0.92.5 (2060ec1f9f, 2020-04-08)"
   sodipodi:docname="after-effects_sd.svg">
  <defs
     id="defs2">
    <style
       id="style1399">.cls-1{fill:#e3e3e3;}</style>
  </defs>
  <sodipodi:namedview
     id="base"
     pagecolor="#ffffff"
     bordercolor="#666666"
     borderopacity="1.0"
     inkscape:pageopacity="0.0"
     inkscape:pageshadow="2"
     inkscape:zoom="11.313709"
     inkscape:cx="0.022394697"
     inkscape:cy="22.468766"
     inkscape:document-units="mm"
     inkscape:current-layer="svg8"
     showgrid="false"
     units="px"
     inkscape:window-width="1920"
     inkscape:window-height="1043"
     inkscape:window-x="0"
     inkscape:window-y="120"
     inkscape:window-maximized="1">
    <sodipodi:guide
       position="8.4666666,0"
       orientation="-32,0"
       id="guide854"
       inkscape:locked="false" />
    <sodipodi:guide
       position="8.4666666,8.4666666"
       orientation="0,-32"
       id="guide856"
       inkscape:locked="false" />
    <sodipodi:guide
       position="0,8.4666814"
       orientation="32,0"
       id="guide858"
       inkscape:locked="false" />
  </sodipodi:namedview>
  <metadata
     id="metadata5">
    <rdf:RDF>
      <cc:Work
         rdf:about="">
        <dc:format>image/svg+xml</dc:format>
        <dc:type
           rdf:resource="http://purl.org/dc/dcmitype/StillImage" />
        <dc:title></dc:title>
      </cc:Work>
    </rdf:RDF>
  </metadata>
  <path
     style="font-style:normal;font-variant:normal;font-weight:bold;font-stretch:normal;font-size:7.69734335px;line-height:1.25;font-family:'Courier Prime Sans';-inkscape-font-specification:'Courier Prime Sans, Bold';font-variant-ligatures:normal;font-variant-caps:normal;font-variant-numeric:normal;font-feature-settings:normal;text-align:start;letter-spacing:0px;word-spacing:0px;writing-mode:lr-tb;text-anchor:start;fill:#232323;fill-opacity:1;stroke:none;stroke-width:0.80498075"
     d="M 8.5878906 5.28125 C 7.9065915 5.28125 7.3979086 5.3603548 7.0625 5.5175781 C 6.7270916 5.664319 6.4865852 5.9273526 6.3398438 6.3046875 L 0.06640625 22.765625 C 0.0035171287 22.922846 -0.02734375 23.063673 -0.02734375 23.189453 C -0.02734375 23.441008 0.092909427 23.66094 0.33398438 23.849609 C 0.58554086 24.038276 0.99454476 24.196487 1.5605469 24.322266 C 2.0951044 24.448046 2.5195388 24.509766 2.8339844 24.509766 C 3.1169853 24.509766 3.3420612 24.458332 3.5097656 24.353516 C 3.6879515 24.248701 3.8184917 24.085347 3.9023438 23.865234 L 5.0195312 20.832031 L 11.90625 20.832031 L 12.990234 23.865234 C 13.074084 24.085345 13.199482 24.248699 13.367188 24.353516 C 13.534892 24.458332 13.767064 24.509766 14.060547 24.509766 C 14.385474 24.509766 14.815052 24.448046 15.349609 24.322266 C 15.915613 24.196487 16.324617 24.038276 16.576172 23.849609 C 16.827727 23.660943 16.953125 23.435867 16.953125 23.173828 C 16.953125 23.016605 16.925454 22.880921 16.873047 22.765625 L 10.804688 6.3046875 C 10.668428 5.937835 10.433065 5.6748014 10.097656 5.5175781 C 9.7727293 5.3603548 9.2691893 5.28125 8.5878906 5.28125 z M 24.613281 9.4160156 C 23.030572 9.4160156 21.652446 9.7407705 20.478516 10.390625 C 19.304586 11.040479 18.402329 11.942736 17.773438 13.095703 C 17.155028 14.24867 16.845703 15.557978 16.845703 17.025391 C 16.845703 18.503285 17.129311 19.819689 17.695312 20.972656 C 18.271796 22.115142 19.105237 23.012256 20.195312 23.662109 C 21.295872 24.311964 22.610323 24.636719 24.140625 24.636719 C 25.241185 24.636719 26.368517 24.537039 27.521484 24.337891 C 28.684933 24.149223 29.801979 23.875903 30.871094 23.519531 C 31.143614 23.425194 31.335876 23.304942 31.451172 23.158203 C 31.576952 23.00098 31.640625 22.786191 31.640625 22.513672 C 31.640625 22.241152 31.589191 21.911254 31.484375 21.523438 C 31.348114 21.020325 31.195046 20.662755 31.027344 20.453125 C 30.85964 20.243495 30.660282 20.138672 30.429688 20.138672 C 30.303912 20.138672 30.178515 20.161197 30.052734 20.203125 C 28.155579 20.779609 26.289344 21.066406 24.455078 21.066406 C 23.532704 21.066406 22.768084 20.846474 22.160156 20.40625 C 21.552227 19.966026 21.148367 19.321659 20.949219 18.472656 L 31.042969 18.472656 C 31.39934 18.472656 31.652087 18.398695 31.798828 18.251953 C 31.956051 18.105212 32.033203 17.854419 32.033203 17.498047 C 32.033203 15.915337 31.751549 14.516638 31.185547 13.300781 C 30.619545 12.084925 29.780963 11.136377 28.669922 10.455078 C 27.55888 9.7632976 26.206472 9.4160156 24.613281 9.4160156 z M 8.4941406 10.689453 L 8.5566406 10.689453 L 10.726562 17.136719 L 6.2617188 17.136719 L 8.4941406 10.689453 z M 24.613281 12.986328 C 25.514692 12.986328 26.263881 13.201117 26.861328 13.630859 C 27.458775 14.060602 27.847205 14.651581 28.025391 15.40625 L 21.011719 15.40625 C 21.242312 14.599173 21.661603 13.997907 22.269531 13.599609 C 22.877459 13.19083 23.659463 12.986328 24.613281 12.986328 z "
     transform="scale(0.26458333)"
     id="path1007" />
</svg>
