<?xml version="1.0" encoding="UTF-8" standalone="no"?>
<!-- Created with Inkscape (http://www.inkscape.org/) -->

<svg
   xmlns:dc="http://purl.org/dc/elements/1.1/"
   xmlns:cc="http://creativecommons.org/ns#"
   xmlns:rdf="http://www.w3.org/1999/02/22-rdf-syntax-ns#"
   xmlns:svg="http://www.w3.org/2000/svg"
   xmlns="http://www.w3.org/2000/svg"
   xmlns:sodipodi="http://sodipodi.sourceforge.net/DTD/sodipodi-0.dtd"
   xmlns:inkscape="http://www.inkscape.org/namespaces/inkscape"
   width="32"
   height="32"
   viewBox="0 0 8.4666666 8.4666666"
   version="1.1"
   id="svg8"
   inkscape:version="0.92.5 (2060ec1f9f, 2020-04-08)"
   sodipodi:docname="connect_bd.svg">
  <defs
     id="defs2">
    <style
       id="style1399">.cls-1{fill:#e3e3e3;}</style>
    <style
       id="style1399-4">.cls-1{fill:#e3e3e3;}</style>
    <style
       id="style1399-8">.cls-1{fill:#e3e3e3;}</style>
    <style
       id="style1399-4-5">.cls-1{fill:#e3e3e3;}</style>
    <style
       id="style1399-9">.cls-1{fill:#e3e3e3;}</style>
    <style
       id="style1399-4-6">.cls-1{fill:#e3e3e3;}</style>
    <style
       id="style1399-8-4">.cls-1{fill:#e3e3e3;}</style>
    <style
       id="style1399-4-5-3">.cls-1{fill:#e3e3e3;}</style>
    <style
       id="style1399-88">.cls-1{fill:#e3e3e3;}</style>
    <style
       id="style1399-3">.cls-1{fill:#e3e3e3;}</style>
    <style
       id="style1399-94">.cls-1{fill:#e3e3e3;}</style>
    <style
       id="style1399-5">.cls-1{fill:#e3e3e3;}</style>
    <style
       id="style1399-46">.cls-1{fill:#e3e3e3;}</style>
    <style
       id="style1399-4-2">.cls-1{fill:#e3e3e3;}</style>
    <style
       id="style1399-8-5">.cls-1{fill:#e3e3e3;}</style>
    <style
       id="style1399-4-5-8">.cls-1{fill:#e3e3e3;}</style>
    <style
       id="style1399-9-6">.cls-1{fill:#e3e3e3;}</style>
    <style
       id="style1399-4-6-2">.cls-1{fill:#e3e3e3;}</style>
    <style
       id="style1399-8-4-8">.cls-1{fill:#e3e3e3;}</style>
    <style
       id="style1399-4-5-3-4">.cls-1{fill:#e3e3e3;}</style>
    <style
       id="style1399-88-7">.cls-1{fill:#e3e3e3;}</style>
    <style
       id="style1399-3-2">.cls-1{fill:#e3e3e3;}</style>
    <style
       id="style1399-94-4">.cls-1{fill:#e3e3e3;}</style>
    <style
       id="style1399-5-0">.cls-1{fill:#e3e3e3;}</style>
    <style
       id="style1399-39">.cls-1{fill:#e3e3e3;}</style>
    <style
       id="style1399-4-1">.cls-1{fill:#e3e3e3;}</style>
    <style
       id="style1399-8-9">.cls-1{fill:#e3e3e3;}</style>
    <style
       id="style1399-4-5-6">.cls-1{fill:#e3e3e3;}</style>
    <style
       id="style1399-9-9">.cls-1{fill:#e3e3e3;}</style>
    <style
       id="style1399-4-6-3">.cls-1{fill:#e3e3e3;}</style>
    <style
       id="style1399-8-4-3">.cls-1{fill:#e3e3e3;}</style>
    <style
       id="style1399-4-5-3-8">.cls-1{fill:#e3e3e3;}</style>
    <style
       id="style1399-88-0">.cls-1{fill:#e3e3e3;}</style>
    <style
       id="style1399-3-5">.cls-1{fill:#e3e3e3;}</style>
    <style
       id="style1399-94-6">.cls-1{fill:#e3e3e3;}</style>
    <style
       id="style1399-5-6">.cls-1{fill:#e3e3e3;}</style>
    <style
       id="style1399-46-4">.cls-1{fill:#e3e3e3;}</style>
    <style
       id="style1399-4-2-0">.cls-1{fill:#e3e3e3;}</style>
    <style
       id="style1399-8-5-0">.cls-1{fill:#e3e3e3;}</style>
    <style
       id="style1399-4-5-8-4">.cls-1{fill:#e3e3e3;}</style>
    <style
       id="style1399-9-6-6">.cls-1{fill:#e3e3e3;}</style>
    <style
       id="style1399-4-6-2-2">.cls-1{fill:#e3e3e3;}</style>
    <style
       id="style1399-8-4-8-6">.cls-1{fill:#e3e3e3;}</style>
    <style
       id="style1399-4-5-3-4-7">.cls-1{fill:#e3e3e3;}</style>
    <style
       id="style1399-88-7-5">.cls-1{fill:#e3e3e3;}</style>
    <style
       id="style1399-3-2-6">.cls-1{fill:#e3e3e3;}</style>
    <style
       id="style1399-94-4-9">.cls-1{fill:#e3e3e3;}</style>
    <style
       id="style1399-5-0-8">.cls-1{fill:#e3e3e3;}</style>
    <style
       id="style1399-1">.cls-1{fill:#e3e3e3;}</style>
    <style
       id="style1399-4-59">.cls-1{fill:#e3e3e3;}</style>
    <style
       id="style1399-8-91">.cls-1{fill:#e3e3e3;}</style>
    <style
       id="style1399-4-5-4">.cls-1{fill:#e3e3e3;}</style>
    <style
       id="style1399-9-91">.cls-1{fill:#e3e3e3;}</style>
    <style
       id="style1399-4-6-0">.cls-1{fill:#e3e3e3;}</style>
    <style
       id="style1399-8-4-7">.cls-1{fill:#e3e3e3;}</style>
    <style
       id="style1399-4-5-3-5">.cls-1{fill:#e3e3e3;}</style>
    <style
       id="style1399-88-8">.cls-1{fill:#e3e3e3;}</style>
    <style
       id="style1399-3-7">.cls-1{fill:#e3e3e3;}</style>
    <style
       id="style1399-94-0">.cls-1{fill:#e3e3e3;}</style>
    <style
       id="style1399-5-4">.cls-1{fill:#e3e3e3;}</style>
    <style
       id="style1399-46-8">.cls-1{fill:#e3e3e3;}</style>
    <style
       id="style1399-4-2-04">.cls-1{fill:#e3e3e3;}</style>
    <style
       id="style1399-8-5-2">.cls-1{fill:#e3e3e3;}</style>
    <style
       id="style1399-4-5-8-9">.cls-1{fill:#e3e3e3;}</style>
    <style
       id="style1399-9-6-61">.cls-1{fill:#e3e3e3;}</style>
    <style
       id="style1399-4-6-2-0">.cls-1{fill:#e3e3e3;}</style>
    <style
       id="style1399-8-4-8-4">.cls-1{fill:#e3e3e3;}</style>
    <style
       id="style1399-4-5-3-4-2">.cls-1{fill:#e3e3e3;}</style>
    <style
       id="style1399-88-7-2">.cls-1{fill:#e3e3e3;}</style>
    <style
       id="style1399-3-2-2">.cls-1{fill:#e3e3e3;}</style>
    <style
       id="style1399-94-4-0">.cls-1{fill:#e3e3e3;}</style>
    <style
       id="style1399-5-0-5">.cls-1{fill:#e3e3e3;}</style>
    <style
       id="style1399-80">.cls-1{fill:#e3e3e3;}</style>
    <style
       id="style1399-4-4">.cls-1{fill:#e3e3e3;}</style>
    <style
       id="style1399-8-0">.cls-1{fill:#e3e3e3;}</style>
    <style
       id="style1399-4-5-9">.cls-1{fill:#e3e3e3;}</style>
    <style
       id="style1399-9-1">.cls-1{fill:#e3e3e3;}</style>
    <style
       id="style1399-4-6-9">.cls-1{fill:#e3e3e3;}</style>
    <style
       id="style1399-8-4-6">.cls-1{fill:#e3e3e3;}</style>
    <style
       id="style1399-4-5-3-2">.cls-1{fill:#e3e3e3;}</style>
    <style
       id="style1399-88-5">.cls-1{fill:#e3e3e3;}</style>
    <style
       id="style1399-3-4">.cls-1{fill:#e3e3e3;}</style>
    <style
       id="style1399-94-49">.cls-1{fill:#e3e3e3;}</style>
    <style
       id="style1399-5-9">.cls-1{fill:#e3e3e3;}</style>
    <style
       id="style1399-46-3">.cls-1{fill:#e3e3e3;}</style>
    <style
       id="style1399-4-2-6">.cls-1{fill:#e3e3e3;}</style>
    <style
       id="style1399-8-5-05">.cls-1{fill:#e3e3e3;}</style>
    <style
       id="style1399-4-5-8-0">.cls-1{fill:#e3e3e3;}</style>
    <style
       id="style1399-9-6-2">.cls-1{fill:#e3e3e3;}</style>
    <style
       id="style1399-4-6-2-9">.cls-1{fill:#e3e3e3;}</style>
    <style
       id="style1399-8-4-8-43">.cls-1{fill:#e3e3e3;}</style>
    <style
       id="style1399-4-5-3-4-5">.cls-1{fill:#e3e3e3;}</style>
    <style
       id="style1399-88-7-1">.cls-1{fill:#e3e3e3;}</style>
    <style
       id="style1399-3-2-7">.cls-1{fill:#e3e3e3;}</style>
    <style
       id="style1399-94-4-4">.cls-1{fill:#e3e3e3;}</style>
    <style
       id="style1399-5-0-3">.cls-1{fill:#e3e3e3;}</style>
    <style
       id="style1399-6">.cls-1{fill:#e3e3e3;}</style>
    <style
       id="style1399-888">.cls-1{fill:#e3e3e3;}</style>
    <style
       id="style1399-4-68">.cls-1{fill:#e3e3e3;}</style>
    <style
       id="style1399-5-3">.cls-1{fill:#e3e3e3;}</style>
    <style
       id="style1399-7">.cls-1{fill:#e3e3e3;}</style>
    <style
       id="style1399-76">.cls-1{fill:#e3e3e3;}</style>
    <style
       id="style1399-4-8">.cls-1{fill:#e3e3e3;}</style>
    <style
       id="style1399-5-90">.cls-1{fill:#e3e3e3;}</style>
    <style
       id="style1399-7-6">.cls-1{fill:#e3e3e3;}</style>
    <style
       id="style1399-73">.cls-1{fill:#e3e3e3;}</style>
    <style
       id="style1399-4-26">.cls-1{fill:#e3e3e3;}</style>
    <style
       id="style1399-5-5">.cls-1{fill:#e3e3e3;}</style>
    <style
       id="style1399-7-2">.cls-1{fill:#e3e3e3;}</style>
    <style
       id="style1399-41">.cls-1{fill:#e3e3e3;}</style>
    <style
       id="style1399-2">.cls-1{fill:#e3e3e3;}</style>
    <style
       id="style1399-4-47">.cls-1{fill:#e3e3e3;}</style>
    <style
       id="style1399-8-93">.cls-1{fill:#e3e3e3;}</style>
    <style
       id="style1399-4-5-92">.cls-1{fill:#e3e3e3;}</style>
    <style
       id="style1399-9-8">.cls-1{fill:#e3e3e3;}</style>
    <style
       id="style1399-4-6-30">.cls-1{fill:#e3e3e3;}</style>
    <style
       id="style1399-8-4-1">.cls-1{fill:#e3e3e3;}</style>
    <style
       id="style1399-4-5-3-7">.cls-1{fill:#e3e3e3;}</style>
    <style
       id="style1399-88-89">.cls-1{fill:#e3e3e3;}</style>
  </defs>
  <sodipodi:namedview
     id="base"
     pagecolor="#ffffff"
     bordercolor="#666666"
     borderopacity="1.0"
     inkscape:pageopacity="0.0"
     inkscape:pageshadow="2"
     inkscape:zoom="8"
     inkscape:cx="-11.396217"
     inkscape:cy="24.100419"
     inkscape:document-units="mm"
     inkscape:current-layer="svg8"
     showgrid="false"
     units="px"
     inkscape:window-width="1920"
     inkscape:window-height="1043"
     inkscape:window-x="0"
     inkscape:window-y="120"
     inkscape:window-maximized="1">
    <sodipodi:guide
       position="8.4666666,0"
       orientation="-32,0"
       id="guide854"
       inkscape:locked="false" />
    <sodipodi:guide
       position="8.5622298,8.4657622"
       orientation="0,-32"
       id="guide856"
       inkscape:locked="false" />
    <sodipodi:guide
       position="0,8.4666814"
       orientation="32,0"
       id="guide858"
       inkscape:locked="false" />
  </sodipodi:namedview>
  <metadata
     id="metadata5">
    <rdf:RDF>
      <cc:Work
         rdf:about="">
        <dc:format>image/svg+xml</dc:format>
        <dc:type
           rdf:resource="http://purl.org/dc/dcmitype/StillImage" />
        <dc:title></dc:title>
      </cc:Work>
    </rdf:RDF>
  </metadata>
  <path
     style="fill:#232323;fill-opacity:1;stroke-width:0.04208655"
     d="M 12.564453 0.005859375 C 10.704226 0.005859375 9.1972664 1.5147732 9.1972656 3.375 C 9.1972656 5.2352269 10.704226 6.7402344 12.564453 6.7402344 C 13.995396 6.7402344 15.219129 5.8485355 15.703125 4.5859375 C 15.921971 4.716403 16.116068 4.9140736 16.267578 5.2128906 C 16.612683 5.8946921 16.70563 6.9125151 16.806641 7.9941406 C 16.970782 9.7701943 17.16174 11.781908 18.634766 12.96875 C 19.367073 13.557962 20.309555 13.857863 21.492188 13.878906 C 21.946721 15.208841 23.204099 16.167969 24.685547 16.167969 C 26.545773 16.167969 28.052734 14.661007 28.052734 12.800781 C 28.052734 10.940554 26.545773 9.4355469 24.685547 9.4355469 C 23.153596 9.4355469 21.863317 10.456241 21.455078 11.853516 C 20.777484 11.828262 20.253917 11.676813 19.900391 11.390625 C 19.092328 10.742492 18.957245 9.3155956 18.818359 7.8046875 C 18.708934 6.6178467 18.591416 5.3886824 18.107422 4.3828125 L 24.167969 4.3828125 C 24.597249 5.7506258 25.874161 6.7402344 27.380859 6.7402344 C 29.241086 6.7402344 30.746094 5.2352269 30.746094 3.375 C 30.746094 1.5147732 29.241086 0.005859375 27.380859 0.005859375 C 25.874161 0.005859375 24.597251 0.99741991 24.167969 2.3652344 L 15.779297 2.3652344 C 15.345804 0.99741991 14.071152 0.005859375 12.564453 0.005859375 z M 12.564453 2.7011719 C 12.934817 2.7011719 13.238281 3.0046375 13.238281 3.375 C 13.238281 3.7453616 12.934816 4.046875 12.564453 4.046875 C 12.19409 4.046875 11.892578 3.745364 11.892578 3.375 C 11.892578 3.004638 12.194089 2.7011719 12.564453 2.7011719 z M 27.380859 2.7011719 C 27.751223 2.7011719 28.052734 3.0046375 28.052734 3.375 C 28.052734 3.7453616 27.751224 4.046875 27.380859 4.046875 C 27.010496 4.046875 26.707031 3.745364 26.707031 3.375 C 26.707031 3.004638 27.010496 2.7011719 27.380859 2.7011719 z M 3.4082031 7.4492188 A 3.3719989 3.3719989 0 0 0 0.037109375 10.820312 A 3.3719989 3.3719989 0 0 0 3.4082031 14.193359 A 3.3719989 3.3719989 0 0 0 6.78125 10.820312 A 3.3719989 3.3719989 0 0 0 3.4082031 7.4492188 z M 3.4082031 10.042969 A 0.77897386 0.77897386 0 0 1 4.1875 10.820312 A 0.77897386 0.77897386 0 0 1 3.4082031 11.599609 A 0.77897386 0.77897386 0 0 1 2.6289062 10.820312 A 0.77897386 0.77897386 0 0 1 3.4082031 10.042969 z M 24.685547 12.126953 C 25.05591 12.126953 25.359375 12.430417 25.359375 12.800781 C 25.359375 13.171145 25.05591 13.474609 24.685547 13.474609 C 24.315183 13.474609 24.011719 13.171144 24.011719 12.800781 C 24.011719 12.430418 24.315185 12.126953 24.685547 12.126953 z M 20.345703 17.296875 A 3.3719989 3.3719989 0 0 0 17.183594 19.5 C 15.858164 19.622717 14.894542 19.930053 14.15625 20.419922 C 13.176279 21.070148 12.742022 21.996819 12.451172 22.664062 C 12.322018 22.96036 12.216298 23.186084 12.105469 23.390625 C 12.472598 24.131248 12.691414 24.956513 12.720703 25.832031 C 12.782227 25.790493 12.852244 25.755417 12.910156 25.710938 C 13.793675 25.032348 14.135734 24.138748 14.408203 23.513672 C 14.680672 22.888597 14.855147 22.518231 15.335938 22.199219 C 15.663487 21.981884 16.22711 21.777197 17.123047 21.664062 A 3.3719989 3.3719989 0 0 0 20.345703 24.041016 A 3.3719989 3.3719989 0 0 0 23.716797 20.667969 A 3.3719989 3.3719989 0 0 0 20.345703 17.296875 z M 20.345703 19.888672 A 0.77897386 0.77897386 0 0 1 21.125 20.667969 A 0.77897386 0.77897386 0 0 1 20.345703 21.447266 A 0.77897386 0.77897386 0 0 1 19.566406 20.667969 A 0.77897386 0.77897386 0 0 1 20.345703 19.888672 z M 28.617188 25.25 A 3.3719989 3.3719989 0 0 0 25.246094 28.623047 A 3.3719989 3.3719989 0 0 0 28.617188 31.994141 A 3.3719989 3.3719989 0 0 0 31.990234 28.623047 A 3.3719989 3.3719989 0 0 0 28.617188 25.25 z M 28.617188 27.84375 A 0.77897386 0.77897386 0 0 1 29.396484 28.623047 A 0.77897386 0.77897386 0 0 1 28.617188 29.402344 A 0.77897386 0.77897386 0 0 1 27.839844 28.623047 A 0.77897386 0.77897386 0 0 1 28.617188 27.84375 z "
     transform="scale(0.26458333)"
     id="path6795" />
  <path
     inkscape:connector-curvature="0"
     id="path6916"
     d="M 1.7890352,5.3090864 A 1.5790127,1.5790127 0 0 0 0.21002239,6.8880992 1.5790127,1.5790127 0 0 0 1.7890352,8.467112 1.5790127,1.5790127 0 0 0 3.368048,6.8880992 1.5790127,1.5790127 0 0 0 1.7890352,5.3090864 Z M 2.41586,6.1167114 c 0.056249,-0.00376 0.1067948,0.056852 0.083268,0.1133373 L 1.8832902,7.7496943 C 1.8046112,7.9182994 1.557349,7.8620414 1.557349,7.6822316 V 7.0640805 H 0.93919786 c -0.17981265,0 -0.23583777,-0.2472617 -0.06727,-0.3259412 L 2.3915735,6.1224939 c 0.00807,-0.00336 0.016251,-0.00525 0.024287,-0.00578 z"
     style="fill:#10688e;fill-opacity:1;stroke:none;stroke-width:0.58373743;stroke-miterlimit:4;stroke-dasharray:none;stroke-opacity:1"
     sodipodi:insensitive="true" />
</svg>
