<?xml version="1.0" encoding="UTF-8" standalone="no"?>
<!-- Created with Inkscape (http://www.inkscape.org/) -->

<svg
   xmlns:dc="http://purl.org/dc/elements/1.1/"
   xmlns:cc="http://creativecommons.org/ns#"
   xmlns:rdf="http://www.w3.org/1999/02/22-rdf-syntax-ns#"
   xmlns:svg="http://www.w3.org/2000/svg"
   xmlns="http://www.w3.org/2000/svg"
   xmlns:sodipodi="http://sodipodi.sourceforge.net/DTD/sodipodi-0.dtd"
   xmlns:inkscape="http://www.inkscape.org/namespaces/inkscape"
   width="32"
   height="32"
   viewBox="0 0 8.4666666 8.4666666"
   version="1.1"
   id="svg8"
   inkscape:version="0.92.5 (2060ec1f9f, 2020-04-08)"
   sodipodi:docname="set-codec-settings_bd.svg">
  <defs
     id="defs2">
    <style
       id="style1399">.cls-1{fill:#e3e3e3;}</style>
    <style
       id="style1399-4">.cls-1{fill:#e3e3e3;}</style>
    <style
       id="style1399-8">.cls-1{fill:#e3e3e3;}</style>
    <style
       id="style1399-4-5">.cls-1{fill:#e3e3e3;}</style>
    <style
       id="style1399-9">.cls-1{fill:#e3e3e3;}</style>
    <style
       id="style1399-4-6">.cls-1{fill:#e3e3e3;}</style>
    <style
       id="style1399-8-4">.cls-1{fill:#e3e3e3;}</style>
    <style
       id="style1399-4-5-3">.cls-1{fill:#e3e3e3;}</style>
    <style
       id="style1399-88">.cls-1{fill:#e3e3e3;}</style>
    <style
       id="style1399-3">.cls-1{fill:#e3e3e3;}</style>
    <style
       id="style1399-94">.cls-1{fill:#e3e3e3;}</style>
  </defs>
  <sodipodi:namedview
     id="base"
     pagecolor="#ffffff"
     bordercolor="#666666"
     borderopacity="1.0"
     inkscape:pageopacity="0.0"
     inkscape:pageshadow="2"
     inkscape:zoom="8"
     inkscape:cx="-32.224022"
     inkscape:cy="6.2882911"
     inkscape:document-units="mm"
     inkscape:current-layer="svg8"
     showgrid="false"
     units="px"
     inkscape:window-width="1920"
     inkscape:window-height="1043"
     inkscape:window-x="0"
     inkscape:window-y="120"
     inkscape:window-maximized="1">
    <sodipodi:guide
       position="8.4666666,0"
       orientation="-32,0"
       id="guide854"
       inkscape:locked="false" />
    <sodipodi:guide
       position="8.5622298,8.4657622"
       orientation="0,-32"
       id="guide856"
       inkscape:locked="false" />
    <sodipodi:guide
       position="0,8.4666814"
       orientation="32,0"
       id="guide858"
       inkscape:locked="false" />
  </sodipodi:namedview>
  <metadata
     id="metadata5">
    <rdf:RDF>
      <cc:Work
         rdf:about="">
        <dc:format>image/svg+xml</dc:format>
        <dc:type
           rdf:resource="http://purl.org/dc/dcmitype/StillImage" />
        <dc:title></dc:title>
      </cc:Work>
    </rdf:RDF>
  </metadata>
  <path
     style="opacity:1;fill:#232323;fill-opacity:1;stroke:none;stroke-width:5.36020184;stroke-linecap:round;stroke-linejoin:round;stroke-miterlimit:4;stroke-dasharray:none;stroke-dashoffset:10.3937006;stroke-opacity:1"
     d="M 27.986328 6.8183594 C 27.22203 6.8183594 26.570165 6.9580541 26.035156 7.234375 C 25.506027 7.5106978 25.07535 7.9064573 24.740234 8.4238281 C 24.410997 8.9411993 24.170437 9.5697655 24.017578 10.310547 C 23.870594 11.045448 23.796875 11.866085 23.796875 12.771484 C 23.796876 13.688642 23.855071 14.511212 23.972656 15.240234 C 24.096118 15.963378 24.309536 16.578372 24.609375 17.083984 C 24.909216 17.583718 25.312728 17.969791 25.824219 18.240234 C 26.335711 18.504801 26.98369 18.634766 27.765625 18.634766 C 28.535802 18.634766 29.183761 18.497027 29.712891 18.220703 C 30.247897 17.94438 30.680531 17.548622 31.009766 17.03125 C 31.344881 16.51388 31.585441 15.887246 31.732422 15.152344 C 31.879402 14.417442 31.955078 13.594872 31.955078 12.683594 C 31.955076 11.766436 31.896881 10.9458 31.779297 10.222656 C 31.661713 9.4936334 31.452183 8.8786392 31.152344 8.3789062 C 30.852504 7.8732939 30.443152 7.4891744 29.925781 7.2246094 C 29.41429 6.954166 28.768264 6.8183594 27.986328 6.8183594 z M 20.208984 7.0097656 C 19.88901 7.0097656 19.630859 7.2679188 19.630859 7.5878906 L 19.630859 8.3554688 A 1.3374454 1.3374454 0 0 1 20.101562 8.9238281 L 20.927734 10.84375 A 1.3374454 1.3374454 0 0 1 20.927734 10.851562 C 21.386509 11.920835 20.721583 13.15823 19.630859 13.4375 L 19.630859 17.876953 C 19.630859 18.196928 19.889015 18.455078 20.208984 18.455078 L 21.291016 18.455078 C 21.61099 18.455078 21.869141 18.196923 21.869141 17.876953 L 21.869141 7.5878906 C 21.869141 7.2679158 21.610988 7.0097656 21.291016 7.0097656 L 20.208984 7.0097656 z M 27.888672 8.6542969 C 28.088567 8.6542969 28.270929 8.6794631 28.435547 8.7324219 C 28.600168 8.7853353 28.747609 8.8765126 28.876953 9.0058594 C 29.0063 9.1293214 29.114937 9.2961624 29.203125 9.5078125 C 29.297197 9.7194623 29.372846 9.9774843 29.431641 10.283203 C 29.496312 10.588922 29.544825 10.951716 29.574219 11.369141 C 29.603586 11.780686 29.617188 12.257941 29.617188 12.798828 C 29.617188 13.24565 29.605502 13.653046 29.582031 14.023438 C 29.564419 14.393827 29.527544 14.725571 29.46875 15.019531 C 29.415837 15.313488 29.344047 15.573463 29.255859 15.796875 C 29.167672 16.020283 29.057095 16.204582 28.921875 16.351562 C 28.792528 16.498545 28.639265 16.611074 28.462891 16.6875 C 28.286519 16.758049 28.082805 16.792969 27.853516 16.792969 C 27.547793 16.792969 27.285889 16.730884 27.068359 16.607422 C 26.850814 16.478074 26.672352 16.258863 26.53125 15.947266 C 26.396029 15.629787 26.295141 15.20491 26.230469 14.675781 C 26.165798 14.140772 26.134766 13.467582 26.134766 12.65625 C 26.134766 11.991899 26.159936 11.411842 26.212891 10.912109 C 26.265806 10.412376 26.356987 9.9933183 26.486328 9.6582031 C 26.621548 9.3230887 26.80198 9.072822 27.025391 8.9082031 C 27.254681 8.7377049 27.541796 8.654298 27.888672 8.6542969 z M 11.931641 12.626953 C 11.537694 12.933981 11.120727 13.217987 10.681641 13.472656 C 10.343672 13.668678 9.9904721 13.813348 9.6328125 13.943359 C 9.6622742 14.402082 9.7047571 14.838624 9.7695312 15.240234 C 9.8929933 15.963378 10.104454 16.578372 10.404297 17.083984 C 10.704138 17.583718 11.109603 17.969791 11.621094 18.240234 C 12.132586 18.504801 12.778611 18.634766 13.560547 18.634766 C 14.330724 18.634766 14.980636 18.497027 15.509766 18.220703 C 16.044773 17.94438 16.477405 17.548622 16.806641 17.03125 C 17.141755 16.51388 17.382316 15.887246 17.529297 15.152344 C 17.618897 14.704344 17.671835 14.212781 17.707031 13.699219 L 17.339844 13.744141 A 1.3374454 1.3374454 0 0 1 16.513672 13.576172 L 15.410156 12.943359 C 15.407585 13.329385 15.397654 13.696757 15.376953 14.023438 C 15.359341 14.393827 15.320517 14.725571 15.261719 15.019531 C 15.208805 15.313488 15.138969 15.573463 15.050781 15.796875 C 14.962594 16.020283 14.852017 16.204582 14.716797 16.351562 C 14.58745 16.498545 14.434186 16.611074 14.257812 16.6875 C 14.081441 16.758049 13.879681 16.792969 13.650391 16.792969 C 13.344668 16.792969 13.082764 16.730884 12.865234 16.607422 C 12.647704 16.478075 12.467273 16.258864 12.326172 15.947266 C 12.190952 15.629785 12.092015 15.20491 12.027344 14.675781 C 11.962672 14.140772 11.929688 13.467582 11.929688 12.65625 C 11.929688 12.64508 11.931626 12.638076 11.931641 12.626953 z M 20.708984 20.166016 C 19.944686 20.166016 19.294774 20.303755 18.759766 20.580078 C 18.230636 20.856403 17.799959 21.254114 17.464844 21.771484 C 17.135609 22.288855 16.893093 22.917422 16.740234 23.658203 C 16.593252 24.393104 16.521484 25.215695 16.521484 26.121094 C 16.521484 27.038251 16.579681 27.858869 16.697266 28.587891 C 16.820728 29.311035 17.032188 29.926028 17.332031 30.431641 C 17.631873 30.931374 18.03929 31.315493 18.550781 31.585938 C 19.062273 31.850504 19.708299 31.984375 20.490234 31.984375 C 21.260411 31.984375 21.90837 31.846636 22.4375 31.570312 C 22.972508 31.293988 23.40514 30.896277 23.734375 30.378906 C 24.06949 29.861535 24.312004 29.234902 24.458984 28.5 C 24.605965 27.765097 24.677734 26.942528 24.677734 26.03125 C 24.677734 25.114093 24.619536 24.295409 24.501953 23.572266 C 24.384369 22.843244 24.176794 22.228249 23.876953 21.728516 C 23.577113 21.222903 23.16776 20.83683 22.650391 20.572266 C 22.138898 20.301821 21.49092 20.166016 20.708984 20.166016 z M 7.9726562 20.353516 C 7.6526814 20.353516 7.3925781 20.609715 7.3925781 20.929688 L 7.3925781 31.220703 C 7.3925781 31.540678 7.6526864 31.798828 7.9726562 31.798828 L 9.0546875 31.798828 C 9.3746623 31.798828 9.6328125 31.540674 9.6328125 31.220703 L 9.6328125 20.929688 C 9.6328125 20.609713 9.3746597 20.353516 9.0546875 20.353516 L 7.9726562 20.353516 z M 12.933594 20.353516 C 12.613619 20.353516 12.355469 20.609715 12.355469 20.929688 L 12.355469 31.220703 C 12.355469 31.540678 12.613625 31.798828 12.933594 31.798828 L 14.015625 31.798828 C 14.3356 31.798828 14.59375 31.540674 14.59375 31.220703 L 14.59375 20.929688 C 14.59375 20.609713 14.335596 20.353516 14.015625 20.353516 L 12.933594 20.353516 z M 26.966797 20.353516 C 26.646822 20.353516 26.388672 20.609715 26.388672 20.929688 L 26.388672 31.220703 C 26.388672 31.540678 26.646828 31.798828 26.966797 31.798828 L 28.048828 31.798828 C 28.368803 31.798828 28.626953 31.540674 28.626953 31.220703 L 28.626953 20.929688 C 28.626953 20.609713 28.368798 20.353516 28.048828 20.353516 L 26.966797 20.353516 z M 20.613281 22 C 20.813177 22 20.995538 22.027119 21.160156 22.080078 C 21.324777 22.132992 21.470265 22.224169 21.599609 22.353516 C 21.728956 22.476978 21.839543 22.645771 21.927734 22.857422 C 22.021807 23.069068 22.097456 23.327093 22.15625 23.632812 C 22.220925 23.938531 22.269435 24.299371 22.298828 24.716797 C 22.328195 25.128341 22.341797 25.605597 22.341797 26.146484 C 22.341797 26.593305 22.330111 27.002656 22.306641 27.373047 C 22.289028 27.743437 22.250201 28.07518 22.191406 28.369141 C 22.138493 28.663097 22.068656 28.921121 21.980469 29.144531 C 21.892281 29.367939 21.781705 29.552237 21.646484 29.699219 C 21.517138 29.846201 21.361922 29.958723 21.185547 30.035156 C 21.009175 30.105705 20.807415 30.140625 20.578125 30.140625 C 20.272403 30.140625 20.010499 30.078548 19.792969 29.955078 C 19.575424 29.82573 19.396961 29.606521 19.255859 29.294922 C 19.120638 28.977445 19.01975 28.55452 18.955078 28.025391 C 18.890407 27.490382 18.859375 26.817191 18.859375 26.005859 C 18.859375 25.341508 18.884545 24.757546 18.9375 24.257812 C 18.990413 23.758081 19.081591 23.340974 19.210938 23.005859 C 19.346158 22.67074 19.526588 22.422432 19.75 22.257812 C 19.979289 22.087314 20.266408 21.999999 20.613281 22 z "
     transform="scale(0.26458333)"
     id="rect819" />
  <path
     id="path5397"
     d="M 4.0972323,1.9859121 C 3.9892846,2.2697241 3.8443051,2.53715 3.6568387,2.7750327 L 4.5443681,3.2851084 5.0924129,3.2179315 C 5.1920695,3.2057202 5.2520575,3.1012909 5.2124713,3.0090268 L 4.9945587,2.5016217 Z M 3.9966437,1.0153855 C 3.9999947,0.92998832 3.9270812,0.85998992 3.8416545,0.86166262 l -0.3020621,0.005785 C 3.4590954,0.86898172 3.3974651,0.93399902 3.3935106,1.0144123 3.3588053,1.7257849 2.9661546,2.376233 2.3453485,2.7363003 2.1505175,2.8493021 1.9407457,2.9247262 1.7257853,2.9701931 l -0.00256,-1.2680622 c 0.00579,-0.00315 0.011897,-0.00462 0.017597,-0.00793 0.0057,-0.00331 0.010096,-0.00794 0.01562,-0.011337 l 0.833875,0.4792858 C 2.8022729,1.9417253 2.9536425,1.6712469 3.0318962,1.3737567 L 2.1866088,0.88792542 C 2.182901,0.74177282 2.1477126,0.59462172 2.0691827,0.45922519 1.818812,0.02755127 1.265921,-0.11941978 0.83424696,0.13095092 c -0.4316733,0.2503703 -0.5786443,0.8032609 -0.3282736,1.23493478 0.07853,0.1353966 0.1887853,0.2390094 0.3137234,0.3148479 l 0.0026,1.2857715 C 0.66529756,2.9312441 0.51110706,2.8794438 0.36392296,2.8080214 0.29139716,2.7728347 0.20475528,2.795668 0.16468348,2.8655866 L 0.0146365,3.1274646 C -0.02783685,3.201498 -0.00154937,3.2989729 0.07482468,3.3370422 0.31322386,3.455988 0.56602896,3.5331745 0.82346846,3.5776433 l 0.00266,1.341774 0.33222264,0.4411052 c 0.060431,0.080175 0.1808615,0.079961 0.2409456,-4.774e-4 L 1.7297428,4.9176983 1.7270942,3.5849488 C 2.0469757,3.5325962 2.3595169,3.4244396 2.6475706,3.2573686 3.4540072,2.7896358 3.9607821,1.9406882 3.9966437,1.0153855 Z M 1.1364689,0.65201972 C 1.2803336,0.56857827 1.4646728,0.61758002 1.5481142,0.76144462 1.6315553,0.90530872 1.5825537,1.0896483 1.4386892,1.1730896 1.2948255,1.2565305 1.1104858,1.2075289 1.0270446,1.0636647 0.94360336,0.91980042 0.99260486,0.73546082 1.1364689,0.65201972 Z"
     inkscape:connector-curvature="0"
     style="fill:#10688e;fill-opacity:1;stroke-width:0.00941205" />
</svg>
