<svg id="Calque_1" data-name="Calque 1" xmlns="http://www.w3.org/2000/svg" viewBox="0 0 32 32"><defs><style>.cls-1{fill:#ec1818;}</style></defs><title>settings_r</title><path class="cls-1" d="M29.48,8a7.09,7.09,0,0,1-.05,3.63,7.46,7.46,0,0,1-1.86,3.24,7.21,7.21,0,0,1-3.48,1.9,7.06,7.06,0,0,1-3.94-.2L9.47,27.26a3.15,3.15,0,0,1-2.29.95A3.18,3.18,0,0,1,4,25a3.15,3.15,0,0,1,1-2.29L15.64,12a6.93,6.93,0,0,1-.2-3.91,6.93,6.93,0,0,1,1.9-3.46,7,7,0,0,1,3.21-1.86,7.21,7.21,0,0,1,3.66,0,.56.56,0,0,1,.43.43.57.57,0,0,1-.18.57L20.75,7.5l.55,3.41,3.41.55,3.77-3.71a.57.57,0,0,1,.57-.18A.56.56,0,0,1,29.48,8ZM7.21,26.2a1.2,1.2,0,1,0-.85-2.05,1.2,1.2,0,0,0,.85,2.05Z"/></svg>