<?xml version="1.0" encoding="UTF-8" standalone="no"?>
<!-- Created with Inkscape (http://www.inkscape.org/) -->

<svg
   xmlns:dc="http://purl.org/dc/elements/1.1/"
   xmlns:cc="http://creativecommons.org/ns#"
   xmlns:rdf="http://www.w3.org/1999/02/22-rdf-syntax-ns#"
   xmlns:svg="http://www.w3.org/2000/svg"
   xmlns="http://www.w3.org/2000/svg"
   xmlns:sodipodi="http://sodipodi.sourceforge.net/DTD/sodipodi-0.dtd"
   xmlns:inkscape="http://www.inkscape.org/namespaces/inkscape"
   width="32"
   height="32"
   viewBox="0 0 8.4666666 8.4666666"
   version="1.1"
   id="svg8"
   inkscape:version="0.92.5 (2060ec1f9f, 2020-04-08)"
   sodipodi:docname="audio-bit-depth_sl.svg">
  <defs
     id="defs2">
    <style
       id="style1399">.cls-1{fill:#e3e3e3;}</style>
    <style
       id="style1399-4">.cls-1{fill:#e3e3e3;}</style>
    <style
       id="style1399-8">.cls-1{fill:#e3e3e3;}</style>
    <style
       id="style1399-4-5">.cls-1{fill:#e3e3e3;}</style>
    <style
       id="style1399-9">.cls-1{fill:#e3e3e3;}</style>
    <style
       id="style1399-4-6">.cls-1{fill:#e3e3e3;}</style>
    <style
       id="style1399-8-4">.cls-1{fill:#e3e3e3;}</style>
    <style
       id="style1399-4-5-3">.cls-1{fill:#e3e3e3;}</style>
    <style
       id="style1399-88">.cls-1{fill:#e3e3e3;}</style>
    <style
       id="style1399-3">.cls-1{fill:#e3e3e3;}</style>
    <style
       id="style1399-94">.cls-1{fill:#e3e3e3;}</style>
    <style
       id="style1399-5">.cls-1{fill:#e3e3e3;}</style>
    <style
       id="style1399-46">.cls-1{fill:#e3e3e3;}</style>
    <style
       id="style1399-4-2">.cls-1{fill:#e3e3e3;}</style>
    <style
       id="style1399-8-5">.cls-1{fill:#e3e3e3;}</style>
    <style
       id="style1399-4-5-8">.cls-1{fill:#e3e3e3;}</style>
    <style
       id="style1399-9-6">.cls-1{fill:#e3e3e3;}</style>
    <style
       id="style1399-4-6-2">.cls-1{fill:#e3e3e3;}</style>
    <style
       id="style1399-8-4-8">.cls-1{fill:#e3e3e3;}</style>
    <style
       id="style1399-4-5-3-4">.cls-1{fill:#e3e3e3;}</style>
    <style
       id="style1399-88-7">.cls-1{fill:#e3e3e3;}</style>
    <style
       id="style1399-3-2">.cls-1{fill:#e3e3e3;}</style>
    <style
       id="style1399-94-4">.cls-1{fill:#e3e3e3;}</style>
    <style
       id="style1399-5-0">.cls-1{fill:#e3e3e3;}</style>
  </defs>
  <sodipodi:namedview
     id="base"
     pagecolor="#ffffff"
     bordercolor="#666666"
     borderopacity="1.0"
     inkscape:pageopacity="0.0"
     inkscape:pageshadow="2"
     inkscape:zoom="5.6568545"
     inkscape:cx="15.379003"
     inkscape:cy="18.412342"
     inkscape:document-units="mm"
     inkscape:current-layer="svg8"
     showgrid="false"
     units="px"
     inkscape:window-width="3440"
     inkscape:window-height="1403"
     inkscape:window-x="0"
     inkscape:window-y="293"
     inkscape:window-maximized="1">
    <sodipodi:guide
       position="8.4666666,0"
       orientation="-32,0"
       id="guide854"
       inkscape:locked="false" />
    <sodipodi:guide
       position="8.4666666,8.4666662"
       orientation="0,-32"
       id="guide856"
       inkscape:locked="false" />
    <sodipodi:guide
       position="0,8.4666814"
       orientation="32,0"
       id="guide858"
       inkscape:locked="false" />
  </sodipodi:namedview>
  <metadata
     id="metadata5">
    <rdf:RDF>
      <cc:Work
         rdf:about="">
        <dc:format>image/svg+xml</dc:format>
        <dc:type
           rdf:resource="http://purl.org/dc/dcmitype/StillImage" />
        <dc:title />
      </cc:Work>
    </rdf:RDF>
  </metadata>
  <path
     style="opacity:1;fill:#838383;fill-opacity:1;stroke:none;stroke-width:3.64829826;stroke-miterlimit:4;stroke-dasharray:none;stroke-opacity:0.98156684"
     d="M 0.60742188 0 C 0.27319447 0 0.00390625 0.26928751 0.00390625 0.60351562 L 0.00390625 4.046875 C 0.00390625 4.3811024 0.27319447 4.6503906 0.60742188 4.6503906 L 5.5292969 4.6503906 C 5.8635243 4.6503906 6.1328125 4.3811028 6.1328125 4.046875 L 6.1328125 0.60351562 C 6.1328125 0.26928822 5.8635258 0 5.5292969 0 L 0.60742188 0 z M 9.2304688 0 C 8.8962413 0 8.6269531 0.26928751 8.6269531 0.60351562 L 8.6269531 4.046875 C 8.6269531 4.3811024 8.8962413 4.6503906 9.2304688 4.6503906 L 14.152344 4.6503906 C 14.486571 4.6503906 14.755859 4.3811028 14.755859 4.046875 L 14.755859 0.60351562 C 14.755859 0.26928822 14.486573 0 14.152344 0 L 9.2304688 0 z M 17.851562 0 C 17.517335 0 17.248047 0.26928751 17.248047 0.60351562 L 17.248047 4.046875 C 17.248047 4.3811024 17.517335 4.6503906 17.851562 4.6503906 L 22.773438 4.6503906 C 23.107665 4.6503906 23.376953 4.3811028 23.376953 4.046875 L 23.376953 0.60351562 C 23.376953 0.26928822 23.107666 0 22.773438 0 L 17.851562 0 z M 26.474609 0 C 26.140382 0 25.871094 0.26928751 25.871094 0.60351562 L 25.871094 4.046875 C 25.871094 4.3811024 26.140382 4.6503906 26.474609 4.6503906 L 31.396484 4.6503906 C 31.730712 4.6503906 32 4.3811028 32 4.046875 L 32 0.60351562 C 32 0.26928822 31.730713 0 31.396484 0 L 26.474609 0 z M 0.88867188 0.54101562 L 5.2480469 0.54101562 C 5.4353716 0.54101562 5.5859375 0.69158153 5.5859375 0.87890625 L 5.5859375 3.7714844 C 5.5859375 3.9588091 5.4353716 4.109375 5.2480469 4.109375 L 0.88867188 4.109375 C 0.70134337 4.109375 0.55078125 3.9588099 0.55078125 3.7714844 L 0.55078125 0.87890625 C 0.55078125 0.69157775 0.70134753 0.54101657 0.88867188 0.54101562 z M 9.5117188 0.54101562 L 13.871094 0.54101562 C 14.058418 0.54101562 14.208984 0.69158153 14.208984 0.87890625 L 14.208984 3.7714844 C 14.208984 3.9588091 14.058418 4.109375 13.871094 4.109375 L 9.5117188 4.109375 C 9.3243902 4.109375 9.1738281 3.9588099 9.1738281 3.7714844 L 9.1738281 0.87890625 C 9.1738281 0.69157775 9.3243944 0.54101657 9.5117188 0.54101562 z M 18.132812 0.54101562 L 22.492188 0.54101562 C 22.679512 0.54101562 22.830078 0.69158153 22.830078 0.87890625 L 22.830078 3.7714844 C 22.830078 3.9588091 22.679512 4.109375 22.492188 4.109375 L 18.132812 4.109375 C 17.945484 4.109375 17.794922 3.9588099 17.794922 3.7714844 L 17.794922 0.87890625 C 17.794922 0.69157775 17.945488 0.54101657 18.132812 0.54101562 z M 26.755859 0.54101562 L 31.115234 0.54101562 C 31.302559 0.54101562 31.453125 0.69158153 31.453125 0.87890625 L 31.453125 3.7714844 C 31.453125 3.9588091 31.302559 4.109375 31.115234 4.109375 L 26.755859 4.109375 C 26.568531 4.109375 26.417969 3.9588099 26.417969 3.7714844 L 26.417969 0.87890625 C 26.417969 0.69157775 26.568535 0.54101657 26.755859 0.54101562 z M 0.60742188 6.8359375 C 0.27319447 6.8359375 0.00390625 7.105225 0.00390625 7.4394531 L 0.00390625 10.882812 C 0.00390625 11.21704 0.27319447 11.486328 0.60742188 11.486328 L 5.5292969 11.486328 C 5.8635243 11.486328 6.1328125 11.21704 6.1328125 10.882812 L 6.1328125 7.4394531 C 6.1328125 7.1052257 5.8635254 6.8359375 5.5292969 6.8359375 L 0.60742188 6.8359375 z M 9.2304688 6.8359375 C 8.8962413 6.8359375 8.6269531 7.105225 8.6269531 7.4394531 L 8.6269531 10.882812 C 8.6269531 11.21704 8.8962413 11.486328 9.2304688 11.486328 L 14.152344 11.486328 C 14.486571 11.486328 14.755859 11.21704 14.755859 10.882812 L 14.755859 7.4394531 C 14.755859 7.1052257 14.486572 6.8359375 14.152344 6.8359375 L 9.2304688 6.8359375 z M 17.851562 6.8359375 C 17.517335 6.8359375 17.248047 7.105225 17.248047 7.4394531 L 17.248047 10.882812 C 17.248047 11.21704 17.517335 11.486328 17.851562 11.486328 L 22.773438 11.486328 C 23.107665 11.486328 23.376953 11.21704 23.376953 10.882812 L 23.376953 7.4394531 C 23.376953 7.1052257 23.107666 6.8359375 22.773438 6.8359375 L 17.851562 6.8359375 z M 26.474609 6.8359375 C 26.140382 6.8359375 25.871094 7.105225 25.871094 7.4394531 L 25.871094 10.882812 C 25.871094 11.21704 26.140382 11.486328 26.474609 11.486328 L 31.396484 11.486328 C 31.730712 11.486328 32 11.21704 32 10.882812 L 32 7.4394531 C 32 7.1052257 31.730713 6.8359375 31.396484 6.8359375 L 26.474609 6.8359375 z M 9.5117188 7.3769531 L 13.871094 7.3769531 C 14.058418 7.3769531 14.208984 7.527519 14.208984 7.7148438 L 14.208984 10.607422 C 14.208984 10.794747 14.058418 10.945313 13.871094 10.945312 L 9.5117188 10.945312 C 9.3243902 10.945312 9.1738281 10.794747 9.1738281 10.607422 L 9.1738281 7.7148438 C 9.1738281 7.5275152 9.3243944 7.3769527 9.5117188 7.3769531 z M 18.132812 7.3769531 L 22.492188 7.3769531 C 22.679512 7.3769531 22.830078 7.527519 22.830078 7.7148438 L 22.830078 10.607422 C 22.830078 10.794747 22.679512 10.945313 22.492188 10.945312 L 18.132812 10.945312 C 17.945484 10.945312 17.794922 10.794747 17.794922 10.607422 L 17.794922 7.7148438 C 17.794922 7.5275152 17.945488 7.3769527 18.132812 7.3769531 z M 26.755859 7.3769531 L 31.115234 7.3769531 C 31.302559 7.3769531 31.453125 7.527519 31.453125 7.7148438 L 31.453125 10.607422 C 31.453125 10.794747 31.302559 10.945313 31.115234 10.945312 L 26.755859 10.945312 C 26.568531 10.945312 26.417969 10.794747 26.417969 10.607422 L 26.417969 7.7148438 C 26.417969 7.5275152 26.568535 7.3769527 26.755859 7.3769531 z M 0.60742188 13.671875 C 0.27319447 13.671875 0.00390625 13.941162 0.00390625 14.275391 L 0.00390625 17.71875 C 0.00390625 18.052977 0.27319447 18.322266 0.60742188 18.322266 L 5.5292969 18.322266 C 5.8635243 18.322266 6.1328125 18.052978 6.1328125 17.71875 L 6.1328125 14.275391 C 6.1328125 13.941163 5.8635254 13.671875 5.5292969 13.671875 L 0.60742188 13.671875 z M 9.2304688 13.671875 C 8.8962413 13.671875 8.6269531 13.941162 8.6269531 14.275391 L 8.6269531 17.71875 C 8.6269531 18.052977 8.8962413 18.322266 9.2304688 18.322266 L 14.152344 18.322266 C 14.486571 18.322266 14.755859 18.052978 14.755859 17.71875 L 14.755859 14.275391 C 14.755859 13.941163 14.486572 13.671875 14.152344 13.671875 L 9.2304688 13.671875 z M 17.851562 13.671875 C 17.517335 13.671875 17.248047 13.941162 17.248047 14.275391 L 17.248047 17.71875 C 17.248047 18.052977 17.517335 18.322266 17.851562 18.322266 L 22.773438 18.322266 C 23.107665 18.322266 23.376953 18.052978 23.376953 17.71875 L 23.376953 14.275391 C 23.376953 13.941163 23.107666 13.671875 22.773438 13.671875 L 17.851562 13.671875 z M 26.474609 13.671875 C 26.140382 13.671875 25.871094 13.941162 25.871094 14.275391 L 25.871094 17.71875 C 25.871094 18.052977 26.140382 18.322266 26.474609 18.322266 L 31.396484 18.322266 C 31.730712 18.322266 32 18.052978 32 17.71875 L 32 14.275391 C 32 13.941163 31.730713 13.671875 31.396484 13.671875 L 26.474609 13.671875 z M 9.5117188 14.212891 L 13.871094 14.212891 C 14.058418 14.212891 14.208984 14.363457 14.208984 14.550781 L 14.208984 17.443359 C 14.208984 17.630684 14.058418 17.78125 13.871094 17.78125 L 9.5117188 17.78125 C 9.3243902 17.78125 9.1738281 17.630684 9.1738281 17.443359 L 9.1738281 14.550781 C 9.1738281 14.363453 9.3243944 14.21289 9.5117188 14.212891 z M 26.755859 14.212891 L 31.115234 14.212891 C 31.302559 14.212891 31.453125 14.363457 31.453125 14.550781 L 31.453125 17.443359 C 31.453125 17.630684 31.302559 17.78125 31.115234 17.78125 L 26.755859 17.78125 C 26.568531 17.78125 26.417969 17.630684 26.417969 17.443359 L 26.417969 14.550781 C 26.417969 14.363453 26.568535 14.21289 26.755859 14.212891 z M 0.60742188 20.509766 C 0.27319447 20.509766 0.00390625 20.779053 0.00390625 21.113281 L 0.00390625 24.556641 C 0.00390625 24.890868 0.27319447 25.160156 0.60742188 25.160156 L 5.5292969 25.160156 C 5.8635243 25.160156 6.1328125 24.890868 6.1328125 24.556641 L 6.1328125 21.113281 C 6.1328125 20.779054 5.8635254 20.509766 5.5292969 20.509766 L 0.60742188 20.509766 z M 9.2304688 20.509766 C 8.8962413 20.509766 8.6269531 20.779053 8.6269531 21.113281 L 8.6269531 24.556641 C 8.6269531 24.890868 8.8962413 25.160156 9.2304688 25.160156 L 14.152344 25.160156 C 14.486571 25.160156 14.755859 24.890868 14.755859 24.556641 L 14.755859 21.113281 C 14.755859 20.779054 14.486572 20.509766 14.152344 20.509766 L 9.2304688 20.509766 z M 17.851562 20.509766 C 17.517335 20.509766 17.248047 20.779053 17.248047 21.113281 L 17.248047 24.556641 C 17.248047 24.890868 17.517335 25.160156 17.851562 25.160156 L 22.773438 25.160156 C 23.107665 25.160156 23.376953 24.890868 23.376953 24.556641 L 23.376953 21.113281 C 23.376953 20.779054 23.107666 20.509766 22.773438 20.509766 L 17.851562 20.509766 z M 26.474609 20.509766 C 26.140382 20.509766 25.871094 20.779053 25.871094 21.113281 L 25.871094 24.556641 C 25.871094 24.890868 26.140382 25.160156 26.474609 25.160156 L 31.396484 25.160156 C 31.730712 25.160156 32 24.890868 32 24.556641 L 32 21.113281 C 32 20.779054 31.730713 20.509766 31.396484 20.509766 L 26.474609 20.509766 z M 26.755859 21.050781 L 31.115234 21.050781 C 31.302559 21.050781 31.453125 21.201347 31.453125 21.388672 L 31.453125 24.28125 C 31.453125 24.468575 31.302559 24.619141 31.115234 24.619141 L 26.755859 24.619141 C 26.568531 24.619141 26.417969 24.468575 26.417969 24.28125 L 26.417969 21.388672 C 26.417969 21.201343 26.568535 21.050781 26.755859 21.050781 z M 0.60742188 27.345703 C 0.27319447 27.345703 0.00390625 27.614991 0.00390625 27.949219 L 0.00390625 31.392578 C 0.00390625 31.726806 0.27319447 31.996094 0.60742188 31.996094 L 5.5292969 31.996094 C 5.8635243 31.996094 6.1328125 31.726806 6.1328125 31.392578 L 6.1328125 27.949219 C 6.1328125 27.614991 5.8635254 27.345703 5.5292969 27.345703 L 0.60742188 27.345703 z M 9.2304688 27.345703 C 8.8962413 27.345703 8.6269531 27.614991 8.6269531 27.949219 L 8.6269531 31.392578 C 8.6269531 31.726806 8.8962413 31.996094 9.2304688 31.996094 L 14.152344 31.996094 C 14.486571 31.996094 14.755859 31.726806 14.755859 31.392578 L 14.755859 27.949219 C 14.755859 27.614991 14.486572 27.345703 14.152344 27.345703 L 9.2304688 27.345703 z M 17.851562 27.345703 C 17.517335 27.345703 17.248047 27.614991 17.248047 27.949219 L 17.248047 31.392578 C 17.248047 31.726806 17.517335 31.996094 17.851562 31.996094 L 22.773438 31.996094 C 23.107665 31.996094 23.376953 31.726806 23.376953 31.392578 L 23.376953 27.949219 C 23.376953 27.614991 23.107666 27.345703 22.773438 27.345703 L 17.851562 27.345703 z M 26.474609 27.345703 C 26.140382 27.345703 25.871094 27.614991 25.871094 27.949219 L 25.871094 31.392578 C 25.871094 31.726806 26.140382 31.996094 26.474609 31.996094 L 31.396484 31.996094 C 31.730712 31.996094 32 31.726806 32 31.392578 L 32 27.949219 C 32 27.614991 31.730713 27.345703 31.396484 27.345703 L 26.474609 27.345703 z "
     transform="scale(0.26458333)"
     id="path1256" />
</svg>
