<?xml version="1.0" encoding="UTF-8" standalone="no"?>
<!-- Created with Inkscape (http://www.inkscape.org/) -->

<svg
   xmlns:dc="http://purl.org/dc/elements/1.1/"
   xmlns:cc="http://creativecommons.org/ns#"
   xmlns:rdf="http://www.w3.org/1999/02/22-rdf-syntax-ns#"
   xmlns:svg="http://www.w3.org/2000/svg"
   xmlns="http://www.w3.org/2000/svg"
   xmlns:sodipodi="http://sodipodi.sourceforge.net/DTD/sodipodi-0.dtd"
   xmlns:inkscape="http://www.inkscape.org/namespaces/inkscape"
   width="32"
   height="32"
   viewBox="0 0 8.4666666 8.4666666"
   version="1.1"
   id="svg8"
   inkscape:version="0.92.5 (2060ec1f9f, 2020-04-08)"
   sodipodi:docname="audio-sampling_sl.svg">
  <defs
     id="defs2">
    <style
       id="style1399">.cls-1{fill:#e3e3e3;}</style>
    <style
       id="style1399-4">.cls-1{fill:#e3e3e3;}</style>
    <style
       id="style1399-8">.cls-1{fill:#e3e3e3;}</style>
    <style
       id="style1399-4-5">.cls-1{fill:#e3e3e3;}</style>
    <style
       id="style1399-9">.cls-1{fill:#e3e3e3;}</style>
    <style
       id="style1399-4-6">.cls-1{fill:#e3e3e3;}</style>
    <style
       id="style1399-8-4">.cls-1{fill:#e3e3e3;}</style>
    <style
       id="style1399-4-5-3">.cls-1{fill:#e3e3e3;}</style>
    <style
       id="style1399-88">.cls-1{fill:#e3e3e3;}</style>
    <style
       id="style1399-3">.cls-1{fill:#e3e3e3;}</style>
    <style
       id="style1399-94">.cls-1{fill:#e3e3e3;}</style>
    <style
       id="style1399-5">.cls-1{fill:#e3e3e3;}</style>
    <style
       id="style1399-46">.cls-1{fill:#e3e3e3;}</style>
    <style
       id="style1399-4-2">.cls-1{fill:#e3e3e3;}</style>
    <style
       id="style1399-8-5">.cls-1{fill:#e3e3e3;}</style>
    <style
       id="style1399-4-5-8">.cls-1{fill:#e3e3e3;}</style>
    <style
       id="style1399-9-6">.cls-1{fill:#e3e3e3;}</style>
    <style
       id="style1399-4-6-2">.cls-1{fill:#e3e3e3;}</style>
    <style
       id="style1399-8-4-8">.cls-1{fill:#e3e3e3;}</style>
    <style
       id="style1399-4-5-3-4">.cls-1{fill:#e3e3e3;}</style>
    <style
       id="style1399-88-7">.cls-1{fill:#e3e3e3;}</style>
    <style
       id="style1399-3-2">.cls-1{fill:#e3e3e3;}</style>
    <style
       id="style1399-94-4">.cls-1{fill:#e3e3e3;}</style>
    <style
       id="style1399-5-0">.cls-1{fill:#e3e3e3;}</style>
  </defs>
  <sodipodi:namedview
     id="base"
     pagecolor="#ffffff"
     bordercolor="#666666"
     borderopacity="1.0"
     inkscape:pageopacity="0.0"
     inkscape:pageshadow="2"
     inkscape:zoom="11.313709"
     inkscape:cx="10.178952"
     inkscape:cy="-0.41965106"
     inkscape:document-units="mm"
     inkscape:current-layer="svg8"
     showgrid="false"
     units="px"
     inkscape:window-width="3440"
     inkscape:window-height="1403"
     inkscape:window-x="0"
     inkscape:window-y="293"
     inkscape:window-maximized="1">
    <sodipodi:guide
       position="8.4666666,0"
       orientation="-32,0"
       id="guide854"
       inkscape:locked="false" />
    <sodipodi:guide
       position="8.4666666,8.4666662"
       orientation="0,-32"
       id="guide856"
       inkscape:locked="false" />
    <sodipodi:guide
       position="0,8.4666814"
       orientation="32,0"
       id="guide858"
       inkscape:locked="false" />
  </sodipodi:namedview>
  <metadata
     id="metadata5">
    <rdf:RDF>
      <cc:Work
         rdf:about="">
        <dc:format>image/svg+xml</dc:format>
        <dc:type
           rdf:resource="http://purl.org/dc/dcmitype/StillImage" />
        <dc:title />
      </cc:Work>
    </rdf:RDF>
  </metadata>
  <path
     style="opacity:1;fill:#838383;fill-opacity:1;stroke:none;stroke-width:3.64724398;stroke-miterlimit:4;stroke-dasharray:none;stroke-opacity:0.98156684"
     d="M 10.332031 0.021484375 C 9.9978036 0.021484375 9.7285156 0.29077235 9.7285156 0.625 L 9.7285156 31.375 C 9.7285156 31.709228 9.9978036 31.978516 10.332031 31.978516 L 11.9375 31.978516 C 12.271728 31.978516 12.541016 31.709228 12.541016 31.375 L 12.541016 0.625 C 12.541016 0.29077235 12.271728 0.021484375 11.9375 0.021484375 L 10.332031 0.021484375 z M 15.197266 7.3183594 C 14.863038 7.3183594 14.59375 7.5876473 14.59375 7.921875 L 14.59375 24.078125 C 14.59375 24.412353 14.863038 24.681641 15.197266 24.681641 L 16.802734 24.681641 C 17.136962 24.681641 17.40625 24.412353 17.40625 24.078125 L 17.40625 7.921875 C 17.40625 7.5876473 17.136962 7.3183594 16.802734 7.3183594 L 15.197266 7.3183594 z M 5.46875 7.890625 C 5.1345223 7.890625 4.8652344 8.1579598 4.8652344 8.4921875 L 4.8652344 23.507812 C 4.8652344 23.84204 5.1345223 24.109375 5.46875 24.109375 L 7.0742188 24.109375 C 7.4084464 24.109375 7.6777344 23.84204 7.6777344 23.507812 L 7.6777344 8.4921875 C 7.6777344 8.1579598 7.4084464 7.890625 7.0742188 7.890625 L 5.46875 7.890625 z M 24.925781 10.787109 C 24.591554 10.787109 24.322266 11.056397 24.322266 11.390625 L 24.322266 20.609375 C 24.322266 20.943603 24.591554 21.212891 24.925781 21.212891 L 26.53125 21.212891 C 26.865478 21.212891 27.134766 20.943603 27.134766 20.609375 L 27.134766 11.390625 C 27.134766 11.056397 26.865478 10.787109 26.53125 10.787109 L 24.925781 10.787109 z M 20.0625 12.240234 C 19.728272 12.240234 19.458984 12.509522 19.458984 12.84375 L 19.458984 19.15625 C 19.458984 19.490478 19.728272 19.759766 20.0625 19.759766 L 21.667969 19.759766 C 22.002196 19.759766 22.271484 19.490478 22.271484 19.15625 L 22.271484 12.84375 C 22.271484 12.509522 22.002196 12.240234 21.667969 12.240234 L 20.0625 12.240234 z M 0.60351562 13.296875 C 0.26928797 13.296875 0 13.56421 0 13.898438 L 0 18.101562 C 7.4014868e-17 18.43579 0.26928797 18.703125 0.60351562 18.703125 L 2.2089844 18.703125 C 2.543212 18.703125 2.8125 18.43579 2.8125 18.101562 L 2.8125 13.898438 C 2.8125 13.56421 2.543212 13.296875 2.2089844 13.296875 L 0.60351562 13.296875 z M 29.791016 14.490234 C 29.456788 14.490234 29.1875 14.759522 29.1875 15.09375 L 29.1875 16.90625 C 29.1875 17.240478 29.456788 17.509766 29.791016 17.509766 L 31.396484 17.509766 C 31.730712 17.509766 32 17.240478 32 16.90625 L 32 15.09375 C 32 14.759522 31.730712 14.490234 31.396484 14.490234 L 29.791016 14.490234 z "
     transform="scale(0.26458333)"
     id="rect1482" />
</svg>
