<?xml version="1.0" encoding="UTF-8" standalone="no"?>
<!-- Created with Inkscape (http://www.inkscape.org/) -->

<svg
   xmlns:dc="http://purl.org/dc/elements/1.1/"
   xmlns:cc="http://creativecommons.org/ns#"
   xmlns:rdf="http://www.w3.org/1999/02/22-rdf-syntax-ns#"
   xmlns:svg="http://www.w3.org/2000/svg"
   xmlns="http://www.w3.org/2000/svg"
   xmlns:sodipodi="http://sodipodi.sourceforge.net/DTD/sodipodi-0.dtd"
   xmlns:inkscape="http://www.inkscape.org/namespaces/inkscape"
   width="32"
   height="32"
   viewBox="0 0 8.4666666 8.4666666"
   version="1.1"
   id="svg8"
   inkscape:version="0.92.5 (2060ec1f9f, 2020-04-08)"
   sodipodi:docname="audio-video_sd.svg">
  <defs
     id="defs2">
    <style
       id="style1399">.cls-1{fill:#e3e3e3;}</style>
    <style
       id="style1399-0">.cls-1{fill:#e3e3e3;}</style>
  </defs>
  <sodipodi:namedview
     id="base"
     pagecolor="#ffffff"
     bordercolor="#666666"
     borderopacity="1.0"
     inkscape:pageopacity="0.0"
     inkscape:pageshadow="2"
     inkscape:zoom="22.627417"
     inkscape:cx="25.703574"
     inkscape:cy="14.877215"
     inkscape:document-units="mm"
     inkscape:current-layer="svg8"
     showgrid="false"
     units="px"
     inkscape:window-width="3388"
     inkscape:window-height="1376"
     inkscape:window-x="1526"
     inkscape:window-y="507"
     inkscape:window-maximized="1">
    <sodipodi:guide
       position="8.4666666,0"
       orientation="-32,0"
       id="guide854"
       inkscape:locked="false" />
    <sodipodi:guide
       position="8.4666666,8.4666666"
       orientation="0,-32"
       id="guide856"
       inkscape:locked="false" />
    <sodipodi:guide
       position="0,8.4666814"
       orientation="32,0"
       id="guide858"
       inkscape:locked="false" />
  </sodipodi:namedview>
  <metadata
     id="metadata5">
    <rdf:RDF>
      <cc:Work
         rdf:about="">
        <dc:format>image/svg+xml</dc:format>
        <dc:type
           rdf:resource="http://purl.org/dc/dcmitype/StillImage" />
        <dc:title></dc:title>
      </cc:Work>
    </rdf:RDF>
  </metadata>
  <path
     style="fill:#838383;fill-opacity:1;stroke-width:0.01645705"
     inkscape:connector-curvature="0"
     d="M 8.0750994,0.87643229 H 7.9434428 V 1.2055733 c 0,0.1086166 -0.088868,0.1974847 -0.1974844,0.1974847 H 7.0876766 C 6.97906,1.403058 6.8901919,1.31419 6.8901919,1.2055733 V 0.87643229 H 1.6239363 V 1.2055733 c 0,0.1086166 -0.088868,0.1974847 -0.1974845,0.1974847 H 0.76816983 c -0.10861658,0 -0.19748465,-0.088868 -0.19748465,-0.1974847 V 0.87643229 H 0.43902881 c -0.21887867,0 -0.39496907,0.17609041 -0.39496907,0.39496911 v 5.529568 c 0,0.2188789 0.1760904,0.3949691 0.39496907,0.3949691 H 0.57068518 V 6.866798 c 0,-0.1086164 0.088868,-0.1974844 0.19748465,-0.1974844 H 1.4264518 c 0.1086164,0 0.1974845,0.088868 0.1974845,0.1974844 V 7.1959385 H 6.8901919 V 6.866798 c 0,-0.1086164 0.088868,-0.1974844 0.1974847,-0.1974844 h 0.6582818 c 0.1086163,0 0.1974844,0.088868 0.1974844,0.1974844 v 0.3291405 h 0.1316566 c 0.2188782,0 0.3949693,-0.1760902 0.3949693,-0.3949691 v -5.529568 c 0,-0.2188787 -0.1760911,-0.39496911 -0.3949693,-0.39496911 z M 1.6239363,5.9452032 c 0,0.1086164 -0.088868,0.1974844 -0.1974845,0.1974844 H 0.76816983 c -0.10861658,0 -0.19748465,-0.088868 -0.19748465,-0.1974844 v -0.658282 c 0,-0.1086164 0.088868,-0.1974844 0.19748465,-0.1974844 H 1.4264518 c 0.1086164,0 0.1974845,0.088868 0.1974845,0.1974844 z m 0,-1.5798767 c 0,0.1086165 -0.088868,0.1974846 -0.1974845,0.1974846 H 0.76816983 c -0.10861658,0 -0.19748465,-0.088868 -0.19748465,-0.1974846 V 3.7070446 c 0,-0.1086165 0.088868,-0.1974846 0.19748465,-0.1974846 H 1.4264518 c 0.1086164,0 0.1974845,0.088868 0.1974845,0.1974846 z m 0,-1.5798767 c 0,0.1086167 -0.088868,0.1974847 -0.1974845,0.1974847 H 0.76816983 c -0.10861658,0 -0.19748465,-0.088868 -0.19748465,-0.1974847 V 2.1271681 c 0,-0.1086166 0.088868,-0.1974847 0.19748465,-0.1974847 H 1.4264518 c 0.1086164,0 0.1974845,0.088868 0.1974845,0.1974847 z m 4.4763172,3.4230659 c 0,0.1086166 -0.088868,0.1974847 -0.1974846,0.1974847 H 2.6113594 c -0.1086165,0 -0.1974847,-0.088868 -0.1974847,-0.1974847 V 1.8638551 c 0,-0.1086163 0.088868,-0.1974844 0.1974847,-0.1974844 h 3.2914095 c 0.1086166,0 0.1974846,0.088868 0.1974846,0.1974844 z M 7.9434428,5.9452032 c 0,0.1086164 -0.088868,0.1974844 -0.1974844,0.1974844 H 7.0876766 c -0.1086166,0 -0.1974847,-0.088868 -0.1974847,-0.1974844 v -0.658282 c 0,-0.1086164 0.088868,-0.1974844 0.1974847,-0.1974844 h 0.6582818 c 0.1086163,0 0.1974844,0.088868 0.1974844,0.1974844 z m 0,-1.5798767 c 0,0.1086165 -0.088868,0.1974846 -0.1974844,0.1974846 H 7.0876766 c -0.1086166,0 -0.1974847,-0.088868 -0.1974847,-0.1974846 V 3.7070446 c 0,-0.1086165 0.088868,-0.1974846 0.1974847,-0.1974846 h 0.6582818 c 0.1086163,0 0.1974844,0.088868 0.1974844,0.1974846 z m 0,-1.5798767 c 0,0.1086167 -0.088868,0.1974847 -0.1974844,0.1974847 H 7.0876766 c -0.1086166,0 -0.1974847,-0.088868 -0.1974847,-0.1974847 V 2.1271681 c 0,-0.1086166 0.088868,-0.1974847 0.1974847,-0.1974847 h 0.6582818 c 0.1086163,0 0.1974844,0.088868 0.1974844,0.1974847 z"
     id="path819"
     sodipodi:nodetypes="scssssccsssscsssscssssccsssscssssssssssssssssssssssssssssssscssccssccsssssssssssssssssssssssssss" />
  <path
     sodipodi:nodetypes="ccssssccssccccscccsc"
     style="fill:#838383;fill-opacity:1;stroke-width:0.00778285"
     inkscape:connector-curvature="0"
     d="M 4.5543666,2.5643532 3.8619265,3.2566373 H 3.067609 c -0.1032007,0 -0.1867885,0.083588 -0.1867885,0.1867884 v 1.12073 c 0,0.1031228 0.083589,0.1867884 0.1867885,0.1867884 h 0.7943175 l 0.6924401,0.6922841 c 0.1169755,0.1169763 0.3188629,0.03479 0.3188629,-0.1320749 V 2.6964281 c 0,-0.1670199 -0.2020432,-0.2488954 -0.3188629,-0.1320749 z m 0.9588459,0.84117 C 5.4230875,3.3562582 5.3093796,3.3887122 5.259414,3.4790712 5.209685,3.5694302 5.242606,3.6829818 5.332961,3.7328697 c 0.1004764,0.055181 0.1628944,0.1590815 0.1628944,0.270921 0,0.1119173 -0.062417,0.2157406 -0.1628165,0.2709209 -0.090359,0.049889 -0.123281,0.1634397 -0.073547,0.2537988 0.050048,0.090748 0.163829,0.1229688 0.2537984,0.073548 0.2197098,-0.1210232 0.3562212,-0.3502281 0.3562212,-0.5983454 0,-0.2481171 -0.1365114,-0.477244 -0.356299,-0.5981898 z"
     id="path1124" />
</svg>
