<?xml version="1.0" encoding="UTF-8" standalone="no"?>
<!-- Created with Inkscape (http://www.inkscape.org/) -->

<svg
   xmlns:dc="http://purl.org/dc/elements/1.1/"
   xmlns:cc="http://creativecommons.org/ns#"
   xmlns:rdf="http://www.w3.org/1999/02/22-rdf-syntax-ns#"
   xmlns:svg="http://www.w3.org/2000/svg"
   xmlns="http://www.w3.org/2000/svg"
   xmlns:sodipodi="http://sodipodi.sourceforge.net/DTD/sodipodi-0.dtd"
   xmlns:inkscape="http://www.inkscape.org/namespaces/inkscape"
   width="32"
   height="32"
   viewBox="0 0 8.4666666 8.4666666"
   version="1.1"
   id="svg8"
   inkscape:version="0.92.5 (2060ec1f9f, 2020-04-08)"
   sodipodi:docname="change-frames-start-number_sl.svg">
  <defs
     id="defs2">
    <style
       id="style1399">.cls-1{fill:#e3e3e3;}</style>
    <style
       id="style1399-4">.cls-1{fill:#e3e3e3;}</style>
    <style
       id="style1399-5">.cls-1{fill:#e3e3e3;}</style>
    <style
       id="style1399-7">.cls-1{fill:#e3e3e3;}</style>
    <style
       id="style1399-85">.cls-1{fill:#e3e3e3;}</style>
    <style
       id="style1399-4-6">.cls-1{fill:#e3e3e3;}</style>
    <style
       id="style1399-8">.cls-1{fill:#e3e3e3;}</style>
    <style
       id="style1399-4-5">.cls-1{fill:#e3e3e3;}</style>
  </defs>
  <sodipodi:namedview
     id="base"
     pagecolor="#ffffff"
     bordercolor="#666666"
     borderopacity="1.0"
     inkscape:pageopacity="0.0"
     inkscape:pageshadow="2"
     inkscape:zoom="5.6568542"
     inkscape:cx="-10.427296"
     inkscape:cy="18.205322"
     inkscape:document-units="mm"
     inkscape:current-layer="svg8"
     showgrid="false"
     units="px"
     inkscape:window-width="1920"
     inkscape:window-height="1043"
     inkscape:window-x="0"
     inkscape:window-y="120"
     inkscape:window-maximized="1">
    <sodipodi:guide
       position="8.4666666,0"
       orientation="-32,0"
       id="guide854"
       inkscape:locked="false" />
    <sodipodi:guide
       position="8.4666666,8.4599157"
       orientation="0,-32"
       id="guide856"
       inkscape:locked="false" />
    <sodipodi:guide
       position="0,8.4666814"
       orientation="32,0"
       id="guide858"
       inkscape:locked="false" />
  </sodipodi:namedview>
  <metadata
     id="metadata5">
    <rdf:RDF>
      <cc:Work
         rdf:about="">
        <dc:format>image/svg+xml</dc:format>
        <dc:type
           rdf:resource="http://purl.org/dc/dcmitype/StillImage" />
        <dc:title></dc:title>
      </cc:Work>
    </rdf:RDF>
  </metadata>
  <path
     style="fill:#83d3f6;fill-opacity:1;stroke-width:0.04743152"
     d="M 2.3046875 0.025390625 C 1.0477519 0.025390625 0.02734375 1.0438442 0.02734375 2.3007812 L 0.02734375 18.998047 C 0.027342616 20.254982 1.0477512 21.275391 2.3046875 21.275391 L 19.001953 21.275391 C 19.706452 21.275391 20.328767 20.948409 20.746094 20.445312 C 20.643207 19.215616 20.779792 17.968513 21.277344 16.845703 L 21.277344 2.3007812 C 21.277343 1.0438442 20.258888 0.025390625 19.001953 0.025390625 L 2.3046875 0.025390625 z M 23.136719 0.025390625 C 23.516194 0.70513594 23.734375 1.4814068 23.734375 2.3027344 L 23.734375 14.126953 C 24.619403 13.590451 25.601083 13.275296 26.603516 13.177734 L 26.603516 2.3007812 C 26.603514 1.0438442 25.58506 0.025390512 24.328125 0.025390625 L 23.136719 0.025390625 z M 28.462891 0.025390625 C 28.842365 0.70513594 29.060547 1.4814068 29.060547 2.3027344 L 29.060547 13.398438 C 30.520854 13.892703 30.981624 15.73207 30.162109 17.029297 C 30.711587 16.684093 31.363048 16.573232 31.970703 16.660156 L 31.970703 2.3007812 C 31.970703 1.0438442 30.952248 0.025390625 29.695312 0.025390625 L 28.462891 0.025390625 z M 6.8476562 2.9707031 L 14.259766 2.9707031 C 14.332329 2.9707031 14.402295 2.9945934 14.466797 3.0429688 C 14.531298 3.0913444 14.582734 3.1686233 14.623047 3.2734375 C 14.671421 3.3782517 14.70458 3.5198876 14.720703 3.6972656 C 14.744892 3.8665809 14.755859 4.0706209 14.755859 4.3125 C 14.755859 4.7962576 14.711737 5.1475423 14.623047 5.3652344 C 14.542422 5.5829238 14.421019 5.6914062 14.259766 5.6914062 L 8.6972656 5.6914062 L 8.6972656 9.0410156 C 8.9794565 9.0087763 9.2571205 8.9904836 9.53125 8.9824219 C 9.8134409 8.9743715 10.107683 8.96875 10.414062 8.96875 C 11.26064 8.96875 12.01099 9.0699184 12.664062 9.2714844 C 13.325199 9.4649886 13.876868 9.7555719 14.320312 10.142578 C 14.771821 10.521522 15.115793 10.997865 15.349609 11.570312 C 15.583426 12.134697 15.699219 12.791191 15.699219 13.541016 C 15.699219 14.387592 15.550272 15.145255 15.251953 15.814453 C 14.961698 16.475598 14.546056 17.036524 14.005859 17.496094 C 13.473726 17.947601 12.830153 18.293277 12.072266 18.535156 C 11.322441 18.777035 10.487499 18.898438 9.5683594 18.898438 C 9.0846014 18.898438 8.624835 18.867217 8.1894531 18.802734 C 7.7540708 18.746295 7.3623184 18.672672 7.015625 18.583984 C 6.668932 18.487232 6.3839566 18.39533 6.1582031 18.306641 C 5.9405122 18.209888 5.7952202 18.13261 5.7226562 18.076172 C 5.6581548 18.01167 5.6084226 17.943657 5.5761719 17.871094 C 5.5439325 17.798531 5.5163765 17.713936 5.4921875 17.617188 C 5.4760489 17.512374 5.4650816 17.383658 5.4570312 17.230469 C 5.4489809 17.077277 5.4433594 16.895176 5.4433594 16.685547 C 5.4433594 16.459792 5.4526114 16.270377 5.46875 16.117188 C 5.4848886 15.955934 5.5087649 15.827219 5.5410156 15.730469 C 5.5813281 15.633717 5.625454 15.56375 5.6738281 15.523438 C 5.7222023 15.483125 5.7792524 15.462891 5.84375 15.462891 C 5.9243749 15.462891 6.0438284 15.512627 6.2050781 15.609375 C 6.3743934 15.698065 6.593308 15.799234 6.859375 15.912109 C 7.1335041 16.024985 7.4645559 16.12981 7.8515625 16.226562 C 8.2385687 16.315253 8.7019913 16.359375 9.2421875 16.359375 C 9.7098201 16.359375 10.132775 16.309643 10.511719 16.212891 C 10.898725 16.116138 11.224168 15.963537 11.490234 15.753906 C 11.756302 15.536217 11.962295 15.265865 12.107422 14.943359 C 12.252548 14.620856 12.326172 14.234711 12.326172 13.783203 C 12.326172 13.396197 12.265472 13.052224 12.144531 12.753906 C 12.023589 12.447528 11.834176 12.190097 11.576172 11.980469 C 11.318168 11.77084 10.98346 11.61458 10.572266 11.509766 C 10.161071 11.404952 9.6608378 11.351562 9.0722656 11.351562 C 8.6046334 11.351562 8.1780219 11.37545 7.7910156 11.423828 C 7.4120719 11.472206 7.0534743 11.496094 6.7148438 11.496094 C 6.4810271 11.496094 6.3098924 11.441004 6.2050781 11.328125 C 6.108326 11.207184 6.0605469 10.98827 6.0605469 10.673828 L 6.0605469 3.8769531 C 6.0605469 3.5544479 6.1212464 3.3265179 6.2421875 3.1894531 C 6.3711903 3.0443257 6.573529 2.9707032 6.8476562 2.9707031 z "
     transform="scale(0.26458333)"
     id="path1002" />
  <path
     sodipodi:nodetypes="cccccscccscccccc"
     style="fill:#83d3f6;fill-opacity:1;stroke-width:0.00867237"
     inkscape:connector-curvature="0"
     d="M 8.4229858,4.9707437 C 8.4035579,4.8924345 8.3055616,4.8658898 8.2484975,4.9229448 L 7.6036204,5.5678232 7.0149404,5.469738 6.9168558,4.8810588 7.5617327,4.2361801 C 7.6191441,4.1787687 7.5914794,4.0809459 7.5126471,4.0613435 7.1017506,3.959533 6.6493134,4.0692139 6.3281756,4.3902916 5.9844032,4.7340621 5.8897876,5.2323743 6.0328817,5.6668581 L 4.1822856,7.5174546 c -0.2167224,0.2167225 -0.2167224,0.5681272 0,0.7848549 0.2167224,0.2167172 0.5681266,0.2167172 0.7848491,0 L 6.8161697,6.4532662 C 7.2508286,6.598185 7.7481888,6.5025343 8.0942159,6.1565024 8.4157005,5.8350155 8.5252323,5.3818842 8.4229858,4.9707333 Z"
     id="path1000" />
</svg>
