<?xml version="1.0" encoding="UTF-8" standalone="no"?>
<!-- Created with Inkscape (http://www.inkscape.org/) -->

<svg
   xmlns:dc="http://purl.org/dc/elements/1.1/"
   xmlns:cc="http://creativecommons.org/ns#"
   xmlns:rdf="http://www.w3.org/1999/02/22-rdf-syntax-ns#"
   xmlns:svg="http://www.w3.org/2000/svg"
   xmlns="http://www.w3.org/2000/svg"
   xmlns:sodipodi="http://sodipodi.sourceforge.net/DTD/sodipodi-0.dtd"
   xmlns:inkscape="http://www.inkscape.org/namespaces/inkscape"
   width="32"
   height="32"
   viewBox="0 0 8.4666666 8.4666666"
   version="1.1"
   id="svg8"
   inkscape:version="0.92.5 (2060ec1f9f, 2020-04-08)"
   sodipodi:docname="codec-settings_sl.svg">
  <defs
     id="defs2">
    <style
       id="style1399">.cls-1{fill:#e3e3e3;}</style>
    <style
       id="style1399-4">.cls-1{fill:#e3e3e3;}</style>
    <style
       id="style1399-8">.cls-1{fill:#e3e3e3;}</style>
    <style
       id="style1399-4-5">.cls-1{fill:#e3e3e3;}</style>
    <style
       id="style1399-9">.cls-1{fill:#e3e3e3;}</style>
    <style
       id="style1399-4-6">.cls-1{fill:#e3e3e3;}</style>
    <style
       id="style1399-8-4">.cls-1{fill:#e3e3e3;}</style>
    <style
       id="style1399-4-5-3">.cls-1{fill:#e3e3e3;}</style>
    <style
       id="style1399-88">.cls-1{fill:#e3e3e3;}</style>
    <style
       id="style1399-3">.cls-1{fill:#e3e3e3;}</style>
    <style
       id="style1399-94">.cls-1{fill:#e3e3e3;}</style>
    <style
       id="style1399-5">.cls-1{fill:#e3e3e3;}</style>
    <style
       id="style1399-96">.cls-1{fill:#e3e3e3;}</style>
  </defs>
  <sodipodi:namedview
     id="base"
     pagecolor="#ffffff"
     bordercolor="#666666"
     borderopacity="1.0"
     inkscape:pageopacity="0.0"
     inkscape:pageshadow="2"
     inkscape:zoom="16"
     inkscape:cx="-7.6867602"
     inkscape:cy="20.284235"
     inkscape:document-units="mm"
     inkscape:current-layer="svg8"
     showgrid="false"
     units="px"
     inkscape:window-width="1920"
     inkscape:window-height="1043"
     inkscape:window-x="0"
     inkscape:window-y="120"
     inkscape:window-maximized="1">
    <sodipodi:guide
       position="8.4666666,0"
       orientation="-32,0"
       id="guide854"
       inkscape:locked="false" />
    <sodipodi:guide
       position="8.5622298,8.4657622"
       orientation="0,-32"
       id="guide856"
       inkscape:locked="false" />
    <sodipodi:guide
       position="0,8.4666814"
       orientation="32,0"
       id="guide858"
       inkscape:locked="false" />
  </sodipodi:namedview>
  <metadata
     id="metadata5">
    <rdf:RDF>
      <cc:Work
         rdf:about="">
        <dc:format>image/svg+xml</dc:format>
        <dc:type
           rdf:resource="http://purl.org/dc/dcmitype/StillImage" />
        <dc:title></dc:title>
      </cc:Work>
    </rdf:RDF>
  </metadata>
  <path
     sodipodi:nodetypes="scccscccsccsccccsssssssssssssssssssccccccccccccscccsccccscccscccscccscccscsssssscccssssssccccccccscccccscccscccc"
     inkscape:connector-curvature="0"
     id="rect819-1"
     d="m 4.3292193,9.0440001e-4 c -0.2556594,0 -0.4731079,0.046711 -0.6520695,0.13914189999 C 3.5001548,0.2324773 3.3553768,0.3648039 3.24328,0.5378657 3.1331494,0.7109275 3.0528109,0.921271 3.0016791,1.169064 c -0.049165,0.2458264 -0.073998,0.520609 -0.073998,0.8234672 0,0.3067911 0.02012,0.5821372 0.059452,0.8259969 0.041299,0.2418931 0.1115784,0.4475231 0.2118753,0.6166518 0.1002966,0.1671619 0.2362111,0.2959709 0.4073063,0.3864349 0.1710951,0.088497 0.3873478,0.1321849 0.6489074,0.1321847 0.2576258,0 0.4750743,-0.046078 0.6520695,-0.1385093 C 5.0862522,3.7228592 5.2310304,3.5905326 5.3411604,3.4174706 5.4532573,3.244409 5.533596,3.0346288 5.5827615,2.7888023 5.6319269,2.542976 5.6567598,2.2676301 5.6567598,1.9628054 5.6567591,1.656014 5.6366397,1.3818639 5.5973081,1.1399707 5.5579759,0.8961109 5.4882601,0.690481 5.387963,0.523319 5.2876659,0.3541905 5.1511885,0.2253815 4.9781268,0.136884 4.8070317,0.04642 4.5907787,9.0440001e-4 4.3292193,9.0440001e-4 Z m -2.6019537,0.064511 c -0.107032,0 -0.1929012,0.085869 -0.1929012,0.1929012 v 3.4418648 c 0,0.1070318 0.085869,0.1935341 0.1929012,0.1935341 h 0.3624015 c 0.1070317,0 0.1935337,-0.086503 0.1935337,-0.1935341 V 0.2583169 c 0,-0.107032 -0.086503,-0.1929013 -0.1935337,-0.1929013 z m 4.7516963,0 c -0.1070318,0 -0.1935338,0.085869 -0.1935338,0.1929012 v 3.4418648 c 0,0.1070318 0.086502,0.1935341 0.1935338,0.1935341 H 6.840731 c 0.1070317,0 0.1935336,-0.086503 0.1935336,-0.1935341 V 0.2583169 c 0,-0.107032 -0.086502,-0.1929013 -0.1935336,-0.1929013 z M 4.2963313,0.6150259 c 0.066865,0 0.1283491,0.00886 0.1834143,0.026563 0.055065,0.0177 0.104098,0.047809 0.1473638,0.091075 0.043265,0.041299 0.079285,0.097438 0.1087843,0.1682353 0.031466,0.070798 0.057495,0.1570463 0.07716,0.25931 0.021632,0.1022634 0.036969,0.2234043 0.046803,0.3630338 0.00983,0.1376628 0.015179,0.2972141 0.015179,0.4781423 -3e-7,0.1494629 -0.00415,0.2859397 -0.012019,0.4098363 -0.0059,0.1238963 -0.018914,0.2349777 -0.038581,0.3333082 -0.017699,0.09833 -0.041337,0.1852104 -0.070836,0.2599422 -0.0295,0.074731 -0.066714,0.1361464 -0.1119457,0.1853118 -0.043266,0.049165 -0.094058,0.087013 -0.1530558,0.1125784 -0.058998,0.023599 -0.1269551,0.035418 -0.2036532,0.035418 -0.1022647,0 -0.189708,-0.020682 -0.2624723,-0.061981 C 3.9497107,3.2325332 3.8894216,3.158667 3.8422227,3.0544368 3.7969907,2.9482397 3.7639267,2.8064163 3.7422937,2.6294215 3.7206617,2.4504597 3.7094057,2.225343 3.7094057,1.9539507 c 0,-0.2222271 0.00886,-0.4166015 0.026563,-0.5837635 0.0177,-0.1671621 0.048442,-0.3072264 0.091708,-0.4193232 0.045231,-0.1120962 0.1048876,-0.1953902 0.1796197,-0.2504555 0.076697,-0.057032 0.1730057,-0.085382 0.2890349,-0.0853826 z m 1.6823521,3.8510688 c -0.2556595,0 -0.4731079,0.046078 -0.6520693,0.1385092 C 5.1496188,4.6970349 5.0054735,4.8299942 4.8933766,5.0030558 4.7832463,5.1761176 4.7022748,5.3864612 4.6511432,5.6342543 c -0.049165,0.2458262 -0.073366,0.5206089 -0.073366,0.8234668 0,0.3067915 0.019487,0.5815048 0.058819,0.8253645 0.041299,0.2418935 0.11221,0.4475231 0.2125076,0.6166517 0.1002967,0.1671621 0.2362114,0.2959709 0.4073064,0.3864352 0.1710953,0.088497 0.3873479,0.1328173 0.6489072,0.1328173 0.2576261,0 0.4744422,-0.046078 0.6514373,-0.1385094 C 6.7357165,8.1880494 6.8804945,8.0550903 6.9906246,7.8820285 7.1027214,7.7089668 7.1836929,7.4998188 7.232858,7.2539926 7.282023,7.008166 7.306224,6.7328202 7.306224,6.4279956 7.3062237,6.1212042 7.286737,5.847054 7.247405,5.6051609 7.2080725,5.3613015 7.1383567,5.1556714 7.0380596,4.9885095 6.9377624,4.8193809 6.8006526,4.690572 6.627591,4.6020746 6.4564957,4.5116103 6.2402427,4.466095 5.9786834,4.4660947 Z m -4.2609047,0.062613 c -0.1070317,0 -0.1935338,0.085869 -0.1935338,0.1929012 v 3.4418648 c 0,0.1070317 0.086503,0.193534 0.1935338,0.193534 h 0.3624014 c 0.1070318,0 0.1929013,-0.086502 0.1929013,-0.193534 V 4.7216099 c 0,-0.1070317 -0.085869,-0.1929012 -0.1929013,-0.1929012 z m 1.6595835,0 c -0.1070317,0 -0.1935337,0.085869 -0.1935337,0.1929012 v 3.4418648 c 0,0.1070317 0.086503,0.193534 0.1935337,0.193534 h 0.3624015 c 0.1070317,0 0.1929012,-0.086502 0.1929012,-0.193534 V 4.7216099 c 0,-0.1070317 -0.085869,-0.1929012 -0.1929012,-0.1929012 z m 2.5690657,0.5508761 c 0.066865,0 0.1277167,0.00886 0.1827818,0.026564 0.055065,0.017699 0.104098,0.048442 0.1473639,0.091708 0.043266,0.041299 0.079918,0.097437 0.1094159,0.1682355 0.031466,0.070797 0.056862,0.1570462 0.076528,0.2593098 0.021633,0.1022634 0.037602,0.2234043 0.047435,0.363034 0.00983,0.1376626 0.014547,0.2972138 0.014547,0.4781421 0,0.1494625 -0.00415,0.2859396 -0.012019,0.4098362 -0.0059,0.1238966 -0.018281,0.2349775 -0.037948,0.3333081 -0.017701,0.09833 -0.041337,0.1845785 -0.070836,0.2593099 -0.0295,0.074731 -0.066715,0.1367787 -0.1119456,0.1859443 -0.043266,0.049165 -0.09469,0.086379 -0.1536885,0.1119456 -0.058998,0.023599 -0.126955,0.035419 -0.203653,0.035419 -0.1022647,0 -0.1897082,-0.020683 -0.2624724,-0.061981 C 5.5991744,7.6970914 5.539518,7.6238575 5.4923191,7.5196269 5.4470876,7.4134301 5.4133904,7.2716068 5.3917575,7.0946116 5.3701249,6.9156502 5.359502,6.6905334 5.359502,6.4191411 5.359502,6.196914 5.368362,6.0019069 5.386065,5.8347449 5.403765,5.6675833 5.433874,5.528151 5.47714,5.4160545 5.522371,5.3039571 5.5826602,5.2206644 5.6573921,5.1655989 5.7340891,5.1085669 5.8303978,5.0795839 5.9464279,5.0795838 Z"
     style="opacity:1;fill:#838383;fill-opacity:1;stroke:none;stroke-width:1.7930001;stroke-linecap:round;stroke-linejoin:round;stroke-miterlimit:4;stroke-dasharray:none;stroke-dashoffset:10.3937006;stroke-opacity:1" />
</svg>
