<?xml version="1.0" encoding="UTF-8" standalone="no"?>
<!-- Created with Inkscape (http://www.inkscape.org/) -->

<svg
   xmlns:dc="http://purl.org/dc/elements/1.1/"
   xmlns:cc="http://creativecommons.org/ns#"
   xmlns:rdf="http://www.w3.org/1999/02/22-rdf-syntax-ns#"
   xmlns:svg="http://www.w3.org/2000/svg"
   xmlns="http://www.w3.org/2000/svg"
   xmlns:sodipodi="http://sodipodi.sourceforge.net/DTD/sodipodi-0.dtd"
   xmlns:inkscape="http://www.inkscape.org/namespaces/inkscape"
   width="32"
   height="32"
   viewBox="0 0 8.4666666 8.4666666"
   version="1.1"
   id="svg8"
   inkscape:version="0.92.5 (2060ec1f9f, 2020-04-08)"
   sodipodi:docname="color-settings_sl.svg">
  <defs
     id="defs2">
    <style
       id="style1399">.cls-1{fill:#e3e3e3;}</style>
    <style
       id="style1399-4">.cls-1{fill:#e3e3e3;}</style>
    <style
       id="style1399-8">.cls-1{fill:#e3e3e3;}</style>
    <style
       id="style1399-4-5">.cls-1{fill:#e3e3e3;}</style>
    <style
       id="style1399-9">.cls-1{fill:#e3e3e3;}</style>
    <style
       id="style1399-4-6">.cls-1{fill:#e3e3e3;}</style>
    <style
       id="style1399-8-4">.cls-1{fill:#e3e3e3;}</style>
    <style
       id="style1399-4-5-3">.cls-1{fill:#e3e3e3;}</style>
    <style
       id="style1399-88">.cls-1{fill:#e3e3e3;}</style>
    <style
       id="style1399-3">.cls-1{fill:#e3e3e3;}</style>
    <style
       id="style1399-94">.cls-1{fill:#e3e3e3;}</style>
    <style
       id="style1399-5">.cls-1{fill:#e3e3e3;}</style>
    <style
       id="style1399-85">.cls-1{fill:#e3e3e3;}</style>
    <style
       id="style1399-4-61">.cls-1{fill:#e3e3e3;}</style>
    <style
       id="style1399-8-1">.cls-1{fill:#e3e3e3;}</style>
    <style
       id="style1399-4-5-5">.cls-1{fill:#e3e3e3;}</style>
    <style
       id="style1399-9-9">.cls-1{fill:#e3e3e3;}</style>
    <style
       id="style1399-4-6-8">.cls-1{fill:#e3e3e3;}</style>
    <style
       id="style1399-8-4-4">.cls-1{fill:#e3e3e3;}</style>
    <style
       id="style1399-4-5-3-8">.cls-1{fill:#e3e3e3;}</style>
    <style
       id="style1399-88-1">.cls-1{fill:#e3e3e3;}</style>
    <style
       id="style1399-3-0">.cls-1{fill:#e3e3e3;}</style>
    <style
       id="style1399-94-3">.cls-1{fill:#e3e3e3;}</style>
    <style
       id="style1399-5-0">.cls-1{fill:#e3e3e3;}</style>
  </defs>
  <sodipodi:namedview
     id="base"
     pagecolor="#ffffff"
     bordercolor="#666666"
     borderopacity="1.0"
     inkscape:pageopacity="0.0"
     inkscape:pageshadow="2"
     inkscape:zoom="8"
     inkscape:cx="-19.536909"
     inkscape:cy="25.670728"
     inkscape:document-units="mm"
     inkscape:current-layer="svg8"
     showgrid="false"
     units="px"
     inkscape:window-width="1920"
     inkscape:window-height="1043"
     inkscape:window-x="0"
     inkscape:window-y="120"
     inkscape:window-maximized="1">
    <sodipodi:guide
       position="8.4666666,0"
       orientation="-32,0"
       id="guide854"
       inkscape:locked="false" />
    <sodipodi:guide
       position="8.5622298,8.4657622"
       orientation="0,-32"
       id="guide856"
       inkscape:locked="false" />
    <sodipodi:guide
       position="0,8.4666814"
       orientation="32,0"
       id="guide858"
       inkscape:locked="false" />
  </sodipodi:namedview>
  <metadata
     id="metadata5">
    <rdf:RDF>
      <cc:Work
         rdf:about="">
        <dc:format>image/svg+xml</dc:format>
        <dc:type
           rdf:resource="http://purl.org/dc/dcmitype/StillImage" />
        <dc:title></dc:title>
      </cc:Work>
    </rdf:RDF>
  </metadata>
  <path
     style="fill:#838383;fill-opacity:1;stroke-width:0.01653054"
     inkscape:connector-curvature="0"
     d="M 3.3841561,0.09185492 C 1.7410202,0.41254741 0.41692398,1.7333378 0.09292518,3.3715141 -0.51870505,6.462725 2.2699975,8.7670828 4.3710293,8.4414312 5.0520878,8.3356355 5.3860048,7.5388637 5.0735775,6.9255807 4.6917218,6.175094 5.2372297,5.2989754 6.0802876,5.2989754 h 1.3174842 c 0.591793,0 1.0711789,-0.4893043 1.0728321,-1.0794444 C 8.4623416,1.6143178 6.0918586,-0.43546958 3.3841561,0.09185492 Z M 1.5938985,5.2989754 c -0.2925908,0 -0.5289773,-0.2363869 -0.5289773,-0.5289774 0,-0.2925908 0.2363865,-0.5289773 0.5289773,-0.5289773 0.2925905,0 0.5289774,0.2363865 0.5289774,0.5289773 0,0.2925905 -0.2363869,0.5289774 -0.5289774,0.5289774 z M 2.1228759,3.1830659 c -0.2925906,0 -0.5289774,-0.2363865 -0.5289774,-0.5289773 0,-0.2925904 0.2363868,-0.5289773 0.5289774,-0.5289773 0.2925904,0 0.5289773,0.2363869 0.5289773,0.5289773 0,0.2925908 -0.2363869,0.5289773 -0.5289773,0.5289773 z M 4.238785,2.1251113 c -0.2925904,0 -0.5289773,-0.2363868 -0.5289773,-0.5289773 0,-0.2925904 0.2363869,-0.5289773 0.5289773,-0.5289773 0.2925906,0 0.5289774,0.2363869 0.5289774,0.5289773 0,0.2925905 -0.2363868,0.5289773 -0.5289774,0.5289773 z m 2.1159093,1.0579546 c -0.2925905,0 -0.5289773,-0.2363865 -0.5289773,-0.5289773 0,-0.2925904 0.2363868,-0.5289773 0.5289773,-0.5289773 0.2925906,0 0.5289777,0.2363869 0.5289777,0.5289773 0,0.2925908 -0.2363871,0.5289773 -0.5289777,0.5289773 z"
     id="path5532" />
</svg>
