<?xml version="1.0" encoding="UTF-8" standalone="no"?>
<svg
   xmlns:dc="http://purl.org/dc/elements/1.1/"
   xmlns:cc="http://creativecommons.org/ns#"
   xmlns:rdf="http://www.w3.org/1999/02/22-rdf-syntax-ns#"
   xmlns:svg="http://www.w3.org/2000/svg"
   xmlns="http://www.w3.org/2000/svg"
   xmlns:sodipodi="http://sodipodi.sourceforge.net/DTD/sodipodi-0.dtd"
   xmlns:inkscape="http://www.inkscape.org/namespaces/inkscape"
   id="Calque_1"
   data-name="Calque 1"
   viewBox="0 0 32 32"
   version="1.1"
   sodipodi:docname="discord.svg"
   inkscape:version="0.92.4 (5da689c313, 2019-01-14)">
  <metadata
     id="metadata13">
    <rdf:RDF>
      <cc:Work
         rdf:about="">
        <dc:format>image/svg+xml</dc:format>
        <dc:type
           rdf:resource="http://purl.org/dc/dcmitype/StillImage" />
      </cc:Work>
    </rdf:RDF>
  </metadata>
  <sodipodi:namedview
     pagecolor="#ffffff"
     bordercolor="#666666"
     borderopacity="1"
     objecttolerance="10"
     gridtolerance="10"
     guidetolerance="10"
     inkscape:pageopacity="0"
     inkscape:pageshadow="2"
     inkscape:window-width="837"
     inkscape:window-height="480"
     id="namedview11"
     showgrid="false"
     inkscape:zoom="9.1899414"
     inkscape:cx="10.015196"
     inkscape:cy="15.782371"
     inkscape:window-x="250"
     inkscape:window-y="101"
     inkscape:window-maximized="0"
     inkscape:current-layer="Calque_1" />
  <defs
     id="defs4">
    <style
       id="style2">.cls-1{fill:#e3e3e3;}</style>
  </defs>
  <title
     id="title6">discord_l</title>
  <path
     class="cls-1"
     d="M26.53,28.85c-3.25-2.88-2.21-1.93-6-5.44l.68,2.39H6.56a2.66,2.66,0,0,1-2.65-2.66V5.66A2.66,2.66,0,0,1,6.56,3H23.88a2.66,2.66,0,0,1,2.65,2.66ZM21,10.38A6.37,6.37,0,0,0,17.36,9l-.19.21a8.57,8.57,0,0,1,3.22,1.64,11,11,0,0,0-9.65-.38c-.48.22-.77.38-.77.38a8.79,8.79,0,0,1,3.4-1.69L13.25,9a6.38,6.38,0,0,0-3.64,1.36,17.29,17.29,0,0,0-1.86,7.53,4.69,4.69,0,0,0,3.94,2s.48-.58.87-1.07a4.06,4.06,0,0,1-2.26-1.53,6,6,0,0,0,.53.32,9.38,9.38,0,0,0,8.06.46,7.33,7.33,0,0,0,1.49-.77A4.1,4.1,0,0,1,18,18.83l.85,1.05a4.73,4.73,0,0,0,4-2A17.29,17.29,0,0,0,21,10.38Zm-6.79,4.9a1.32,1.32,0,1,1-2.64,0,1.33,1.33,0,1,1,2.64,0Zm3.4,1.43a1.44,1.44,0,1,1,1.32-1.43A1.38,1.38,0,0,1,17.6,16.71Z"
     id="path8"
     style="fill:#6d6d6d;fill-opacity:1" />
</svg>
