<?xml version="1.0" encoding="UTF-8" standalone="no"?>
<!-- Created with Inkscape (http://www.inkscape.org/) -->

<svg
   xmlns:dc="http://purl.org/dc/elements/1.1/"
   xmlns:cc="http://creativecommons.org/ns#"
   xmlns:rdf="http://www.w3.org/1999/02/22-rdf-syntax-ns#"
   xmlns:svg="http://www.w3.org/2000/svg"
   xmlns="http://www.w3.org/2000/svg"
   xmlns:sodipodi="http://sodipodi.sourceforge.net/DTD/sodipodi-0.dtd"
   xmlns:inkscape="http://www.inkscape.org/namespaces/inkscape"
   width="32"
   height="32"
   viewBox="0 0 8.4666666 8.4666666"
   version="1.1"
   id="svg8"
   inkscape:version="0.92.5 (2060ec1f9f, 2020-04-08)"
   sodipodi:docname="edit-alpha_sl.svg">
  <defs
     id="defs2">
    <style
       id="style1399">.cls-1{fill:#e3e3e3;}</style>
    <style
       id="style1399-4">.cls-1{fill:#e3e3e3;}</style>
    <style
       id="style1399-5">.cls-1{fill:#e3e3e3;}</style>
    <style
       id="style1399-7">.cls-1{fill:#e3e3e3;}</style>
    <style
       id="style1399-85">.cls-1{fill:#e3e3e3;}</style>
    <style
       id="style1399-4-6">.cls-1{fill:#e3e3e3;}</style>
    <style
       id="style1399-8">.cls-1{fill:#e3e3e3;}</style>
    <style
       id="style1399-4-5">.cls-1{fill:#e3e3e3;}</style>
    <style
       id="style1399-78">.cls-1{fill:#e3e3e3;}</style>
    <style
       id="style1399-4-57">.cls-1{fill:#e3e3e3;}</style>
    <style
       id="style1399-5-4">.cls-1{fill:#e3e3e3;}</style>
    <style
       id="style1399-7-1">.cls-1{fill:#e3e3e3;}</style>
    <style
       id="style1399-85-8">.cls-1{fill:#e3e3e3;}</style>
    <style
       id="style1399-4-6-5">.cls-1{fill:#e3e3e3;}</style>
    <style
       id="style1399-8-9">.cls-1{fill:#e3e3e3;}</style>
    <style
       id="style1399-4-5-7">.cls-1{fill:#e3e3e3;}</style>
    <style
       id="style1399-77">.cls-1{fill:#e3e3e3;}</style>
    <style
       id="style1399-4-64">.cls-1{fill:#e3e3e3;}</style>
    <style
       id="style1399-5-3">.cls-1{fill:#e3e3e3;}</style>
    <style
       id="style1399-7-0">.cls-1{fill:#e3e3e3;}</style>
    <style
       id="style1399-85-3">.cls-1{fill:#e3e3e3;}</style>
    <style
       id="style1399-4-6-0">.cls-1{fill:#e3e3e3;}</style>
    <style
       id="style1399-8-92">.cls-1{fill:#e3e3e3;}</style>
    <style
       id="style1399-4-5-5">.cls-1{fill:#e3e3e3;}</style>
    <style
       id="style1399-2">.cls-1{fill:#e3e3e3;}</style>
    <style
       id="style1399-4-2">.cls-1{fill:#e3e3e3;}</style>
    <style
       id="style1399-5-47">.cls-1{fill:#e3e3e3;}</style>
    <style
       id="style1399-7-7">.cls-1{fill:#e3e3e3;}</style>
    <style
       id="style1399-85-5">.cls-1{fill:#e3e3e3;}</style>
    <style
       id="style1399-4-6-4">.cls-1{fill:#e3e3e3;}</style>
    <style
       id="style1399-8-8">.cls-1{fill:#e3e3e3;}</style>
    <style
       id="style1399-4-5-1">.cls-1{fill:#e3e3e3;}</style>
    <style
       id="style1399-78-2">.cls-1{fill:#e3e3e3;}</style>
    <style
       id="style1399-4-57-8">.cls-1{fill:#e3e3e3;}</style>
    <style
       id="style1399-5-4-9">.cls-1{fill:#e3e3e3;}</style>
    <style
       id="style1399-7-1-3">.cls-1{fill:#e3e3e3;}</style>
    <style
       id="style1399-85-8-6">.cls-1{fill:#e3e3e3;}</style>
    <style
       id="style1399-4-6-5-8">.cls-1{fill:#e3e3e3;}</style>
    <style
       id="style1399-8-9-0">.cls-1{fill:#e3e3e3;}</style>
    <style
       id="style1399-4-5-7-2">.cls-1{fill:#e3e3e3;}</style>
  </defs>
  <sodipodi:namedview
     id="base"
     pagecolor="#ffffff"
     bordercolor="#666666"
     borderopacity="1.0"
     inkscape:pageopacity="0.0"
     inkscape:pageshadow="2"
     inkscape:zoom="11.313708"
     inkscape:cx="7.6139263"
     inkscape:cy="9.9897068"
     inkscape:document-units="mm"
     inkscape:current-layer="svg8"
     showgrid="false"
     units="px"
     inkscape:window-width="1920"
     inkscape:window-height="1043"
     inkscape:window-x="0"
     inkscape:window-y="120"
     inkscape:window-maximized="1">
    <sodipodi:guide
       position="8.4666666,0"
       orientation="-32,0"
       id="guide854"
       inkscape:locked="false" />
    <sodipodi:guide
       position="0,8.4666666"
       orientation="0,-32"
       id="guide856"
       inkscape:locked="false" />
    <sodipodi:guide
       position="0,8.4666666"
       orientation="32,0"
       id="guide858"
       inkscape:locked="false" />
  </sodipodi:namedview>
  <metadata
     id="metadata5">
    <rdf:RDF>
      <cc:Work
         rdf:about="">
        <dc:format>image/svg+xml</dc:format>
        <dc:type
           rdf:resource="http://purl.org/dc/dcmitype/StillImage" />
        <dc:title></dc:title>
      </cc:Work>
    </rdf:RDF>
  </metadata>
  <path
     style="opacity:1;fill:#d588f1;fill-opacity:1;stroke:none;stroke-width:5.53700733;stroke-linecap:round;stroke-linejoin:round;stroke-miterlimit:4;stroke-dasharray:none;stroke-dashoffset:10.3937006;stroke-opacity:1"
     d="M 15.904297 0 A 15.999999 15.999999 0 0 0 4.5859375 4.7070312 A 15.999999 15.999999 0 0 0 -0.11914062 16.027344 A 15.999999 15.999999 0 0 0 2.2167969 24.310547 L 4.4882812 22.042969 C 4.4267767 21.200163 4.4843331 20.347655 4.71875 19.544922 A 11.651697 11.651697 0 0 1 4.1269531 15.921875 A 11.651697 11.651697 0 0 1 7.5527344 7.6777344 L 24.019531 24.146484 A 11.651697 11.651697 0 0 1 15.777344 27.574219 A 11.651697 11.651697 0 0 1 12.552734 27.109375 C 11.69044 27.399967 10.764637 27.482214 9.8476562 27.416016 L 7.5761719 29.685547 A 15.999999 15.999999 0 0 0 15.880859 32.027344 A 15.999999 15.999999 0 0 0 27.199219 27.320312 A 15.999999 15.999999 0 0 0 31.904297 16 A 15.999999 15.999999 0 0 0 15.904297 0 z "
     transform="scale(0.26458333)"
     id="path1082" />
  <path
     sodipodi:nodetypes="cccccscccscccccc"
     style="fill:#d588f1;fill-opacity:1;stroke-width:0.00740854"
     inkscape:connector-curvature="0"
     d="M 3.7516488,5.463222 C 3.7350523,5.3963244 3.6513369,5.3736486 3.6025888,5.4223887 L 3.0516895,5.9732892 2.5487978,5.8894979 2.4650072,5.3866068 3.0159062,4.8357064 C 3.0649509,4.7866615 3.0413178,4.7030944 2.9739738,4.6863487 2.6229572,4.599375 2.2364536,4.693072 1.9621153,4.9673591 1.6684407,5.261032 1.5876135,5.6867252 1.7098545,6.0578917 L 0.12894566,7.6388009 c -0.18513948,0.1851395 -0.18513948,0.485334 0,0.670478 0.18513944,0.1851351 0.48533355,0.1851351 0.67047299,0 L 2.3789939,6.7296965 C 2.7503101,6.8534964 3.17519,6.7717849 3.4707906,6.4761802 3.7454254,6.2015435 3.838995,5.814447 3.7516487,5.463213 Z"
     id="path1219" />
</svg>
