<?xml version="1.0" encoding="UTF-8" standalone="no"?>
<!-- Created with Inkscape (http://www.inkscape.org/) -->

<svg
   xmlns:dc="http://purl.org/dc/elements/1.1/"
   xmlns:cc="http://creativecommons.org/ns#"
   xmlns:rdf="http://www.w3.org/1999/02/22-rdf-syntax-ns#"
   xmlns:svg="http://www.w3.org/2000/svg"
   xmlns="http://www.w3.org/2000/svg"
   xmlns:sodipodi="http://sodipodi.sourceforge.net/DTD/sodipodi-0.dtd"
   xmlns:inkscape="http://www.inkscape.org/namespaces/inkscape"
   width="32"
   height="32"
   viewBox="0 0 8.4666666 8.4666666"
   version="1.1"
   id="svg8"
   inkscape:version="0.92.5 (2060ec1f9f, 2020-04-08)"
   sodipodi:docname="export-file_bl.svg">
  <defs
     id="defs2">
    <style
       id="style1399">.cls-1{fill:#e3e3e3;}</style>
  </defs>
  <sodipodi:namedview
     id="base"
     pagecolor="#ffffff"
     bordercolor="#666666"
     borderopacity="1.0"
     inkscape:pageopacity="0.0"
     inkscape:pageshadow="2"
     inkscape:zoom="7.9999995"
     inkscape:cx="-18.580528"
     inkscape:cy="20.281371"
     inkscape:document-units="mm"
     inkscape:current-layer="svg8"
     showgrid="false"
     units="px"
     inkscape:window-width="1920"
     inkscape:window-height="1043"
     inkscape:window-x="0"
     inkscape:window-y="120"
     inkscape:window-maximized="1">
    <sodipodi:guide
       position="8.4666666,0"
       orientation="-32,0"
       id="guide854"
       inkscape:locked="false" />
    <sodipodi:guide
       position="8.4666666,8.4666666"
       orientation="0,-32"
       id="guide856"
       inkscape:locked="false" />
    <sodipodi:guide
       position="0,8.4666814"
       orientation="1,6.123234e-17"
       id="guide858"
       inkscape:locked="false" />
  </sodipodi:namedview>
  <metadata
     id="metadata5">
    <rdf:RDF>
      <cc:Work
         rdf:about="">
        <dc:format>image/svg+xml</dc:format>
        <dc:type
           rdf:resource="http://purl.org/dc/dcmitype/StillImage" />
        <dc:title />
      </cc:Work>
    </rdf:RDF>
  </metadata>
  <path
     style="fill:#e3e3e3;fill-opacity:1;stroke-width:0.06281408"
     d="M 9.3867188 -0.017578125 C 8.5512924 -0.017578125 7.8789064 0.65480758 7.8789062 1.4902344 L 7.8789062 10.53125 C 7.8903292 10.5772 7.9071386 10.62124 7.9160156 10.667969 C 8.1885206 9.9920888 8.4223084 9.2352274 9.0410156 8.9804688 C 9.9286242 8.6149869 11.117062 8.7764781 11.888672 9.5429688 A 1.8522126 1.8522126 0 0 1 11.888672 9.5488281 L 17.240234 14.900391 A 1.8522126 1.8522126 0 0 1 17.246094 14.90625 C 18.244107 15.914949 18.244045 17.583102 17.246094 18.591797 A 1.8522126 1.8522126 0 0 1 17.240234 18.597656 L 11.888672 23.955078 C 11.117948 24.725823 9.9377499 24.889513 9.0488281 24.525391 C 8.4288448 24.271432 8.1893349 23.515414 7.9160156 22.837891 C 7.9071356 22.884621 7.8903282 22.928661 7.8789062 22.974609 L 7.8789062 30.634766 C 7.8789062 31.470192 8.5512924 32.142578 9.3867188 32.142578 L 30.492188 32.142578 C 31.327612 32.142495 32 31.470192 32 30.634766 L 32 10.033203 L 23.457031 10.033203 C 22.627886 10.033203 21.949219 9.3545434 21.949219 8.5253906 L 21.949219 -0.017578125 L 9.3867188 -0.017578125 z M 23.958984 -0.017578125 L 23.958984 8.0214844 L 32 8.0214844 L 32 7.6386719 C 32 7.2429553 31.843218 6.8608337 31.560547 6.578125 L 25.410156 0.421875 C 25.127493 0.13901516 24.74576 -0.017578125 24.34375 -0.017578125 L 23.958984 -0.017578125 z "
     transform="scale(0.26458333)"
     id="path825" />
  <path
     style="fill:#8ad891;fill-opacity:1;stroke-width:0.06281408"
     d="M 3.1582031 10.636719 C 1.470083 10.636719 0.1015625 12.007178 0.1015625 13.695312 L 0.1015625 19.810547 C 0.1015625 21.498683 1.470083 22.867187 3.1582031 22.867188 L 5.8339844 22.867188 C 6.0442017 22.867188 6.2167969 22.694565 6.2167969 22.484375 L 6.2167969 21.210938 C 6.2167969 21.000709 6.0442013 20.828125 5.8339844 20.828125 L 3.1582031 20.828125 C 2.5944344 20.828125 2.1386719 20.374326 2.1386719 19.810547 L 2.1386719 13.695312 C 2.1386719 13.131534 2.5944344 12.675781 3.1582031 12.675781 L 5.8339844 12.675781 C 6.0442017 12.675781 6.2167969 12.503158 6.2167969 12.292969 L 6.2167969 11.019531 C 6.2167969 10.809325 6.0442013 10.636719 5.8339844 10.636719 L 3.1582031 10.636719 z M 9.9550781 10.640625 C 9.5959732 10.682805 9.2734375 10.974388 9.2734375 11.400391 L 9.2734375 14.458984 L 4.9414062 14.458984 C 4.5177833 14.458984 4.1777344 14.799059 4.1777344 15.222656 L 4.1777344 18.28125 C 4.1777344 18.70485 4.5177852 19.044922 4.9414062 19.044922 L 9.2734375 19.044922 L 9.2734375 22.103516 C 9.2734375 22.788398 10.102308 23.122314 10.580078 22.644531 L 15.931641 17.292969 C 16.227857 16.993563 16.227857 16.510324 15.931641 16.210938 L 10.580078 10.859375 C 10.39972 10.680213 10.170541 10.615319 9.9550781 10.640625 z "
     transform="scale(0.26458333)"
     id="path821" />
</svg>
