<?xml version="1.0" encoding="UTF-8" standalone="no"?>
<svg
   xmlns:dc="http://purl.org/dc/elements/1.1/"
   xmlns:cc="http://creativecommons.org/ns#"
   xmlns:rdf="http://www.w3.org/1999/02/22-rdf-syntax-ns#"
   xmlns:svg="http://www.w3.org/2000/svg"
   xmlns="http://www.w3.org/2000/svg"
   xmlns:sodipodi="http://sodipodi.sourceforge.net/DTD/sodipodi-0.dtd"
   xmlns:inkscape="http://www.inkscape.org/namespaces/inkscape"
   id="Calque_1"
   data-name="Calque 1"
   viewBox="0 0 32 32"
   version="1.1"
   sodipodi:docname="forum.svg"
   inkscape:version="0.92.4 (5da689c313, 2019-01-14)">
  <metadata
     id="metadata13">
    <rdf:RDF>
      <cc:Work
         rdf:about="">
        <dc:format>image/svg+xml</dc:format>
        <dc:type
           rdf:resource="http://purl.org/dc/dcmitype/StillImage" />
      </cc:Work>
    </rdf:RDF>
  </metadata>
  <sodipodi:namedview
     pagecolor="#ffffff"
     bordercolor="#666666"
     borderopacity="1"
     objecttolerance="10"
     gridtolerance="10"
     guidetolerance="10"
     inkscape:pageopacity="0"
     inkscape:pageshadow="2"
     inkscape:window-width="837"
     inkscape:window-height="480"
     id="namedview11"
     showgrid="false"
     inkscape:zoom="9.1899414"
     inkscape:cx="11.429786"
     inkscape:cy="15.891185"
     inkscape:window-x="0"
     inkscape:window-y="0"
     inkscape:window-maximized="0"
     inkscape:current-layer="Calque_1" />
  <defs
     id="defs4">
    <style
       id="style2">.cls-1{fill:#e3e3e3;}</style>
  </defs>
  <title
     id="title6">forum_l</title>
  <path
     class="cls-1"
     d="M11.92,18.2A11.77,11.77,0,0,1,6.75,17,8.17,8.17,0,0,1,2.63,18.2.36.36,0,0,1,2.29,18a.38.38,0,0,1,.07-.41A10.17,10.17,0,0,0,4,15a6.29,6.29,0,0,1-1.76-4.27c0-4.1,4.32-7.43,9.66-7.43s9.65,3.33,9.65,7.43S17.25,18.2,11.92,18.2Zm17,5.32a.37.37,0,0,1,.07.4.36.36,0,0,1-.34.22A8.2,8.2,0,0,1,24.51,23a11.62,11.62,0,0,1-5.16,1.16c-4,0-7.44-1.87-8.91-4.54a14.52,14.52,0,0,0,1.48.09c6.14,0,11.14-4,11.14-8.92A7,7,0,0,0,23,9.84c3.52,1.11,6,3.77,6,6.87A6.3,6.3,0,0,1,27.24,21,10.73,10.73,0,0,0,28.9,23.52Z"
     id="path8"
     style="fill:#6d6d6d;fill-opacity:1" />
</svg>
