<?xml version="1.0" encoding="UTF-8" standalone="no"?>
<!-- Created with Inkscape (http://www.inkscape.org/) -->

<svg
   xmlns:dc="http://purl.org/dc/elements/1.1/"
   xmlns:cc="http://creativecommons.org/ns#"
   xmlns:rdf="http://www.w3.org/1999/02/22-rdf-syntax-ns#"
   xmlns:svg="http://www.w3.org/2000/svg"
   xmlns="http://www.w3.org/2000/svg"
   xmlns:sodipodi="http://sodipodi.sourceforge.net/DTD/sodipodi-0.dtd"
   xmlns:inkscape="http://www.inkscape.org/namespaces/inkscape"
   width="32"
   height="32"
   viewBox="0 0 8.4666666 8.4666666"
   version="1.1"
   id="svg8"
   inkscape:version="0.92.5 (2060ec1f9f, 2020-04-08)"
   sodipodi:docname="frames-start-number_sl.svg">
  <defs
     id="defs2">
    <style
       id="style1399">.cls-1{fill:#e3e3e3;}</style>
    <style
       id="style1399-4">.cls-1{fill:#e3e3e3;}</style>
    <style
       id="style1399-5">.cls-1{fill:#e3e3e3;}</style>
    <style
       id="style1399-7">.cls-1{fill:#e3e3e3;}</style>
    <style
       id="style1399-85">.cls-1{fill:#e3e3e3;}</style>
    <style
       id="style1399-4-6">.cls-1{fill:#e3e3e3;}</style>
    <style
       id="style1399-8">.cls-1{fill:#e3e3e3;}</style>
    <style
       id="style1399-4-5">.cls-1{fill:#e3e3e3;}</style>
  </defs>
  <sodipodi:namedview
     id="base"
     pagecolor="#ffffff"
     bordercolor="#666666"
     borderopacity="1.0"
     inkscape:pageopacity="0.0"
     inkscape:pageshadow="2"
     inkscape:zoom="11.313708"
     inkscape:cx="2.5132489"
     inkscape:cy="17.585038"
     inkscape:document-units="mm"
     inkscape:current-layer="svg8"
     showgrid="false"
     units="px"
     inkscape:window-width="1848"
     inkscape:window-height="1136"
     inkscape:window-x="1920"
     inkscape:window-y="27"
     inkscape:window-maximized="1">
    <sodipodi:guide
       position="8.4666666,0"
       orientation="-32,0"
       id="guide854"
       inkscape:locked="false" />
    <sodipodi:guide
       position="8.4666666,8.4599157"
       orientation="0,-32"
       id="guide856"
       inkscape:locked="false" />
    <sodipodi:guide
       position="0,8.4666814"
       orientation="32,0"
       id="guide858"
       inkscape:locked="false" />
  </sodipodi:namedview>
  <metadata
     id="metadata5">
    <rdf:RDF>
      <cc:Work
         rdf:about="">
        <dc:format>image/svg+xml</dc:format>
        <dc:type
           rdf:resource="http://purl.org/dc/dcmitype/StillImage" />
        <dc:title />
      </cc:Work>
    </rdf:RDF>
  </metadata>
  <path
     style="fill:#838383;fill-opacity:1;stroke-width:0.04743152"
     d="M 2.3046875 5.1523438 C 1.0477519 5.1523438 0.02734375 6.1707973 0.02734375 7.4277344 L 0.02734375 24.125 C 0.027342616 25.381935 1.0477512 26.402344 2.3046875 26.402344 L 19.001953 26.402344 C 20.258888 26.402344 21.277343 25.381936 21.277344 24.125 L 21.277344 7.4277344 C 21.277343 6.1707973 20.258888 5.1523438 19.001953 5.1523438 L 2.3046875 5.1523438 z M 23.136719 5.1523438 C 23.516194 5.8320891 23.734375 6.6083599 23.734375 7.4296875 L 23.734375 24.123047 C 23.734375 24.944374 23.516192 25.722599 23.136719 26.402344 L 24.328125 26.402344 C 25.585059 26.402344 26.603515 25.381936 26.603516 24.125 L 26.603516 7.4277344 C 26.603515 6.1707973 25.58506 5.1523437 24.328125 5.1523438 L 23.136719 5.1523438 z M 28.462891 5.1523438 C 28.842365 5.8320891 29.060547 6.6083599 29.060547 7.4296875 L 29.060547 24.123047 C 29.060547 24.944374 28.842363 25.722599 28.462891 26.402344 L 29.695312 26.402344 C 30.952247 26.402344 31.970703 25.381936 31.970703 24.125 L 31.970703 7.4277344 C 31.970703 6.1707973 30.952247 5.1523438 29.695312 5.1523438 L 28.462891 5.1523438 z M 6.8476562 8.0976562 L 14.259766 8.0976562 C 14.332329 8.0976562 14.402296 8.1215461 14.466797 8.1699219 C 14.531298 8.2182977 14.582734 8.2955764 14.623047 8.4003906 C 14.671423 8.5052048 14.704578 8.6468409 14.720703 8.8242188 C 14.744891 8.993534 14.755859 9.1975742 14.755859 9.4394531 C 14.755859 9.923211 14.711736 10.274496 14.623047 10.492188 C 14.542421 10.709879 14.421018 10.818359 14.259766 10.818359 L 8.6972656 10.818359 L 8.6972656 14.167969 C 8.9794577 14.135718 9.2571205 14.117438 9.53125 14.109375 C 9.8134421 14.101312 10.107682 14.095703 10.414062 14.095703 C 11.260639 14.095703 12.010989 14.196872 12.664062 14.398438 C 13.325198 14.591941 13.876868 14.882525 14.320312 15.269531 C 14.77182 15.648475 15.115793 16.124819 15.349609 16.697266 C 15.583426 17.26165 15.699219 17.918144 15.699219 18.667969 C 15.699219 19.514545 15.55027 20.272208 15.251953 20.941406 C 14.961698 21.602542 14.546056 22.163477 14.005859 22.623047 C 13.473726 23.074554 12.830153 23.42023 12.072266 23.662109 C 11.322441 23.903988 10.487499 24.025391 9.5683594 24.025391 C 9.0846015 24.025391 8.6248352 23.994189 8.1894531 23.929688 C 7.754071 23.873249 7.3623182 23.799626 7.015625 23.710938 C 6.6689318 23.614186 6.3839568 23.522283 6.1582031 23.433594 C 5.9405121 23.336842 5.7952199 23.259563 5.7226562 23.203125 C 5.6581552 23.138624 5.6084224 23.070611 5.5761719 22.998047 C 5.5439213 22.925483 5.5163754 22.840892 5.4921875 22.744141 C 5.4760622 22.639326 5.4650939 22.510612 5.4570312 22.357422 C 5.4489686 22.204232 5.4433594 22.022128 5.4433594 21.8125 C 5.4433594 21.586746 5.4526247 21.397331 5.46875 21.244141 C 5.4848753 21.082888 5.5087651 20.954173 5.5410156 20.857422 C 5.5813288 20.76067 5.6254523 20.690704 5.6738281 20.650391 C 5.7222039 20.610077 5.7792489 20.589844 5.84375 20.589844 C 5.9243763 20.589844 6.0438255 20.639577 6.2050781 20.736328 C 6.3743934 20.825017 6.5933082 20.926186 6.859375 21.039062 C 7.1335045 21.151939 7.4645562 21.256764 7.8515625 21.353516 C 8.2385688 21.442205 8.7019912 21.486328 9.2421875 21.486328 C 9.7098201 21.486328 10.132775 21.436595 10.511719 21.339844 C 10.898725 21.243092 11.224168 21.090488 11.490234 20.880859 C 11.756301 20.663168 11.962295 20.392818 12.107422 20.070312 C 12.252549 19.747807 12.326172 19.361664 12.326172 18.910156 C 12.326172 18.52315 12.265471 18.179177 12.144531 17.880859 C 12.023592 17.574479 11.834176 17.31705 11.576172 17.107422 C 11.318168 16.897793 10.98346 16.741533 10.572266 16.636719 C 10.161071 16.531905 9.6608377 16.478516 9.0722656 16.478516 C 8.604633 16.478516 8.1780219 16.502405 7.7910156 16.550781 C 7.4120719 16.599157 7.0534743 16.623047 6.7148438 16.623047 C 6.4810274 16.623047 6.3098923 16.567955 6.2050781 16.455078 C 6.1083265 16.334139 6.0605469 16.115224 6.0605469 15.800781 L 6.0605469 9.0039062 C 6.0605469 8.681401 6.121248 8.453471 6.2421875 8.3164062 C 6.3711896 8.1712789 6.5735268 8.0976562 6.8476562 8.0976562 z "
     transform="scale(0.26458333)"
     id="path1002" />
</svg>
