<?xml version="1.0" encoding="UTF-8" standalone="no"?>
<!-- Created with Inkscape (http://www.inkscape.org/) -->

<svg
   xmlns:dc="http://purl.org/dc/elements/1.1/"
   xmlns:cc="http://creativecommons.org/ns#"
   xmlns:rdf="http://www.w3.org/1999/02/22-rdf-syntax-ns#"
   xmlns:svg="http://www.w3.org/2000/svg"
   xmlns="http://www.w3.org/2000/svg"
   xmlns:sodipodi="http://sodipodi.sourceforge.net/DTD/sodipodi-0.dtd"
   xmlns:inkscape="http://www.inkscape.org/namespaces/inkscape"
   width="32"
   height="32"
   viewBox="0 0 8.4666666 8.4666666"
   version="1.1"
   id="svg8"
   inkscape:version="0.92.5 (2060ec1f9f, 2020-04-08)"
   sodipodi:docname="go-to-settings_sl.svg">
  <defs
     id="defs2">
    <style
       id="style1399">.cls-1{fill:#e3e3e3;}</style>
    <style
       id="style1399-1">.cls-1{fill:#e3e3e3;}</style>
    <style
       id="style1399-5">.cls-1{fill:#e3e3e3;}</style>
    <style
       id="style1399-8">.cls-1{fill:#e3e3e3;}</style>
    <style
       id="style1399-7">.cls-1{fill:#e3e3e3;}</style>
    <style
       id="style1399-1-5">.cls-1{fill:#e3e3e3;}</style>
    <style
       id="style1399-5-6">.cls-1{fill:#e3e3e3;}</style>
    <style
       id="style1399-8-9">.cls-1{fill:#e3e3e3;}</style>
    <style
       id="style1399-2">.cls-1{fill:#e3e3e3;}</style>
    <style
       id="style1399-1-1">.cls-1{fill:#e3e3e3;}</style>
    <style
       id="style1399-5-5">.cls-1{fill:#e3e3e3;}</style>
    <style
       id="style1399-8-99">.cls-1{fill:#e3e3e3;}</style>
  </defs>
  <sodipodi:namedview
     id="base"
     pagecolor="#ffffff"
     bordercolor="#666666"
     borderopacity="1.0"
     inkscape:pageopacity="0.0"
     inkscape:pageshadow="2"
     inkscape:zoom="3.9999998"
     inkscape:cx="-51.69761"
     inkscape:cy="35.533966"
     inkscape:document-units="mm"
     inkscape:current-layer="svg8"
     showgrid="false"
     units="px"
     inkscape:window-width="1920"
     inkscape:window-height="1043"
     inkscape:window-x="0"
     inkscape:window-y="120"
     inkscape:window-maximized="1">
    <sodipodi:guide
       position="8.4666666,0"
       orientation="-32,0"
       id="guide854"
       inkscape:locked="false" />
    <sodipodi:guide
       position="8.4666666,8.4666666"
       orientation="0,-32"
       id="guide856"
       inkscape:locked="false" />
    <sodipodi:guide
       position="0,8.4666814"
       orientation="1,6.123234e-17"
       id="guide858"
       inkscape:locked="false" />
  </sodipodi:namedview>
  <metadata
     id="metadata5">
    <rdf:RDF>
      <cc:Work
         rdf:about="">
        <dc:format>image/svg+xml</dc:format>
        <dc:type
           rdf:resource="http://purl.org/dc/dcmitype/StillImage" />
        <dc:title></dc:title>
      </cc:Work>
    </rdf:RDF>
  </metadata>
  <path
     style="fill:#e3e3e3;fill-opacity:1;stroke-width:0.06346364"
     d="M 16.857422 0.015625 C 15.692864 0.018800186 14.542988 0.1489593 13.435547 0.39648438 C 13.0865 0.47235385 12.839844 0.78507846 12.839844 1.140625 L 12.839844 4.2617188 C 11.430951 4.7630911 10.122815 5.5192511 8.9804688 6.4902344 L 6.2832031 4.9277344 C 5.97223 4.749962 5.5849114 4.8075595 5.34375 5.0742188 C 3.7761977 6.7686806 2.5774943 8.8124456 1.8730469 11.078125 C 1.7651587 11.42103 1.9116473 11.789135 2.2226562 11.966797 L 4.9257812 13.527344 C 4.8085357 14.15991 4.750874 14.80081 4.734375 15.441406 L 11.839844 15.441406 C 12.000407 12.786116 14.205553 10.671875 16.900391 10.671875 C 19.699137 10.671875 21.978516 12.951261 21.978516 15.75 C 21.978516 18.548739 19.699137 20.826172 16.900391 20.826172 C 16.816568 20.826172 16.735186 20.818493 16.652344 20.814453 L 16.652344 27.466797 C 16.652344 29.04455 15.818438 30.462677 14.667969 31.330078 C 16.600624 31.603978 18.545374 31.521788 20.373047 31.113281 C 20.722092 31.037408 20.96875 30.726642 20.96875 30.371094 L 20.96875 27.25 C 22.377643 26.74859 23.68578 25.992469 24.828125 25.021484 L 27.53125 26.582031 C 27.842226 26.759805 28.229541 26.702208 28.470703 26.435547 C 30.038254 24.741086 31.236961 22.699273 31.941406 20.433594 C 32.036605 20.084743 31.896908 19.714845 31.585938 19.537109 L 28.882812 17.976562 C 29.155706 16.50417 29.155706 14.993841 28.882812 13.521484 L 31.585938 11.960938 C 31.896906 11.783165 32.037089 11.414981 31.935547 11.072266 C 31.231102 8.8129458 30.032393 6.7691812 28.464844 5.0683594 C 28.223682 4.8083936 27.830016 4.7444734 27.525391 4.921875 L 24.820312 6.4824219 C 23.684315 5.505078 22.378129 4.750835 20.962891 4.2558594 L 20.962891 1.140625 C 20.962891 0.78544994 20.714283 0.47261444 20.365234 0.39648438 C 19.200676 0.13625855 18.02198 0.012449814 16.857422 0.015625 z M 4.625 18.705078 C 3.2512756 18.705078 2.5574032 20.371792 3.53125 21.345703 L 5.5917969 23.408203 L 0.67382812 28.654297 C 0.38175379 28.96596 0.37180547 29.445949 0.67382812 29.748047 L 2.6738281 31.748047 C 2.9759178 32.05008 3.4655447 32.05008 3.7675781 31.748047 L 8.6855469 26.501953 L 10.748047 28.5625 C 11.716736 29.531061 13.388672 28.851048 13.388672 27.46875 L 13.388672 20.251953 C 13.388672 19.397606 12.696144 18.705078 11.841797 18.705078 L 4.625 18.705078 z "
     transform="scale(0.26458333)"
     id="path818" />
</svg>
