<?xml version="1.0" encoding="UTF-8" standalone="no"?>
<!-- Created with Inkscape (http://www.inkscape.org/) -->

<svg
   xmlns:dc="http://purl.org/dc/elements/1.1/"
   xmlns:cc="http://creativecommons.org/ns#"
   xmlns:rdf="http://www.w3.org/1999/02/22-rdf-syntax-ns#"
   xmlns:svg="http://www.w3.org/2000/svg"
   xmlns="http://www.w3.org/2000/svg"
   xmlns:sodipodi="http://sodipodi.sourceforge.net/DTD/sodipodi-0.dtd"
   xmlns:inkscape="http://www.inkscape.org/namespaces/inkscape"
   width="32"
   height="32"
   viewBox="0 0 8.4666666 8.4666666"
   version="1.1"
   id="svg8"
   inkscape:version="0.92.5 (2060ec1f9f, 2020-04-08)"
   sodipodi:docname="go-to-settings_bd.svg">
  <defs
     id="defs2">
    <style
       id="style1399">.cls-1{fill:#e3e3e3;}</style>
    <style
       id="style1399-1">.cls-1{fill:#e3e3e3;}</style>
    <style
       id="style1399-5">.cls-1{fill:#e3e3e3;}</style>
    <style
       id="style1399-8">.cls-1{fill:#e3e3e3;}</style>
    <style
       id="style1399-7">.cls-1{fill:#e3e3e3;}</style>
    <style
       id="style1399-1-5">.cls-1{fill:#e3e3e3;}</style>
    <style
       id="style1399-5-6">.cls-1{fill:#e3e3e3;}</style>
    <style
       id="style1399-8-9">.cls-1{fill:#e3e3e3;}</style>
  </defs>
  <sodipodi:namedview
     id="base"
     pagecolor="#ffffff"
     bordercolor="#666666"
     borderopacity="1.0"
     inkscape:pageopacity="0.0"
     inkscape:pageshadow="2"
     inkscape:zoom="11.313708"
     inkscape:cx="8.5763837"
     inkscape:cy="19.322812"
     inkscape:document-units="mm"
     inkscape:current-layer="svg8"
     showgrid="false"
     units="px"
     inkscape:window-width="1920"
     inkscape:window-height="1043"
     inkscape:window-x="0"
     inkscape:window-y="120"
     inkscape:window-maximized="1">
    <sodipodi:guide
       position="8.4666666,0"
       orientation="-32,0"
       id="guide854"
       inkscape:locked="false" />
    <sodipodi:guide
       position="8.4666666,8.4666666"
       orientation="0,-32"
       id="guide856"
       inkscape:locked="false" />
    <sodipodi:guide
       position="0,8.4666814"
       orientation="1,6.123234e-17"
       id="guide858"
       inkscape:locked="false" />
  </sodipodi:namedview>
  <metadata
     id="metadata5">
    <rdf:RDF>
      <cc:Work
         rdf:about="">
        <dc:format>image/svg+xml</dc:format>
        <dc:type
           rdf:resource="http://purl.org/dc/dcmitype/StillImage" />
        <dc:title></dc:title>
      </cc:Work>
    </rdf:RDF>
  </metadata>
  <path
     style="fill:#232323;fill-opacity:1;stroke-width:0.04715735"
     d="M 25.080078 0.03515625 C 25.011773 0.035262298 24.9422 0.047526964 24.875 0.072265625 C 24.32326 0.27974888 23.809323 0.57669188 23.361328 0.94921875 C 23.139685 1.1284088 23.088997 1.4440314 23.230469 1.6894531 L 23.617188 2.3632812 C 23.2918 2.7405593 23.036949 3.1799102 22.867188 3.65625 L 22.087891 3.65625 C 21.804946 3.65625 21.560833 3.8639118 21.513672 4.1464844 C 21.414637 4.7359969 21.419361 5.3305855 21.513672 5.8964844 C 21.560829 6.1793083 21.804948 6.3828125 22.087891 6.3828125 L 22.867188 6.3828125 C 23.036953 6.8591165 23.291802 7.2965859 23.617188 7.6738281 L 23.230469 8.3476562 C 23.088996 8.5928282 23.144399 8.9085577 23.361328 9.0878906 C 23.809323 9.4604175 24.318544 9.7592422 24.875 9.9667969 C 25.143798 10.065751 25.446418 9.960646 25.587891 9.7109375 L 25.974609 9.0371094 C 26.469763 9.1267749 26.978314 9.1267749 27.46875 9.0371094 L 27.855469 9.7109375 C 27.99694 9.958503 28.29956 10.065752 28.568359 9.9667969 C 29.1201 9.7593137 29.634036 9.460453 30.082031 9.0878906 C 30.303679 8.9087361 30.356317 8.593078 30.214844 8.3476562 L 29.828125 7.6738281 C 30.153512 7.2965855 30.406409 6.8591169 30.576172 6.3828125 L 31.355469 6.3828125 C 31.638409 6.3828125 31.882527 6.1731976 31.929688 5.890625 C 32.028721 5.301148 32.024001 4.7084773 31.929688 4.1425781 C 31.88253 3.8597894 31.638412 3.65625 31.355469 3.65625 L 30.576172 3.65625 C 30.406405 3.1799102 30.153512 2.7405594 29.828125 2.3632812 L 30.214844 1.6894531 C 30.356308 1.4442099 30.298961 1.1285517 30.082031 0.94921875 C 29.634036 0.576692 29.124815 0.27982035 28.568359 0.072265625 C 28.299562 -0.027403502 27.99694 0.076105971 27.855469 0.32617188 L 27.46875 1 C 26.973597 0.91033335 26.469763 0.91033335 25.974609 1 L 25.587891 0.32617188 C 25.481787 0.14076592 25.284992 0.034838105 25.080078 0.03515625 z M 11.976562 1.4609375 C 11.375896 1.4629914 10.781207 1.5161011 10.201172 1.6152344 C 9.6635763 1.709545 9.2753906 2.1802991 9.2753906 2.7226562 L 9.2753906 4.3125 C 8.3180956 4.6473026 7.4420184 5.1605773 6.6875 5.8066406 L 5.3144531 5.015625 C 4.8381627 4.7419097 4.2356821 4.8439542 3.8867188 5.2636719 C 3.1227688 6.1785201 2.3161843 7.2259939 1.8964844 8.3671875 C 1.7031386 8.8812157 1.9143351 9.4607315 2.390625 9.734375 L 3.9609375 10.53125 C 3.777023 11.521582 3.777023 12.535867 3.9609375 13.521484 L 2.390625 14.314453 C 1.9143329 14.592669 1.7078531 15.171519 1.8964844 15.685547 C 2.0366102 16.064984 2.229089 16.43118 2.4394531 16.789062 C 2.7363712 16.691173 3.0455408 16.623047 3.3730469 16.623047 L 12.3125 16.623047 C 13.923097 16.623047 15.246264 17.913171 15.361328 19.486328 C 16.072848 19.166322 16.732196 18.748282 17.316406 18.248047 L 18.689453 19.039062 C 19.165742 19.312456 19.768224 19.20878 20.117188 18.789062 C 20.881136 17.874215 21.707252 16.82674 22.126953 15.685547 C 22.315584 15.166803 22.107148 14.588097 21.630859 14.314453 L 20.042969 13.521484 L 20.042969 13.519531 C 20.226881 12.529199 20.226881 11.515723 20.042969 10.525391 L 21.630859 9.7324219 C 22.107194 9.45417 22.292148 8.8753567 22.103516 8.3613281 C 21.683816 7.2201346 20.881136 6.1726608 20.117188 5.2578125 C 19.768224 4.8377029 19.161027 4.7345262 18.689453 5.0078125 L 17.316406 5.8007812 C 16.561887 5.1547539 15.683856 4.6444217 14.726562 4.3046875 L 14.726562 2.7207031 C 14.726563 2.1689863 14.327467 1.7017324 13.785156 1.6074219 C 13.1839 1.5072162 12.57723 1.4588836 11.976562 1.4609375 z M 26.617188 3.3164062 C 27.044771 3.2904698 27.51486 3.4232917 27.96875 3.7734375 C 29.36461 5.589023 27.294076 7.6595757 25.478516 6.2636719 C 24.431621 4.9020096 25.334433 3.3942158 26.617188 3.3164062 z M 12.214844 8.6230469 C 14.78168 8.7813135 16.589882 11.794253 14.496094 14.517578 C 10.864974 17.309314 6.7200006 13.164303 9.5117188 9.5332031 C 10.419499 8.8352781 11.359232 8.5702913 12.214844 8.6230469 z M 25.080078 14.130859 C 25.011773 14.13096 24.9422 14.14323 24.875 14.167969 C 24.32326 14.375524 23.809323 14.672395 23.361328 15.044922 C 23.139684 15.224148 23.088996 15.539735 23.230469 15.785156 L 23.617188 16.458984 C 23.2918 16.836262 23.036949 17.275685 22.867188 17.751953 L 22.087891 17.751953 C 21.804947 17.751953 21.560834 17.959256 21.513672 18.242188 C 21.414637 18.831628 21.419361 19.426252 21.513672 19.992188 C 21.560829 20.27501 21.804948 20.478516 22.087891 20.478516 L 22.867188 20.478516 C 23.036953 20.954784 23.291802 21.392289 23.617188 21.769531 L 23.230469 22.443359 C 23.088996 22.688567 23.144399 23.004261 23.361328 23.183594 C 23.809323 23.556192 24.318544 23.854945 24.875 24.0625 C 25.143798 24.161454 25.446418 24.056706 25.587891 23.806641 L 25.974609 23.132812 C 26.469763 23.222478 26.978314 23.222478 27.46875 23.132812 L 27.855469 23.806641 C 27.99694 24.054206 28.29956 24.161454 28.568359 24.0625 C 29.1201 23.855017 29.634036 23.556192 30.082031 23.183594 C 30.303679 23.00444 30.356317 22.688781 30.214844 22.443359 L 29.828125 21.769531 C 30.153512 21.392289 30.406409 20.954748 30.576172 20.478516 L 31.355469 20.478516 C 31.638409 20.478516 31.882525 20.26926 31.929688 19.986328 C 32.028721 19.396851 32.024001 18.804145 31.929688 18.238281 C 31.88253 17.955458 31.638412 17.751953 31.355469 17.751953 L 30.576172 17.751953 C 30.406405 17.275685 30.153512 16.836264 29.828125 16.458984 L 30.214844 15.785156 C 30.356308 15.539949 30.298961 15.224257 30.082031 15.044922 C 29.634036 14.672395 29.124815 14.375525 28.568359 14.167969 C 28.299562 14.068658 27.99694 14.17181 27.855469 14.421875 L 27.46875 15.097656 C 26.973597 15.007991 26.469763 15.007991 25.974609 15.097656 L 25.587891 14.421875 C 25.481787 14.2362 25.284992 14.130557 25.080078 14.130859 z M 26.617188 17.410156 C 27.044771 17.384007 27.51486 17.516259 27.96875 17.865234 C 29.36461 19.680784 27.294076 21.751336 25.478516 20.355469 C 24.431621 18.993779 25.334433 17.488605 26.617188 17.410156 z M 3.375 18.480469 C 2.7019307 18.480469 2.15625 19.02615 2.15625 19.699219 L 2.15625 28.636719 C 2.15625 28.651229 2.1635595 28.663347 2.1640625 28.677734 L 6.3984375 24.423828 L 5.5859375 23.611328 C 5.2023332 23.227696 5.4745032 22.572266 6.015625 22.572266 L 8.859375 22.572266 C 9.1959072 22.572266 9.46875 22.845104 9.46875 23.181641 L 9.46875 26.023438 C 9.46875 26.567937 8.8093094 26.836603 8.4277344 26.455078 L 7.6171875 25.642578 L 3.4238281 29.855469 L 12.3125 29.855469 C 12.985569 29.855469 13.53125 29.309788 13.53125 28.636719 L 13.53125 19.699219 C 13.53125 19.02615 12.985569 18.480469 12.3125 18.480469 L 3.375 18.480469 z M 3.4238281 29.855469 L 3.375 29.855469 C 2.7164408 29.855469 2.1868901 29.330726 2.1640625 28.677734 L 0.15625 30.695312 C 0.037559757 30.814568 0.037278145 31.007952 0.15625 31.126953 L 0.94335938 31.914062 C 1.0623563 32.033034 1.2560281 32.033034 1.375 31.914062 L 3.4238281 29.855469 z "
     transform="scale(0.26458333)"
     id="path886" />
</svg>
