<?xml version="1.0" encoding="UTF-8" standalone="no"?>
<svg
   xmlns:dc="http://purl.org/dc/elements/1.1/"
   xmlns:cc="http://creativecommons.org/ns#"
   xmlns:rdf="http://www.w3.org/1999/02/22-rdf-syntax-ns#"
   xmlns:svg="http://www.w3.org/2000/svg"
   xmlns="http://www.w3.org/2000/svg"
   xmlns:sodipodi="http://sodipodi.sourceforge.net/DTD/sodipodi-0.dtd"
   xmlns:inkscape="http://www.inkscape.org/namespaces/inkscape"
   id="Calque_1"
   data-name="Calque 1"
   viewBox="0 0 32 32"
   version="1.1"
   sodipodi:docname="help.svg"
   inkscape:version="0.92.4 (5da689c313, 2019-01-14)">
  <metadata
     id="metadata13">
    <rdf:RDF>
      <cc:Work
         rdf:about="">
        <dc:format>image/svg+xml</dc:format>
        <dc:type
           rdf:resource="http://purl.org/dc/dcmitype/StillImage" />
      </cc:Work>
    </rdf:RDF>
  </metadata>
  <sodipodi:namedview
     pagecolor="#ffffff"
     bordercolor="#666666"
     borderopacity="1"
     objecttolerance="10"
     gridtolerance="10"
     guidetolerance="10"
     inkscape:pageopacity="0"
     inkscape:pageshadow="2"
     inkscape:window-width="837"
     inkscape:window-height="480"
     id="namedview11"
     showgrid="false"
     inkscape:zoom="7.375"
     inkscape:cx="16"
     inkscape:cy="16"
     inkscape:window-x="0"
     inkscape:window-y="0"
     inkscape:window-maximized="0"
     inkscape:current-layer="Calque_1" />
  <defs
     id="defs4">
    <style
       id="style2">.cls-1{fill:#e3e3e3;}</style>
  </defs>
  <title
     id="title6">help_l</title>
  <path
     class="cls-1"
     d="M17,3.05a9.1,9.1,0,0,1,4.19,1,9.21,9.21,0,0,1,3.29,2.73,6.63,6.63,0,0,1,1.35,4,5.79,5.79,0,0,1-.7,2.9,6.61,6.61,0,0,1-1.66,1.91,18.55,18.55,0,0,1-2,1.25,12.23,12.23,0,0,0-1.41.91,1.38,1.38,0,0,0-.6,1.05v.3a1.12,1.12,0,0,1-.35.85,1.14,1.14,0,0,1-.85.36H14.74a1.21,1.21,0,0,1-1.21-1.21v-.5a4.83,4.83,0,0,1,1.31-3.41,12.65,12.65,0,0,1,2.71-1.86l.1-.05a9,9,0,0,0,1.8-1.2,1.78,1.78,0,0,0,.65-1.35A2.07,2.07,0,0,0,19,8.92a4.05,4.05,0,0,0-2.31-.7,4,4,0,0,0-2.3.65,9.71,9.71,0,0,0-1.86,1.81,1.19,1.19,0,0,1-.78.47,1.1,1.1,0,0,1-.87-.22L8.67,9.27a1.16,1.16,0,0,1-.48-.78,1.11,1.11,0,0,1,.23-.87A11,11,0,0,1,12,4.26,10.16,10.16,0,0,1,17,3.05Zm-.5,18.71a3.29,3.29,0,0,1,2.46,1,3.51,3.51,0,0,1,0,4.91,3.45,3.45,0,0,1-4.92,0,3.51,3.51,0,0,1,0-4.91A3.29,3.29,0,0,1,16.54,21.76Z"
     id="path8"
     style="fill:#434343;fill-opacity:1" />
</svg>
