<?xml version="1.0" encoding="UTF-8" standalone="no"?>
<!-- Created with Inkscape (http://www.inkscape.org/) -->

<svg
   xmlns:dc="http://purl.org/dc/elements/1.1/"
   xmlns:cc="http://creativecommons.org/ns#"
   xmlns:rdf="http://www.w3.org/1999/02/22-rdf-syntax-ns#"
   xmlns:svg="http://www.w3.org/2000/svg"
   xmlns="http://www.w3.org/2000/svg"
   xmlns:sodipodi="http://sodipodi.sourceforge.net/DTD/sodipodi-0.dtd"
   xmlns:inkscape="http://www.inkscape.org/namespaces/inkscape"
   width="32"
   height="32"
   viewBox="0 0 8.4666666 8.4666666"
   version="1.1"
   id="svg8"
   inkscape:version="0.92.5 (2060ec1f9f, 2020-04-08)"
   sodipodi:docname="import-file_bl.svg">
  <defs
     id="defs2">
    <style
       id="style1399">.cls-1{fill:#e3e3e3;}</style>
  </defs>
  <sodipodi:namedview
     id="base"
     pagecolor="#ffffff"
     bordercolor="#666666"
     borderopacity="1.0"
     inkscape:pageopacity="0.0"
     inkscape:pageshadow="2"
     inkscape:zoom="11.313708"
     inkscape:cx="-12.686004"
     inkscape:cy="13.630918"
     inkscape:document-units="mm"
     inkscape:current-layer="svg8"
     showgrid="false"
     units="px"
     inkscape:window-width="1920"
     inkscape:window-height="1043"
     inkscape:window-x="0"
     inkscape:window-y="120"
     inkscape:window-maximized="1">
    <sodipodi:guide
       position="8.4666666,0"
       orientation="-32,0"
       id="guide854"
       inkscape:locked="false" />
    <sodipodi:guide
       position="8.4666666,8.4666666"
       orientation="0,-32"
       id="guide856"
       inkscape:locked="false" />
    <sodipodi:guide
       position="0,8.4666814"
       orientation="1,6.123234e-17"
       id="guide858"
       inkscape:locked="false" />
  </sodipodi:namedview>
  <metadata
     id="metadata5">
    <rdf:RDF>
      <cc:Work
         rdf:about="">
        <dc:format>image/svg+xml</dc:format>
        <dc:type
           rdf:resource="http://purl.org/dc/dcmitype/StillImage" />
        <dc:title />
      </cc:Work>
    </rdf:RDF>
  </metadata>
  <path
     style="fill:#e3e3e3;fill-opacity:1;stroke-width:0.06281408"
     d="M 1.5722656 0 C 0.73683927 0 0.064453125 0.67238575 0.064453125 1.5078125 L 0.064453125 30.652344 C 0.064453125 31.487771 0.73683927 32.160156 1.5722656 32.160156 L 22.677734 32.160156 C 23.513161 32.160156 24.185547 31.487771 24.185547 30.652344 L 24.185547 26.978516 L 23.814453 27.349609 C 23.123491 28.040563 22.058081 28.185618 21.259766 27.859375 C 20.46145 27.533132 19.804688 26.668014 19.804688 25.689453 L 19.804688 24.425781 L 17.339844 24.425781 C 16.062882 24.425781 14.992187 23.357043 14.992188 22.080078 L 14.992188 19.193359 C 14.992187 17.916395 16.08289 16.853516 17.339844 16.853516 L 19.804688 16.853516 L 19.804688 15.589844 C 19.804688 14.61132 20.461405 13.746155 21.259766 13.419922 C 22.058126 13.093689 23.123523 13.238764 23.814453 13.929688 L 24.185547 14.304688 L 24.185547 10.050781 L 15.642578 10.050781 C 14.813433 10.050781 14.134766 9.3721213 14.134766 8.5429688 L 14.134766 0 L 1.5722656 0 z M 16.144531 0 L 16.144531 8.0410156 L 24.185547 8.0410156 L 24.185547 7.65625 C 24.185547 7.2605335 24.028765 6.8784118 23.746094 6.5957031 L 17.595703 0.43945312 C 17.313039 0.1565933 16.929354 -7.4014868e-17 16.527344 0 L 16.144531 0 z "
     transform="scale(0.26458333)"
     id="path825" />
  <path
     style="fill:#d588f1;fill-opacity:1;stroke-width:0.06281408"
     d="M 26.597656 14.626953 C 26.399292 14.626953 26.236328 14.789924 26.236328 14.988281 L 26.236328 16.191406 C 26.236328 16.389839 26.399292 16.550781 26.597656 16.550781 L 29.121094 16.550781 C 29.653074 16.550781 30.083984 16.981693 30.083984 17.513672 L 30.083984 23.283203 C 30.083984 23.815182 29.653074 24.246094 29.121094 24.246094 L 26.597656 24.246094 C 26.399292 24.246094 26.236328 24.407093 26.236328 24.605469 L 26.236328 25.808594 C 26.236328 26.007027 26.399292 26.169922 26.597656 26.169922 L 29.121094 26.169922 C 30.71403 26.169922 32.005859 24.876155 32.005859 23.283203 L 32.005859 17.513672 C 32.005859 15.920737 30.71403 14.626953 29.121094 14.626953 L 26.597656 14.626953 z M 22.072266 14.871094 C 21.733262 14.910264 21.427734 15.185934 21.427734 15.589844 L 21.427734 18.474609 L 17.339844 18.474609 C 16.940107 18.474609 16.619141 18.795573 16.619141 19.195312 L 16.619141 22.082031 C 16.619141 22.481771 16.940107 22.802734 17.339844 22.802734 L 21.427734 22.802734 L 21.427734 25.6875 C 21.427734 26.333683 22.209325 26.650045 22.660156 26.199219 L 27.708984 21.150391 C 27.988499 20.867856 27.988499 20.409486 27.708984 20.126953 L 22.660156 15.078125 C 22.491094 14.909065 22.275668 14.847592 22.072266 14.871094 z "
     transform="scale(0.26458333)"
     id="path821" />
</svg>
