<?xml version="1.0" encoding="UTF-8" standalone="no"?>
<svg
   xmlns:dc="http://purl.org/dc/elements/1.1/"
   xmlns:cc="http://creativecommons.org/ns#"
   xmlns:rdf="http://www.w3.org/1999/02/22-rdf-syntax-ns#"
   xmlns:svg="http://www.w3.org/2000/svg"
   xmlns="http://www.w3.org/2000/svg"
   xmlns:sodipodi="http://sodipodi.sourceforge.net/DTD/sodipodi-0.dtd"
   xmlns:inkscape="http://www.inkscape.org/namespaces/inkscape"
   id="Calque_1"
   data-name="Calque 1"
   viewBox="0 0 32 32"
   version="1.1"
   sodipodi:docname="info_l.svg"
   inkscape:version="0.92.4 (5da689c313, 2019-01-14)">
  <metadata
     id="metadata13">
    <rdf:RDF>
      <cc:Work
         rdf:about="">
        <dc:format>image/svg+xml</dc:format>
        <dc:type
           rdf:resource="http://purl.org/dc/dcmitype/StillImage" />
      </cc:Work>
    </rdf:RDF>
  </metadata>
  <sodipodi:namedview
     pagecolor="#ffffff"
     bordercolor="#666666"
     borderopacity="1"
     objecttolerance="10"
     gridtolerance="10"
     guidetolerance="10"
     inkscape:pageopacity="0"
     inkscape:pageshadow="2"
     inkscape:window-width="837"
     inkscape:window-height="480"
     id="namedview11"
     showgrid="false"
     inkscape:zoom="7.375"
     inkscape:cx="16"
     inkscape:cy="22.906663"
     inkscape:window-x="0"
     inkscape:window-y="0"
     inkscape:window-maximized="0"
     inkscape:current-layer="Calque_1" />
  <defs
     id="defs4">
    <style
       id="style2">.cls-1{fill:#e3e3e3;}</style>
  </defs>
  <title
     id="title6">info_l</title>
  <path
     class="cls-1"
     d="M13.66,24V18h-.83a.85.85,0,0,1-.83-.83v-2a.77.77,0,0,1,.25-.58.79.79,0,0,1,.58-.25h4.66a.85.85,0,0,1,.84.83V24h.83a.85.85,0,0,1,.83.83v2a.77.77,0,0,1-.25.58.79.79,0,0,1-.58.25H12.83a.79.79,0,0,1-.58-.25.77.77,0,0,1-.25-.58v-2a.85.85,0,0,1,.83-.83Zm.21-16.77A2.89,2.89,0,0,0,13,9.35a3,3,0,0,0,5.12,2.13A2.91,2.91,0,0,0,19,9.35a3,3,0,0,0-5.12-2.12Z"
     id="path8"
     style="fill:#434343;fill-opacity:1" />
</svg>
