<?xml version="1.0" encoding="UTF-8" standalone="no"?>
<!-- Created with Inkscape (http://www.inkscape.org/) -->

<svg
   xmlns:dc="http://purl.org/dc/elements/1.1/"
   xmlns:cc="http://creativecommons.org/ns#"
   xmlns:rdf="http://www.w3.org/1999/02/22-rdf-syntax-ns#"
   xmlns:svg="http://www.w3.org/2000/svg"
   xmlns="http://www.w3.org/2000/svg"
   xmlns:sodipodi="http://sodipodi.sourceforge.net/DTD/sodipodi-0.dtd"
   xmlns:inkscape="http://www.inkscape.org/namespaces/inkscape"
   width="32"
   height="32"
   viewBox="0 0 8.4666666 8.4666666"
   version="1.1"
   id="svg8"
   inkscape:version="0.92.5 (2060ec1f9f, 2020-04-08)"
   sodipodi:docname="interlace_bd.svg">
  <defs
     id="defs2">
    <style
       id="style1399">.cls-1{fill:#e3e3e3;}</style>
    <style
       id="style1399-4">.cls-1{fill:#e3e3e3;}</style>
    <style
       id="style1399-8">.cls-1{fill:#e3e3e3;}</style>
    <style
       id="style1399-4-5">.cls-1{fill:#e3e3e3;}</style>
    <style
       id="style1399-9">.cls-1{fill:#e3e3e3;}</style>
    <style
       id="style1399-4-6">.cls-1{fill:#e3e3e3;}</style>
    <style
       id="style1399-8-4">.cls-1{fill:#e3e3e3;}</style>
    <style
       id="style1399-4-5-3">.cls-1{fill:#e3e3e3;}</style>
    <style
       id="style1399-88">.cls-1{fill:#e3e3e3;}</style>
    <style
       id="style1399-3">.cls-1{fill:#e3e3e3;}</style>
    <style
       id="style1399-94">.cls-1{fill:#e3e3e3;}</style>
    <style
       id="style1399-5">.cls-1{fill:#e3e3e3;}</style>
    <style
       id="style1399-46">.cls-1{fill:#e3e3e3;}</style>
    <style
       id="style1399-4-2">.cls-1{fill:#e3e3e3;}</style>
    <style
       id="style1399-8-5">.cls-1{fill:#e3e3e3;}</style>
    <style
       id="style1399-4-5-8">.cls-1{fill:#e3e3e3;}</style>
    <style
       id="style1399-9-6">.cls-1{fill:#e3e3e3;}</style>
    <style
       id="style1399-4-6-2">.cls-1{fill:#e3e3e3;}</style>
    <style
       id="style1399-8-4-8">.cls-1{fill:#e3e3e3;}</style>
    <style
       id="style1399-4-5-3-4">.cls-1{fill:#e3e3e3;}</style>
    <style
       id="style1399-88-7">.cls-1{fill:#e3e3e3;}</style>
    <style
       id="style1399-3-2">.cls-1{fill:#e3e3e3;}</style>
    <style
       id="style1399-94-4">.cls-1{fill:#e3e3e3;}</style>
    <style
       id="style1399-5-0">.cls-1{fill:#e3e3e3;}</style>
  </defs>
  <sodipodi:namedview
     id="base"
     pagecolor="#ffffff"
     bordercolor="#666666"
     borderopacity="1.0"
     inkscape:pageopacity="0.0"
     inkscape:pageshadow="2"
     inkscape:zoom="5.6568545"
     inkscape:cx="4.9516319"
     inkscape:cy="-1.5093959"
     inkscape:document-units="mm"
     inkscape:current-layer="svg8"
     showgrid="false"
     units="px"
     inkscape:window-width="3388"
     inkscape:window-height="1376"
     inkscape:window-x="1526"
     inkscape:window-y="507"
     inkscape:window-maximized="1"
     inkscape:snap-bbox="true"
     inkscape:bbox-paths="true"
     inkscape:bbox-nodes="true"
     inkscape:snap-bbox-edge-midpoints="true"
     inkscape:snap-bbox-midpoints="true"
     inkscape:snap-nodes="false">
    <sodipodi:guide
       position="8.4666666,0"
       orientation="-32,0"
       id="guide854"
       inkscape:locked="false" />
    <sodipodi:guide
       position="8.4666666,8.4666662"
       orientation="0,-32"
       id="guide856"
       inkscape:locked="false" />
    <sodipodi:guide
       position="0,8.4666814"
       orientation="32,0"
       id="guide858"
       inkscape:locked="false" />
  </sodipodi:namedview>
  <metadata
     id="metadata5">
    <rdf:RDF>
      <cc:Work
         rdf:about="">
        <dc:format>image/svg+xml</dc:format>
        <dc:type
           rdf:resource="http://purl.org/dc/dcmitype/StillImage" />
        <dc:title></dc:title>
      </cc:Work>
    </rdf:RDF>
  </metadata>
  <path
     style="opacity:1;fill:#232323;fill-opacity:1;stroke:none;stroke-width:0.96499997;stroke-miterlimit:4;stroke-dasharray:none;stroke-opacity:0.98156684"
     d="m 0,0.58446036 c 0,0.088431 0.071249,0.1596802 0.1596801,0.1596802 h 6.1711994 c 0.088431,0 0.1596803,-0.071249 0.1596803,-0.1596802 V 0.15968015 C 6.4905598,0.07124915 6.4193108,-1.0465266e-7 6.3308795,-1.0465266e-7 H 0.1596801 C 0.0712491,-1.0465266e-7 0,0.0712489 0,0.15968015 Z"
     id="path851"
     inkscape:connector-curvature="0" />
  <path
     inkscape:connector-curvature="0"
     id="path874"
     d="m 1.9761069,1.4417997 c 0,0.088431 0.071249,0.1596802 0.1596801,0.1596802 h 6.1711994 c 0.088431,0 0.1596803,-0.071249 0.1596803,-0.1596802 V 1.0170195 c 0,-0.088431 -0.071249,-0.15968025 -0.1596803,-0.15968025 H 2.135787 c -0.088431,0 -0.1596801,0.071249 -0.1596801,0.15968025 z"
     style="opacity:1;fill:#232323;fill-opacity:1;stroke:none;stroke-width:0.96499997;stroke-miterlimit:4;stroke-dasharray:none;stroke-opacity:0.98156684" />
  <path
     style="opacity:1;fill:#232323;fill-opacity:1;stroke:none;stroke-width:0.96499997;stroke-miterlimit:4;stroke-dasharray:none;stroke-opacity:0.98156684"
     d="m 0,2.2991391 c 0,0.088431 0.071249,0.1596802 0.1596801,0.1596802 h 6.1711994 c 0.088431,0 0.1596803,-0.071249 0.1596803,-0.1596802 V 1.8743589 c 0,-0.088431 -0.071249,-0.1596803 -0.1596803,-0.1596803 H 0.1596801 C 0.0712491,1.7146786 0,1.7859276 0,1.8743589 Z"
     id="path876"
     inkscape:connector-curvature="0" />
  <path
     inkscape:connector-curvature="0"
     id="path878"
     d="m 1.9761069,3.1564784 c 0,0.088431 0.071249,0.1596802 0.1596801,0.1596802 h 6.1711994 c 0.088431,0 0.1596803,-0.071249 0.1596803,-0.1596802 V 2.7316982 c 0,-0.088431 -0.071249,-0.1596803 -0.1596803,-0.1596803 H 2.135787 c -0.088431,0 -0.1596801,0.071249 -0.1596801,0.1596803 z"
     style="opacity:1;fill:#232323;fill-opacity:1;stroke:none;stroke-width:0.96499997;stroke-miterlimit:4;stroke-dasharray:none;stroke-opacity:0.98156684" />
  <path
     style="opacity:1;fill:#232323;fill-opacity:1;stroke:none;stroke-width:0.96499997;stroke-miterlimit:4;stroke-dasharray:none;stroke-opacity:0.98156684"
     d="M 0,4.0138188 C 0,4.1022498 0.071249,4.173499 0.1596801,4.173499 h 6.1711994 c 0.088431,0 0.1596803,-0.071249 0.1596803,-0.1596802 V 3.5890386 c 0,-0.088431 -0.071249,-0.1596803 -0.1596803,-0.1596803 H 0.1596801 C 0.0712491,3.4293583 0,3.5006073 0,3.5890386 Z"
     id="path880"
     inkscape:connector-curvature="0" />
  <path
     inkscape:connector-curvature="0"
     id="path882"
     d="m 1.9761069,4.8711576 c 0,0.088431 0.071249,0.1596802 0.1596801,0.1596802 h 6.1711994 c 0.088431,0 0.1596803,-0.071249 0.1596803,-0.1596802 V 4.4463774 c 0,-0.088431 -0.071249,-0.1596803 -0.1596803,-0.1596803 H 2.135787 c -0.088431,0 -0.1596801,0.071249 -0.1596801,0.1596803 z"
     style="opacity:1;fill:#232323;fill-opacity:1;stroke:none;stroke-width:0.96499997;stroke-miterlimit:4;stroke-dasharray:none;stroke-opacity:0.98156684" />
  <path
     style="opacity:1;fill:#232323;fill-opacity:1;stroke:none;stroke-width:0.96499997;stroke-miterlimit:4;stroke-dasharray:none;stroke-opacity:0.98156684"
     d="m 0,5.7284967 c 0,0.088431 0.071249,0.1596802 0.1596801,0.1596802 h 6.1711994 c 0.088431,0 0.1596803,-0.071249 0.1596803,-0.1596802 V 5.3037165 c 0,-0.088431 -0.071249,-0.1596803 -0.1596803,-0.1596803 H 0.1596801 C 0.0712491,5.1440362 0,5.2152852 0,5.3037165 Z"
     id="path884"
     inkscape:connector-curvature="0" />
  <path
     inkscape:connector-curvature="0"
     id="path886"
     d="m 1.9761069,6.5858363 c 0,0.088431 0.071249,0.1596802 0.1596801,0.1596802 h 6.1711994 c 0.088431,0 0.1596803,-0.071249 0.1596803,-0.1596802 V 6.1610561 c 0,-0.088431 -0.071249,-0.1596803 -0.1596803,-0.1596803 H 2.135787 c -0.088431,0 -0.1596801,0.071249 -0.1596801,0.1596803 z"
     style="opacity:1;fill:#232323;fill-opacity:1;stroke:none;stroke-width:0.96499997;stroke-miterlimit:4;stroke-dasharray:none;stroke-opacity:0.98156684" />
  <path
     style="opacity:1;fill:#232323;fill-opacity:1;stroke:none;stroke-width:0.96499997;stroke-miterlimit:4;stroke-dasharray:none;stroke-opacity:0.98156684"
     d="m 0,7.4431757 c 0,0.088431 0.071249,0.1596802 0.1596801,0.1596802 h 6.1711994 c 0.088431,0 0.1596803,-0.071249 0.1596803,-0.1596802 V 7.0183955 c 0,-0.088431 -0.071249,-0.1596803 -0.1596803,-0.1596803 H 0.1596801 C 0.0712491,6.8587152 0,6.9299642 0,7.0183955 Z"
     id="path888"
     inkscape:connector-curvature="0" />
  <path
     inkscape:connector-curvature="0"
     id="path890"
     d="m 1.9761069,8.3005151 c 0,0.088431 0.071249,0.1596802 0.1596801,0.1596802 h 6.1711994 c 0.088431,0 0.1596803,-0.071249 0.1596803,-0.1596802 V 7.8757349 c 0,-0.088431 -0.071249,-0.1596803 -0.1596803,-0.1596803 H 2.135787 c -0.088431,0 -0.1596801,0.071249 -0.1596801,0.1596803 z"
     style="opacity:1;fill:#232323;fill-opacity:1;stroke:none;stroke-width:0.96499997;stroke-miterlimit:4;stroke-dasharray:none;stroke-opacity:0.98156684" />
</svg>
