<?xml version="1.0" encoding="UTF-8" standalone="no"?>
<!-- Created with Inkscape (http://www.inkscape.org/) -->

<svg
   xmlns:dc="http://purl.org/dc/elements/1.1/"
   xmlns:cc="http://creativecommons.org/ns#"
   xmlns:rdf="http://www.w3.org/1999/02/22-rdf-syntax-ns#"
   xmlns:svg="http://www.w3.org/2000/svg"
   xmlns="http://www.w3.org/2000/svg"
   xmlns:sodipodi="http://sodipodi.sourceforge.net/DTD/sodipodi-0.dtd"
   xmlns:inkscape="http://www.inkscape.org/namespaces/inkscape"
   width="32"
   height="32"
   viewBox="0 0 8.4666666 8.4666666"
   version="1.1"
   id="svg8"
   inkscape:version="0.92.5 (2060ec1f9f, 2020-04-08)"
   sodipodi:docname="list-file-preset_sd.svg">
  <defs
     id="defs2" />
  <sodipodi:namedview
     id="base"
     pagecolor="#ffffff"
     bordercolor="#666666"
     borderopacity="1.0"
     inkscape:pageopacity="0.0"
     inkscape:pageshadow="2"
     inkscape:zoom="5.656854"
     inkscape:cx="-39.794471"
     inkscape:cy="-22.377657"
     inkscape:document-units="mm"
     inkscape:current-layer="svg8"
     showgrid="false"
     units="px"
     inkscape:window-width="1920"
     inkscape:window-height="1043"
     inkscape:window-x="0"
     inkscape:window-y="120"
     inkscape:window-maximized="1">
    <sodipodi:guide
       position="8.4666666,0"
       orientation="-32,0"
       id="guide854"
       inkscape:locked="false" />
    <sodipodi:guide
       position="8.4666666,8.4666666"
       orientation="0,-32"
       id="guide856"
       inkscape:locked="false" />
    <sodipodi:guide
       position="0,8.4666814"
       orientation="32,0"
       id="guide858"
       inkscape:locked="false" />
  </sodipodi:namedview>
  <metadata
     id="metadata5">
    <rdf:RDF>
      <cc:Work
         rdf:about="">
        <dc:format>image/svg+xml</dc:format>
        <dc:type
           rdf:resource="http://purl.org/dc/dcmitype/StillImage" />
        <dc:title></dc:title>
      </cc:Work>
    </rdf:RDF>
  </metadata>
  <path
     style="fill:#232323;fill-opacity:1;stroke-width:0.01653343"
     d="M 1.445906,0 C 1.2260117,0 1.0490316,0.17698006 1.0490316,0.39687449 V 8.0680678 c 0,0.2198945 0.1769801,0.3968744 0.3968744,0.3968744 h 5.5552148 c 0.2198945,0 0.3963603,-0.1769799 0.3963603,-0.3968744 V 2.6454872 H 5.1493826 c -0.218241,0 -0.3968746,-0.1786314 -0.3968746,-0.3968745 V 0 Z m 3.8355967,0 v 2.1164926 h 2.1159784 v -0.101275 c 0,-0.1041573 -0.041267,-0.2047364 -0.1156694,-0.2791487 L 5.6634687,0.11566938 C 5.5890682,0.04121725 5.4880774,0 5.3822635,0 Z M 2.6005435,3.6058002 c 0.2970414,0 0.5382482,0.2412065 0.5382482,0.5382482 0,0.2970412 -0.2412068,0.5377339 -0.5382482,0.5377339 -0.2970417,0 -0.5377341,-0.2406927 -0.5377341,-0.5377339 0,-0.2970417 0.2406924,-0.5382482 0.5377341,-0.5382482 z m 1.0220034,0.161423 h 2.6891843 c 0.089109,0 0.1614232,0.072314 0.1614232,0.1614229 v 0.4302902 c 0,0.089108 -0.072315,0.161423 -0.1614232,0.161423 H 3.6225469 c -0.089109,0 -0.1614233,-0.072314 -0.1614233,-0.161423 V 3.9286461 c 0,-0.089108 0.072314,-0.1614229 0.1614233,-0.1614229 z M 2.6005435,4.8966705 c 0.2970414,0 0.5382482,0.2412065 0.5382482,0.5382482 0,0.2970414 -0.2412068,0.5377339 -0.5382482,0.5377339 -0.2970417,0 -0.5377341,-0.2406925 -0.5377341,-0.5377339 0,-0.2970417 0.2406924,-0.5382482 0.5377341,-0.5382482 z m 1.0220034,0.161423 h 2.6891843 c 0.089109,0 0.1614232,0.072314 0.1614232,0.1614229 v 0.4302902 c 0,0.089109 -0.072315,0.161423 -0.1614232,0.161423 H 3.6225469 c -0.089109,0 -0.1614233,-0.072314 -0.1614233,-0.161423 V 5.2195164 c 0,-0.089109 0.072314,-0.1614229 0.1614233,-0.1614229 z m -1.0220034,1.129447 c 0.2970414,0 0.5382482,0.2412068 0.5382482,0.5382482 0,0.2970417 -0.2412068,0.5377342 -0.5382482,0.5377342 -0.2970417,0 -0.5377341,-0.2406925 -0.5377341,-0.5377342 0,-0.2970414 0.2406924,-0.5382482 0.5377341,-0.5382482 z m 1.0220034,0.1614233 h 2.6891843 c 0.089109,0 0.1614232,0.072314 0.1614232,0.161423 v 0.4302901 c 0,0.089109 -0.072315,0.161423 -0.1614232,0.161423 H 3.6225469 c -0.089109,0 -0.1614233,-0.072314 -0.1614233,-0.161423 V 6.5103868 c 0,-0.089108 0.072314,-0.161423 0.1614233,-0.161423 z"
     id="path1112"
     inkscape:connector-curvature="0" />
</svg>
