<?xml version="1.0" encoding="UTF-8" standalone="no"?>
<!-- Created with Inkscape (http://www.inkscape.org/) -->

<svg
   xmlns:dc="http://purl.org/dc/elements/1.1/"
   xmlns:cc="http://creativecommons.org/ns#"
   xmlns:rdf="http://www.w3.org/1999/02/22-rdf-syntax-ns#"
   xmlns:svg="http://www.w3.org/2000/svg"
   xmlns="http://www.w3.org/2000/svg"
   xmlns:sodipodi="http://sodipodi.sourceforge.net/DTD/sodipodi-0.dtd"
   xmlns:inkscape="http://www.inkscape.org/namespaces/inkscape"
   width="32"
   height="32"
   viewBox="0 0 8.4666666 8.4666666"
   version="1.1"
   id="svg8"
   inkscape:version="0.92.5 (2060ec1f9f, 2020-04-08)"
   sodipodi:docname="load-list-file-preset_sl.svg">
  <defs
     id="defs2" />
  <sodipodi:namedview
     id="base"
     pagecolor="#ffffff"
     bordercolor="#666666"
     borderopacity="1.0"
     inkscape:pageopacity="0.0"
     inkscape:pageshadow="2"
     inkscape:zoom="3.9999998"
     inkscape:cx="-31.474241"
     inkscape:cy="12.566551"
     inkscape:document-units="mm"
     inkscape:current-layer="svg8"
     showgrid="false"
     units="px"
     inkscape:window-width="1920"
     inkscape:window-height="1043"
     inkscape:window-x="0"
     inkscape:window-y="120"
     inkscape:window-maximized="1"
     inkscape:snap-global="true"
     inkscape:snap-bbox="true"
     inkscape:snap-nodes="false"
     inkscape:bbox-paths="true"
     inkscape:bbox-nodes="true"
     inkscape:snap-bbox-edge-midpoints="true"
     inkscape:snap-bbox-midpoints="true">
    <sodipodi:guide
       position="8.4666666,0"
       orientation="-32,0"
       id="guide854"
       inkscape:locked="false" />
    <sodipodi:guide
       position="8.4666666,8.4666666"
       orientation="0,-32"
       id="guide856"
       inkscape:locked="false" />
    <sodipodi:guide
       position="0,8.4666814"
       orientation="32,0"
       id="guide858"
       inkscape:locked="false" />
  </sodipodi:namedview>
  <metadata
     id="metadata5">
    <rdf:RDF>
      <cc:Work
         rdf:about="">
        <dc:format>image/svg+xml</dc:format>
        <dc:type
           rdf:resource="http://purl.org/dc/dcmitype/StillImage" />
        <dc:title></dc:title>
      </cc:Work>
    </rdf:RDF>
  </metadata>
  <path
     style="fill:#8ad891;fill-opacity:1;stroke-width:0.06248856"
     d="M 1.5 0 C 0.66890343 0 2.9605947e-16 0.6689029 0 1.5 L 0 30.494141 C 0 31.325238 0.66890343 31.994141 1.5 31.994141 L 22.496094 31.994141 C 23.327191 31.994141 23.994141 31.325238 23.994141 30.494141 L 23.994141 19.257812 C 23.553579 19.413954 23.072747 19.475446 22.728516 19.820312 C 21.082062 21.469232 20.802047 24.021723 21.96875 25.96875 C 22.522856 26.896316 22.371628 28.173702 21.599609 28.945312 L 19.908203 30.634766 C 18.853939 31.688261 17.006375 31.504468 16.173828 30.287109 A 1.9447383 1.9447383 0 0 1 16.166016 30.287109 C 15.4332 29.214271 14.901434 28.049333 14.548828 26.841797 L 9.7265625 26.841797 C 9.3897726 26.841797 9.1171875 26.569212 9.1171875 26.232422 L 9.1171875 24.605469 C 9.1171875 24.268683 9.3897714 23.996094 9.7265625 23.996094 L 14.072266 23.996094 C 14.039294 23.317923 14.059838 22.637871 14.138672 21.962891 L 9.7265625 21.962891 C 9.3897726 21.962891 9.1171875 21.690306 9.1171875 21.353516 L 9.1171875 19.726562 C 9.1171875 19.389773 9.3897714 19.117188 9.7265625 19.117188 L 14.816406 19.117188 C 15.076308 18.415959 15.407021 17.736854 15.798828 17.083984 L 9.7265625 17.083984 C 9.3897726 17.083984 9.1171875 16.811399 9.1171875 16.474609 L 9.1171875 14.847656 C 9.1171875 14.51087 9.3897714 14.238281 9.7265625 14.238281 L 18.164062 14.238281 C 19.858432 12.76636 21.894697 11.965531 23.994141 11.564453 L 23.994141 9.9980469 L 15.498047 9.9980469 C 14.673199 9.9980469 13.998047 9.3229027 13.998047 8.4980469 L 13.998047 0 L 1.5 0 z M 15.996094 0 L 15.996094 8 L 23.994141 8 L 23.994141 7.6171875 C 23.994141 7.2235221 23.837847 6.8417902 23.556641 6.5605469 L 17.439453 0.4375 C 17.158254 0.15610624 16.77688 3.7007434e-17 16.376953 0 L 15.996094 0 z M 5.8632812 13.628906 C 6.9859574 13.628906 7.8984375 14.539432 7.8984375 15.662109 C 7.8984375 16.784785 6.9859574 17.695312 5.8632812 17.695312 C 4.740604 17.695312 3.8320312 16.784785 3.8320312 15.662109 C 3.8320312 14.539432 4.740604 13.628906 5.8632812 13.628906 z M 5.8632812 18.507812 C 6.9859574 18.507812 7.8984375 19.418338 7.8984375 20.541016 C 7.8984375 21.663692 6.9859574 22.574219 5.8632812 22.574219 C 4.740604 22.574219 3.8320312 21.663692 3.8320312 20.541016 C 3.8320312 19.418338 4.740604 18.507813 5.8632812 18.507812 z M 5.8632812 23.386719 C 6.9859574 23.386719 7.8984375 24.297246 7.8984375 25.419922 C 7.8984375 26.542599 6.9859574 27.453125 5.8632812 27.453125 C 4.740604 27.453125 3.8320312 26.542599 3.8320312 25.419922 C 3.8320312 24.297246 4.740604 23.386719 5.8632812 23.386719 z "
     transform="scale(0.26458333)"
     id="path1112" />
  <path
     sodipodi:nodetypes="sccccccccccccccs"
     inkscape:connector-curvature="0"
     id="path996"
     d="m 7.1306699,2.6412854 c 0.074378,-0.00873 0.1535134,0.014132 0.2158831,0.076549 l 1.0425177,1.042519 c 0.1030919,0.1030485 0.1036409,0.2697579 5.64e-4,0.3728367 L 7.3465663,5.1762614 C 7.1802681,5.3425462 6.8955391,5.2241769 6.8955247,4.989009 V 4.3402641 C 6.4247211,4.3557305 5.9847807,4.5460155 5.6503413,4.8810719 5.0483694,5.4839453 4.9411949,6.4175203 5.3705744,7.1340807 c 0.031232,0.052282 0.023725,0.1183815 -0.019276,0.1613598 L 4.9052131,7.7415273 C 4.8468836,7.7998143 4.7496258,7.7908984 4.7030852,7.7228463 3.9777265,6.6609247 4.0871341,5.2002434 5.0296634,4.257704 5.5464618,3.7408964 6.2183037,3.4750627 6.8955111,3.4597055 V 2.9040258 c 8e-7,-0.1469913 0.1111948,-0.248202 0.2351583,-0.2626919 z"
     style="fill:#8ad891;fill-opacity:1;stroke:none;stroke-width:1.66784072;stroke-miterlimit:4;stroke-dasharray:none;stroke-opacity:1" />
</svg>
