<?xml version="1.0" encoding="UTF-8" standalone="no"?>
<!-- Created with Inkscape (http://www.inkscape.org/) -->

<svg
   xmlns:dc="http://purl.org/dc/elements/1.1/"
   xmlns:cc="http://creativecommons.org/ns#"
   xmlns:rdf="http://www.w3.org/1999/02/22-rdf-syntax-ns#"
   xmlns:svg="http://www.w3.org/2000/svg"
   xmlns="http://www.w3.org/2000/svg"
   xmlns:sodipodi="http://sodipodi.sourceforge.net/DTD/sodipodi-0.dtd"
   xmlns:inkscape="http://www.inkscape.org/namespaces/inkscape"
   width="32"
   height="32"
   viewBox="0 0 8.4666666 8.4666666"
   version="1.1"
   id="svg8"
   inkscape:version="0.92.5 (2060ec1f9f, 2020-04-08)"
   sodipodi:docname="modify-fields-interlace_sl.svg">
  <defs
     id="defs2">
    <style
       id="style1399">.cls-1{fill:#e3e3e3;}</style>
    <style
       id="style1399-4">.cls-1{fill:#e3e3e3;}</style>
    <style
       id="style1399-8">.cls-1{fill:#e3e3e3;}</style>
    <style
       id="style1399-4-5">.cls-1{fill:#e3e3e3;}</style>
    <style
       id="style1399-9">.cls-1{fill:#e3e3e3;}</style>
    <style
       id="style1399-4-6">.cls-1{fill:#e3e3e3;}</style>
    <style
       id="style1399-8-4">.cls-1{fill:#e3e3e3;}</style>
    <style
       id="style1399-4-5-3">.cls-1{fill:#e3e3e3;}</style>
    <style
       id="style1399-88">.cls-1{fill:#e3e3e3;}</style>
    <style
       id="style1399-3">.cls-1{fill:#e3e3e3;}</style>
    <style
       id="style1399-94">.cls-1{fill:#e3e3e3;}</style>
    <style
       id="style1399-5">.cls-1{fill:#e3e3e3;}</style>
    <style
       id="style1399-46">.cls-1{fill:#e3e3e3;}</style>
    <style
       id="style1399-4-2">.cls-1{fill:#e3e3e3;}</style>
    <style
       id="style1399-8-5">.cls-1{fill:#e3e3e3;}</style>
    <style
       id="style1399-4-5-8">.cls-1{fill:#e3e3e3;}</style>
    <style
       id="style1399-9-6">.cls-1{fill:#e3e3e3;}</style>
    <style
       id="style1399-4-6-2">.cls-1{fill:#e3e3e3;}</style>
    <style
       id="style1399-8-4-8">.cls-1{fill:#e3e3e3;}</style>
    <style
       id="style1399-4-5-3-4">.cls-1{fill:#e3e3e3;}</style>
    <style
       id="style1399-88-7">.cls-1{fill:#e3e3e3;}</style>
    <style
       id="style1399-3-2">.cls-1{fill:#e3e3e3;}</style>
    <style
       id="style1399-94-4">.cls-1{fill:#e3e3e3;}</style>
    <style
       id="style1399-5-0">.cls-1{fill:#e3e3e3;}</style>
  </defs>
  <sodipodi:namedview
     id="base"
     pagecolor="#ffffff"
     bordercolor="#666666"
     borderopacity="1.0"
     inkscape:pageopacity="0.0"
     inkscape:pageshadow="2"
     inkscape:zoom="2.8284273"
     inkscape:cx="-75.40728"
     inkscape:cy="33.419537"
     inkscape:document-units="mm"
     inkscape:current-layer="svg8"
     showgrid="false"
     units="px"
     inkscape:window-width="3388"
     inkscape:window-height="1376"
     inkscape:window-x="1526"
     inkscape:window-y="507"
     inkscape:window-maximized="1"
     inkscape:snap-bbox="true"
     inkscape:bbox-paths="true"
     inkscape:bbox-nodes="true"
     inkscape:snap-bbox-edge-midpoints="true"
     inkscape:snap-bbox-midpoints="true"
     inkscape:snap-nodes="false">
    <sodipodi:guide
       position="8.4666666,0"
       orientation="-32,0"
       id="guide854"
       inkscape:locked="false" />
    <sodipodi:guide
       position="8.4666666,8.4666662"
       orientation="0,-32"
       id="guide856"
       inkscape:locked="false" />
    <sodipodi:guide
       position="0,8.4666814"
       orientation="32,0"
       id="guide858"
       inkscape:locked="false" />
  </sodipodi:namedview>
  <metadata
     id="metadata5">
    <rdf:RDF>
      <cc:Work
         rdf:about="">
        <dc:format>image/svg+xml</dc:format>
        <dc:type
           rdf:resource="http://purl.org/dc/dcmitype/StillImage" />
        <dc:title></dc:title>
      </cc:Work>
    </rdf:RDF>
  </metadata>
  <path
     style="opacity:1;fill:#d588f1;fill-opacity:1;stroke:none;stroke-width:0.96499997;stroke-miterlimit:4;stroke-dasharray:none;stroke-opacity:0.98156684"
     d="m 0,1.8083594 c 0,0.088431 0.071249,0.1596802 0.1596801,0.1596802 h 6.1711994 c 0.088431,0 0.1596803,-0.071249 0.1596803,-0.1596802 V 1.3835791 c 0,-0.088431 -0.071249,-0.1596802 -0.1596803,-0.1596802 H 0.1596801 C 0.0712491,1.2238989 0,1.2951479 0,1.3835791 Z"
     id="path851"
     inkscape:connector-curvature="0" />
  <path
     style="opacity:1;fill:#d588f1;fill-opacity:1;stroke:none;stroke-width:0.96499997;stroke-miterlimit:4;stroke-dasharray:none;stroke-opacity:0.98156684"
     d="m 0,3.8874863 c 0,0.088431 0.071249,0.1596802 0.1596801,0.1596802 h 6.1711994 c 0.088431,0 0.1596803,-0.071249 0.1596803,-0.1596802 V 3.4627061 c 0,-0.088431 -0.071249,-0.1596803 -0.1596803,-0.1596803 H 0.1596801 C 0.0712491,3.3030258 0,3.3742748 0,3.4627061 Z"
     id="path876"
     inkscape:connector-curvature="0" />
  <path
     inkscape:connector-curvature="0"
     id="path878"
     d="m 1.9761069,2.8479225 c 0,0.088431 0.071249,0.1596802 0.1596801,0.1596802 h 6.1711994 c 0.088431,0 0.1596803,-0.071249 0.1596803,-0.1596802 V 2.4231423 c 0,-0.088431 -0.071249,-0.1596803 -0.1596803,-0.1596803 H 2.135787 c -0.088431,0 -0.1596801,0.071249 -0.1596801,0.1596803 z"
     style="opacity:1;fill:#d588f1;fill-opacity:1;stroke:none;stroke-width:0.96499997;stroke-miterlimit:4;stroke-dasharray:none;stroke-opacity:0.98156684" />
  <path
     inkscape:connector-curvature="0"
     id="path882"
     d="m 1.9761069,4.9270497 c 0,0.088431 0.071249,0.1596802 0.1596801,0.1596802 h 6.1711994 c 0.088431,0 0.1596803,-0.071249 0.1596803,-0.1596802 V 4.5022695 c 0,-0.088431 -0.071249,-0.1596803 -0.1596803,-0.1596803 H 2.135787 c -0.088431,0 -0.1596801,0.071249 -0.1596801,0.1596803 z"
     style="opacity:1;fill:#d588f1;fill-opacity:1;stroke:none;stroke-width:0.96499997;stroke-miterlimit:4;stroke-dasharray:none;stroke-opacity:0.98156684" />
  <path
     style="opacity:1;fill:#d588f1;fill-opacity:1;stroke:none;stroke-width:0.96499997;stroke-miterlimit:4;stroke-dasharray:none;stroke-opacity:0.98156684"
     d="m 0,5.9666132 c 0,0.088431 0.071249,0.1596802 0.1596801,0.1596802 h 6.1711994 c 0.088431,0 0.1596803,-0.071249 0.1596803,-0.1596802 V 5.541833 c 0,-0.088431 -0.071249,-0.1596803 -0.1596803,-0.1596803 H 0.1596801 C 0.0712491,5.3821527 0,5.4534017 0,5.541833 Z"
     id="path888"
     inkscape:connector-curvature="0" />
  <path
     inkscape:connector-curvature="0"
     id="path890"
     d="m 1.9761069,7.0061766 c 0,0.088431 0.071249,0.1596802 0.1596801,0.1596802 h 6.1711994 c 0.088431,0 0.1596803,-0.071249 0.1596803,-0.1596802 V 6.5813964 c 0,-0.088431 -0.071249,-0.1596803 -0.1596803,-0.1596803 H 2.135787 c -0.088431,0 -0.1596801,0.071249 -0.1596801,0.1596803 z"
     style="opacity:1;fill:#d588f1;fill-opacity:1;stroke:none;stroke-width:0.96499997;stroke-miterlimit:4;stroke-dasharray:none;stroke-opacity:0.98156684" />
</svg>
