<?xml version="1.0" encoding="UTF-8" standalone="no"?>
<!-- Created with Inkscape (http://www.inkscape.org/) -->

<svg
   xmlns:dc="http://purl.org/dc/elements/1.1/"
   xmlns:cc="http://creativecommons.org/ns#"
   xmlns:rdf="http://www.w3.org/1999/02/22-rdf-syntax-ns#"
   xmlns:svg="http://www.w3.org/2000/svg"
   xmlns="http://www.w3.org/2000/svg"
   xmlns:sodipodi="http://sodipodi.sourceforge.net/DTD/sodipodi-0.dtd"
   xmlns:inkscape="http://www.inkscape.org/namespaces/inkscape"
   width="32"
   height="32"
   viewBox="0 0 8.4666666 8.4666666"
   version="1.1"
   id="svg8"
   inkscape:version="0.92.5 (2060ec1f9f, 2020-04-08)"
   sodipodi:docname="ocio-lut-baker.svg">
  <defs
     id="defs2">
    <style
       id="style1399">.cls-1{fill:#e3e3e3;}</style>
    <style
       id="style1399-4">.cls-1{fill:#e3e3e3;}</style>
    <style
       id="style1399-8">.cls-1{fill:#e3e3e3;}</style>
    <style
       id="style1399-4-5">.cls-1{fill:#e3e3e3;}</style>
    <style
       id="style1399-9">.cls-1{fill:#e3e3e3;}</style>
    <style
       id="style1399-4-6">.cls-1{fill:#e3e3e3;}</style>
    <style
       id="style1399-8-4">.cls-1{fill:#e3e3e3;}</style>
    <style
       id="style1399-4-5-3">.cls-1{fill:#e3e3e3;}</style>
    <style
       id="style1399-88">.cls-1{fill:#e3e3e3;}</style>
    <style
       id="style1399-3">.cls-1{fill:#e3e3e3;}</style>
    <style
       id="style1399-94">.cls-1{fill:#e3e3e3;}</style>
    <style
       id="style1399-5">.cls-1{fill:#e3e3e3;}</style>
    <style
       id="style1399-89">.cls-1{fill:#e3e3e3;}</style>
    <style
       id="style1399-4-7">.cls-1{fill:#e3e3e3;}</style>
    <style
       id="style1399-8-7">.cls-1{fill:#e3e3e3;}</style>
    <style
       id="style1399-4-5-6">.cls-1{fill:#e3e3e3;}</style>
    <style
       id="style1399-97">.cls-1{fill:#e3e3e3;}</style>
  </defs>
  <sodipodi:namedview
     id="base"
     pagecolor="#ffffff"
     bordercolor="#666666"
     borderopacity="1.0"
     inkscape:pageopacity="0.0"
     inkscape:pageshadow="2"
     inkscape:zoom="4"
     inkscape:cx="23.325503"
     inkscape:cy="9.2371856"
     inkscape:document-units="mm"
     inkscape:current-layer="svg8"
     showgrid="false"
     units="px"
     inkscape:window-width="3388"
     inkscape:window-height="1376"
     inkscape:window-x="1277"
     inkscape:window-y="507"
     inkscape:window-maximized="1"
     inkscape:snap-bbox="true"
     inkscape:snap-bbox-edge-midpoints="true"
     inkscape:bbox-nodes="true"
     inkscape:bbox-paths="true"
     inkscape:snap-bbox-midpoints="true"
     inkscape:snap-nodes="false">
    <sodipodi:guide
       position="8.4666666,0"
       orientation="-32,0"
       id="guide854"
       inkscape:locked="false" />
    <sodipodi:guide
       position="8.5622298,8.4657622"
       orientation="0,-32"
       id="guide856"
       inkscape:locked="false" />
    <sodipodi:guide
       position="0,8.4666814"
       orientation="32,0"
       id="guide858"
       inkscape:locked="false" />
  </sodipodi:namedview>
  <metadata
     id="metadata5">
    <rdf:RDF>
      <cc:Work
         rdf:about="">
        <dc:format>image/svg+xml</dc:format>
        <dc:type
           rdf:resource="http://purl.org/dc/dcmitype/StillImage" />
        <dc:title></dc:title>
      </cc:Work>
    </rdf:RDF>
  </metadata>
  <path
     style="fill:#83d3f6;fill-opacity:1;stroke-width:0.06251217"
     d="M 16.001953 0.546875 C 15.644852 0.54609547 15.287958 0.6101231 14.947266 0.73828125 L 1.9433594 5.6132812 C 0.77438173 6.0508666 0 7.1755371 0 8.4257812 L 0 22.498047 C 0 23.635769 0.64355206 24.673337 1.65625 25.179688 L 14.658203 31.681641 C 15.502115 32.106724 16.497881 32.106724 17.341797 31.681641 L 30.34375 25.179688 C 31.362699 24.673337 32 23.629518 32 22.498047 L 32 8.4257812 C 32 7.1755371 31.225618 6.056726 30.056641 5.6191406 L 17.052734 0.74414062 C 16.715168 0.61286441 16.359054 0.54765453 16.001953 0.546875 z M 16.003906 4.6191406 L 28.005859 9.1210938 L 28.005859 9.1894531 L 16.003906 14.064453 L 4 9.1894531 L 4 9.1210938 L 16.003906 4.6191406 z M 28.005859 13.501953 L 28.005859 21.873047 L 18.003906 26.873047 L 18.003906 17.566406 L 28.005859 13.501953 z M 5.765625 13.623047 A 7.2520585 4.9097673 50.552095 0 1 8.0878906 14.064453 A 7.2520585 4.9097673 50.552095 0 1 12.191406 17.3125 L 10.589844 18.154297 A 4.6207801 3.128347 50.552095 0 0 8.0878906 16.228516 A 4.6207801 3.128347 50.552095 0 0 4.2871094 18.539062 A 4.6207801 3.128347 50.552095 0 0 8.0878906 23.833984 A 4.6207801 3.128347 50.552095 0 0 10.621094 23.855469 C 10.924178 24.270874 12.107545 25.824674 12.207031 25.955078 A 7.2520585 4.9097673 50.552095 0 1 8.0878906 25.998047 A 7.2520585 4.9097673 50.552095 0 1 2.1210938 17.689453 A 7.2520585 4.9097673 50.552095 0 1 5.765625 13.623047 z M 7.546875 18.537109 A 1.6900079 1.1441641 50.552095 0 1 8.0878906 18.640625 A 1.6900079 1.1441641 50.552095 0 1 9.4785156 20.576172 A 1.6900079 1.1441641 50.552095 0 1 8.0878906 21.421875 A 1.6900079 1.1441641 50.552095 0 1 6.6972656 19.484375 A 1.6900079 1.1441641 50.552095 0 1 7.546875 18.537109 z M 13.037109 18.642578 A 7.2520585 4.9097673 50.552095 0 1 13.677734 20.15625 L 10.414062 19.947266 A 3.0805206 2.0855649 50.552095 0 0 10.146484 19.363281 L 13.037109 18.642578 z M 10.607422 20.753906 L 14.007812 21.638672 A 7.2520585 4.9097673 50.552095 0 1 14.054688 22.373047 A 7.2520585 4.9097673 50.552095 0 1 14.007812 23.070312 L 10.607422 21.289062 A 3.0805206 2.0855649 50.552095 0 0 10.623047 21.025391 A 3.0805206 2.0855649 50.552095 0 0 10.607422 20.753906 z M 10.398438 21.970703 C 11.040754 22.438896 12.983494 23.853768 13.652344 24.335938 A 7.2520585 4.9097673 50.552095 0 1 12.992188 25.345703 L 10.132812 22.328125 A 3.0805206 2.0855649 50.552095 0 0 10.398438 21.970703 z "
     transform="scale(0.26458333)"
     id="path822" />
</svg>
