<?xml version="1.0" encoding="UTF-8" standalone="no"?>
<!-- Created with Inkscape (http://www.inkscape.org/) -->

<svg
   xmlns:dc="http://purl.org/dc/elements/1.1/"
   xmlns:cc="http://creativecommons.org/ns#"
   xmlns:rdf="http://www.w3.org/1999/02/22-rdf-syntax-ns#"
   xmlns:svg="http://www.w3.org/2000/svg"
   xmlns="http://www.w3.org/2000/svg"
   xmlns:sodipodi="http://sodipodi.sourceforge.net/DTD/sodipodi-0.dtd"
   xmlns:inkscape="http://www.inkscape.org/namespaces/inkscape"
   width="32"
   height="32"
   viewBox="0 0 8.4666666 8.4666666"
   version="1.1"
   id="svg8"
   inkscape:version="0.92.5 (2060ec1f9f, 2020-04-08)"
   sodipodi:docname="ocio_sl.svg">
  <defs
     id="defs2">
    <style
       id="style1399">.cls-1{fill:#e3e3e3;}</style>
  </defs>
  <sodipodi:namedview
     id="base"
     pagecolor="#ffffff"
     bordercolor="#666666"
     borderopacity="1.0"
     inkscape:pageopacity="0.0"
     inkscape:pageshadow="2"
     inkscape:zoom="22.627418"
     inkscape:cx="13.929964"
     inkscape:cy="13.258701"
     inkscape:document-units="mm"
     inkscape:current-layer="svg8"
     showgrid="false"
     units="px"
     inkscape:window-width="3388"
     inkscape:window-height="1376"
     inkscape:window-x="1277"
     inkscape:window-y="507"
     inkscape:window-maximized="1"
     inkscape:snap-bbox="true"
     inkscape:bbox-paths="true"
     inkscape:bbox-nodes="true"
     inkscape:snap-bbox-edge-midpoints="true"
     inkscape:snap-bbox-midpoints="true"
     inkscape:snap-nodes="false">
    <sodipodi:guide
       position="8.4666666,0"
       orientation="-32,0"
       id="guide854"
       inkscape:locked="false" />
    <sodipodi:guide
       position="8.4666666,8.4666666"
       orientation="0,-32"
       id="guide856"
       inkscape:locked="false" />
    <sodipodi:guide
       position="0,8.4666814"
       orientation="32,0"
       id="guide858"
       inkscape:locked="false" />
  </sodipodi:namedview>
  <metadata
     id="metadata5">
    <rdf:RDF>
      <cc:Work
         rdf:about="">
        <dc:format>image/svg+xml</dc:format>
        <dc:type
           rdf:resource="http://purl.org/dc/dcmitype/StillImage" />
        <dc:title />
      </cc:Work>
    </rdf:RDF>
  </metadata>
  <path
     style="display:inline;opacity:1;fill:#83d3f6;fill-opacity:1;stroke:none;stroke-width:0.33964485;stroke-miterlimit:4;stroke-dasharray:none;stroke-opacity:0.98156684"
     d="M 4.2333334,0 A 4.2333333,4.2333333 0 0 0 0,4.2333333 4.2333333,4.2333333 0 0 0 4.2333334,8.4666667 4.2333333,4.2333333 0 0 0 7.1554573,7.2897003 C 7.084874,7.2248901 6.2450258,6.451037 6.0300026,6.2407327 A 2.6973451,2.6973451 0 0 1 4.2333334,6.9306785 2.6973451,2.6973451 0 0 1 1.5359883,4.2333333 2.6973451,2.6973451 0 0 1 4.2333334,1.5359882 2.6973451,2.6973451 0 0 1 6.0081489,2.2048611 L 7.14375,1.1621374 A 4.2333333,4.2333333 0 0 0 4.2333334,0 Z M 7.7439405,1.8700344 5.6928345,3.1867071 A 1.7982302,1.7982302 0 0 1 5.8832718,3.526217 L 8.198181,2.7652471 A 4.2333333,4.2333333 0 0 0 7.7439405,1.8700344 Z M 4.2333334,3.2468043 a 0.98652913,0.98652913 0 0 0 -0.986529,0.986529 0.98652913,0.98652913 0 0 0 0.986529,0.9865291 0.98652913,0.98652913 0 0 0 0.986529,-0.9865291 0.98652913,0.98652913 0 0 0 -0.986529,-0.986529 z m 4.1989923,0.4784355 -2.4124695,0.319217 a 1.7982302,1.7982302 0 0 1 0.011707,0.1888765 1.7982302,1.7982302 0 0 1 -0.010927,0.1912183 L 8.4323257,4.7406464 A 4.2333333,4.2333333 0 0 0 8.4666667,4.2333333 4.2333333,4.2333333 0 0 0 8.4323257,3.7252398 Z M 5.8723454,4.9662056 A 1.7982302,1.7982302 0 0 1 5.6834685,5.2932278 l 2.0284723,1.34477 A 4.2333333,4.2333333 0 0 0 8.1810103,5.7381022 C 7.7064957,5.5822912 6.3280365,5.1194884 5.8723454,4.9662056 Z"
     id="circle822"
     inkscape:connector-curvature="0" />
</svg>
