<?xml version="1.0" encoding="UTF-8" standalone="no"?>
<!-- Created with Inkscape (http://www.inkscape.org/) -->

<svg
   xmlns:dc="http://purl.org/dc/elements/1.1/"
   xmlns:cc="http://creativecommons.org/ns#"
   xmlns:rdf="http://www.w3.org/1999/02/22-rdf-syntax-ns#"
   xmlns:svg="http://www.w3.org/2000/svg"
   xmlns="http://www.w3.org/2000/svg"
   xmlns:sodipodi="http://sodipodi.sourceforge.net/DTD/sodipodi-0.dtd"
   xmlns:inkscape="http://www.inkscape.org/namespaces/inkscape"
   width="32"
   height="32"
   viewBox="0 0 8.4666666 8.4666666"
   version="1.1"
   id="svg8"
   inkscape:version="0.92.5 (2060ec1f9f, 2020-04-08)"
   sodipodi:docname="raw-image-file_sd.svg">
  <defs
     id="defs2">
    <style
       id="style1399">.cls-1{fill:#e3e3e3;}</style>
    <style
       id="style1399-4">.cls-1{fill:#e3e3e3;}</style>
    <style
       id="style1399-5">.cls-1{fill:#e3e3e3;}</style>
    <style
       id="style1399-7">.cls-1{fill:#e3e3e3;}</style>
    <style
       id="style1399-85">.cls-1{fill:#e3e3e3;}</style>
    <style
       id="style1399-4-6">.cls-1{fill:#e3e3e3;}</style>
    <style
       id="style1399-8">.cls-1{fill:#e3e3e3;}</style>
    <style
       id="style1399-4-5">.cls-1{fill:#e3e3e3;}</style>
  </defs>
  <sodipodi:namedview
     id="base"
     pagecolor="#ffffff"
     bordercolor="#666666"
     borderopacity="1.0"
     inkscape:pageopacity="0.0"
     inkscape:pageshadow="2"
     inkscape:zoom="8"
     inkscape:cx="-10.164195"
     inkscape:cy="17.937348"
     inkscape:document-units="mm"
     inkscape:current-layer="svg8"
     showgrid="false"
     units="px"
     inkscape:window-width="1920"
     inkscape:window-height="1043"
     inkscape:window-x="0"
     inkscape:window-y="120"
     inkscape:window-maximized="1">
    <sodipodi:guide
       position="8.4666666,0"
       orientation="-32,0"
       id="guide854"
       inkscape:locked="false" />
    <sodipodi:guide
       position="0,8.4666666"
       orientation="0,-32"
       id="guide856"
       inkscape:locked="false" />
    <sodipodi:guide
       position="0,8.4666666"
       orientation="32,0"
       id="guide858"
       inkscape:locked="false" />
  </sodipodi:namedview>
  <metadata
     id="metadata5">
    <rdf:RDF>
      <cc:Work
         rdf:about="">
        <dc:format>image/svg+xml</dc:format>
        <dc:type
           rdf:resource="http://purl.org/dc/dcmitype/StillImage" />
        <dc:title />
      </cc:Work>
    </rdf:RDF>
  </metadata>
  <path
     style="fill:#838383;fill-opacity:1;stroke-width:0.06244071"
     d="M 5.1542969 0 C 4.3266465 0 3.65625 0.67039648 3.65625 1.4980469 L 3.65625 30.470703 C 3.65625 31.298354 4.3266465 31.96875 5.1542969 31.96875 L 26.134766 31.96875 C 26.962416 31.96875 27.632813 31.298354 27.632812 30.470703 L 27.632812 9.9902344 L 19.140625 9.9902344 C 18.316408 9.9902344 17.642578 9.3164015 17.642578 8.4921875 L 17.642578 0 L 5.1542969 0 z M 19.640625 0 L 19.640625 7.9921875 L 27.632812 7.9921875 L 27.632812 7.6132812 C 27.632797 7.2158235 27.476358 6.8357332 27.195312 6.5546875 L 21.078125 0.43945312 C 20.797091 0.15843316 20.416963 2.3740072e-06 20.019531 0 L 19.640625 0 z M 11.138672 6.9804688 A 5.5613548 5.5613548 0 0 1 14.621094 8.2128906 L 12.90625 11.974609 L 10.349609 7.0429688 A 5.5613548 5.5613548 0 0 1 11.138672 6.9804688 z M 9.8183594 7.1464844 L 11.714844 10.810547 L 6.3046875 9.8027344 A 5.5613548 5.5613548 0 0 1 9.8183594 7.1464844 z M 15.027344 8.5722656 A 5.5613548 5.5613548 0 0 1 16.701172 12.542969 A 5.5613548 5.5613548 0 0 0 16.701172 12.544922 L 12.783203 13.503906 L 15.027344 8.5722656 z M 6.0605469 10.285156 L 10.060547 11.029297 C 8.6925363 12.19745 7.3261258 13.383317 5.9570312 14.564453 A 5.5613548 5.5613548 0 0 1 5.578125 12.542969 A 5.5613548 5.5613548 0 0 1 6.0605469 10.285156 z M 9.3554688 12.322266 L 9.4179688 17.826172 A 5.5613548 5.5613548 0 0 1 6.1796875 15.058594 L 9.3554688 12.322266 z M 16.673828 13.085938 A 5.5613548 5.5613548 0 0 1 14.669922 16.833984 L 11.373047 14.386719 L 16.673828 13.085938 z M 9.8945312 13.935547 L 14.232422 17.158203 A 5.5613548 5.5613548 0 0 1 11.138672 18.103516 A 5.5613548 5.5613548 0 0 1 9.9394531 17.96875 L 9.8945312 13.935547 z M 20.673828 16.294922 C 20.865591 16.294922 21.056795 16.369325 21.203125 16.515625 L 23.671875 18.982422 L 23.671875 25.974609 L 7.6855469 25.974609 L 7.7167969 22.947266 L 10.183594 20.480469 C 10.476193 20.187869 10.920292 20.21904 11.212891 20.511719 L 13.681641 22.978516 L 20.144531 16.515625 C 20.290831 16.369325 20.482065 16.294922 20.673828 16.294922 z "
     transform="scale(0.26458333)"
     id="path977" />
</svg>
