<?xml version="1.0" encoding="UTF-8" standalone="no"?>
<!-- Created with Inkscape (http://www.inkscape.org/) -->

<svg
   xmlns:dc="http://purl.org/dc/elements/1.1/"
   xmlns:cc="http://creativecommons.org/ns#"
   xmlns:rdf="http://www.w3.org/1999/02/22-rdf-syntax-ns#"
   xmlns:svg="http://www.w3.org/2000/svg"
   xmlns="http://www.w3.org/2000/svg"
   xmlns:sodipodi="http://sodipodi.sourceforge.net/DTD/sodipodi-0.dtd"
   xmlns:inkscape="http://www.inkscape.org/namespaces/inkscape"
   width="32"
   height="32"
   viewBox="0 0 8.4666666 8.4666666"
   version="1.1"
   id="svg8"
   inkscape:version="0.92.5 (2060ec1f9f, 2020-04-08)"
   sodipodi:docname="resize-video_sl.svg">
  <defs
     id="defs2">
    <style
       id="style1399">.cls-1{fill:#e3e3e3;}</style>
    <style
       id="style1399-4">.cls-1{fill:#e3e3e3;}</style>
    <style
       id="style1399-5">.cls-1{fill:#e3e3e3;}</style>
    <style
       id="style1399-7">.cls-1{fill:#e3e3e3;}</style>
    <style
       id="style1399-3">.cls-1{fill:#e3e3e3;}</style>
    <style
       id="style1399-1">.cls-1{fill:#e3e3e3;}</style>
    <style
       id="style1399-5-8">.cls-1{fill:#e3e3e3;}</style>
    <style
       id="style1399-8">.cls-1{fill:#e3e3e3;}</style>
    <style
       id="style1399-7-8">.cls-1{fill:#e3e3e3;}</style>
    <style
       id="style1399-1-5">.cls-1{fill:#e3e3e3;}</style>
    <style
       id="style1399-5-6">.cls-1{fill:#e3e3e3;}</style>
    <style
       id="style1399-8-9">.cls-1{fill:#e3e3e3;}</style>
    <style
       id="style1399-2">.cls-1{fill:#e3e3e3;}</style>
    <style
       id="style1399-1-1">.cls-1{fill:#e3e3e3;}</style>
    <style
       id="style1399-5-5">.cls-1{fill:#e3e3e3;}</style>
    <style
       id="style1399-8-99">.cls-1{fill:#e3e3e3;}</style>
    <style
       id="style857">.cls-1{fill:#e52120;}.cls-1,.cls-2,.cls-3,.cls-4,.cls-5{stroke:#000;stroke-miterlimit:10;stroke-width:1.2px;}.cls-2{fill:#6dbc88;}.cls-3{fill:#701034;}.cls-4{fill:#51aae0;}.cls-5{fill:none;}</style>
    <style
       id="style1399-33">.cls-1{fill:#e3e3e3;}</style>
    <style
       id="style1399-4-8">.cls-1{fill:#e3e3e3;}</style>
    <style
       id="style1399-5-60">.cls-1{fill:#e3e3e3;}</style>
    <style
       id="style1399-7-4">.cls-1{fill:#e3e3e3;}</style>
    <style
       id="style1399-3-8">.cls-1{fill:#e3e3e3;}</style>
    <style
       id="style1399-1-8">.cls-1{fill:#e3e3e3;}</style>
    <style
       id="style1399-5-8-8">.cls-1{fill:#e3e3e3;}</style>
    <style
       id="style1399-8-97">.cls-1{fill:#e3e3e3;}</style>
    <style
       id="style1399-7-8-7">.cls-1{fill:#e3e3e3;}</style>
    <style
       id="style1399-1-5-6">.cls-1{fill:#e3e3e3;}</style>
    <style
       id="style1399-5-6-4">.cls-1{fill:#e3e3e3;}</style>
    <style
       id="style1399-8-9-3">.cls-1{fill:#e3e3e3;}</style>
    <style
       id="style1399-2-0">.cls-1{fill:#e3e3e3;}</style>
    <style
       id="style1399-1-1-3">.cls-1{fill:#e3e3e3;}</style>
    <style
       id="style1399-5-5-0">.cls-1{fill:#e3e3e3;}</style>
    <style
       id="style1399-8-99-9">.cls-1{fill:#e3e3e3;}</style>
    <style
       id="style857-2">.cls-1{fill:#e52120;}.cls-1,.cls-2,.cls-3,.cls-4,.cls-5{stroke:#000;stroke-miterlimit:10;stroke-width:1.2px;}.cls-2{fill:#6dbc88;}.cls-3{fill:#701034;}.cls-4{fill:#51aae0;}.cls-5{fill:none;}</style>
    <style
       id="style1399-22">.cls-1{fill:#e3e3e3;}</style>
    <style
       id="style1399-4-4">.cls-1{fill:#e3e3e3;}</style>
    <style
       id="style1399-5-7">.cls-1{fill:#e3e3e3;}</style>
    <style
       id="style1399-7-7">.cls-1{fill:#e3e3e3;}</style>
    <style
       id="style1399-3-5">.cls-1{fill:#e3e3e3;}</style>
    <style
       id="style1399-1-4">.cls-1{fill:#e3e3e3;}</style>
    <style
       id="style1399-5-8-81">.cls-1{fill:#e3e3e3;}</style>
    <style
       id="style1399-8-2">.cls-1{fill:#e3e3e3;}</style>
    <style
       id="style1399-7-8-8">.cls-1{fill:#e3e3e3;}</style>
    <style
       id="style1399-1-5-9">.cls-1{fill:#e3e3e3;}</style>
    <style
       id="style1399-5-6-3">.cls-1{fill:#e3e3e3;}</style>
    <style
       id="style1399-8-9-6">.cls-1{fill:#e3e3e3;}</style>
    <style
       id="style1399-2-8">.cls-1{fill:#e3e3e3;}</style>
    <style
       id="style1399-1-1-0">.cls-1{fill:#e3e3e3;}</style>
    <style
       id="style1399-5-5-2">.cls-1{fill:#e3e3e3;}</style>
    <style
       id="style1399-8-99-1">.cls-1{fill:#e3e3e3;}</style>
    <style
       id="style857-0">.cls-1{fill:#e52120;}.cls-1,.cls-2,.cls-3,.cls-4,.cls-5{stroke:#000;stroke-miterlimit:10;stroke-width:1.2px;}.cls-2{fill:#6dbc88;}.cls-3{fill:#701034;}.cls-4{fill:#51aae0;}.cls-5{fill:none;}</style>
    <style
       id="style1399-46">.cls-1{fill:#e3e3e3;}</style>
    <style
       id="style1399-72">.cls-1{fill:#e3e3e3;}</style>
    <style
       id="style1399-4-40">.cls-1{fill:#e3e3e3;}</style>
    <style
       id="style1399-5-62">.cls-1{fill:#e3e3e3;}</style>
    <style
       id="style1399-7-9">.cls-1{fill:#e3e3e3;}</style>
    <style
       id="style1399-3-9">.cls-1{fill:#e3e3e3;}</style>
    <style
       id="style1399-1-0">.cls-1{fill:#e3e3e3;}</style>
    <style
       id="style1399-5-8-813">.cls-1{fill:#e3e3e3;}</style>
    <style
       id="style1399-8-1">.cls-1{fill:#e3e3e3;}</style>
    <style
       id="style1399-7-8-1">.cls-1{fill:#e3e3e3;}</style>
    <style
       id="style1399-1-5-0">.cls-1{fill:#e3e3e3;}</style>
    <style
       id="style1399-5-6-34">.cls-1{fill:#e3e3e3;}</style>
    <style
       id="style1399-8-9-0">.cls-1{fill:#e3e3e3;}</style>
    <style
       id="style1399-2-3">.cls-1{fill:#e3e3e3;}</style>
    <style
       id="style1399-1-1-9">.cls-1{fill:#e3e3e3;}</style>
    <style
       id="style1399-5-5-1">.cls-1{fill:#e3e3e3;}</style>
    <style
       id="style1399-8-99-96">.cls-1{fill:#e3e3e3;}</style>
    <style
       id="style857-9">.cls-1{fill:#e52120;}.cls-1,.cls-2,.cls-3,.cls-4,.cls-5{stroke:#000;stroke-miterlimit:10;stroke-width:1.2px;}.cls-2{fill:#6dbc88;}.cls-3{fill:#701034;}.cls-4{fill:#51aae0;}.cls-5{fill:none;}</style>
  </defs>
  <sodipodi:namedview
     id="base"
     pagecolor="#ffffff"
     bordercolor="#666666"
     borderopacity="1.0"
     inkscape:pageopacity="0.0"
     inkscape:pageshadow="2"
     inkscape:zoom="5.6568543"
     inkscape:cx="-42.097548"
     inkscape:cy="2.0616438"
     inkscape:document-units="mm"
     inkscape:current-layer="svg8"
     showgrid="false"
     units="px"
     inkscape:window-width="1920"
     inkscape:window-height="1043"
     inkscape:window-x="0"
     inkscape:window-y="120"
     inkscape:window-maximized="1">
    <sodipodi:guide
       position="8.4666666,0"
       orientation="-32,0"
       id="guide854"
       inkscape:locked="false" />
    <sodipodi:guide
       position="8.4666666,8.4686855"
       orientation="0,-32"
       id="guide856"
       inkscape:locked="false" />
    <sodipodi:guide
       position="0,8.4666814"
       orientation="32,0"
       id="guide858"
       inkscape:locked="false" />
  </sodipodi:namedview>
  <metadata
     id="metadata5">
    <rdf:RDF>
      <cc:Work
         rdf:about="">
        <dc:format>image/svg+xml</dc:format>
        <dc:type
           rdf:resource="http://purl.org/dc/dcmitype/StillImage" />
        <dc:title></dc:title>
      </cc:Work>
    </rdf:RDF>
  </metadata>
  <style
     type="text/css"
     id="style815">
	.st0{fill:#00005B;}
	.st1{fill:#9999FF;}
</style>
  <style
     id="style815-4"
     type="text/css">
	.st0{fill:#00005B;}
	.st1{fill:#9999FF;}
</style>
  <style
     id="style815-5"
     type="text/css">
	.st0{fill:#00005B;}
	.st1{fill:#9999FF;}
</style>
  <path
     style="fill:#d588f1;fill-opacity:1;stroke-width:0.0467424"
     d="M 1.1210938 -0.0078125 C 0.51042944 -0.007812122 0.015626512 0.4869908 0.015625 1.0976562 L 0.015625 11.158203 C 0.015624244 12.143321 1.2076993 12.636051 1.9042969 11.939453 L 11.962891 1.8789062 C 12.659488 1.182308 12.166796 -0.0078514291 11.181641 -0.0078125 L 1.1210938 -0.0078125 z M 20.832031 0.001953125 C 19.846913 0.0019527469 19.354184 1.1940263 20.050781 1.890625 L 30.111328 11.951172 C 30.807926 12.64777 31.998085 12.153127 31.998047 11.167969 L 31.998047 1.109375 C 31.998047 0.49871069 31.503244 0.0019550148 30.892578 0.001953125 L 20.832031 0.001953125 z M 8.9921875 7.5800781 L 8.4667969 8.1054688 L 8.4667969 8.5136719 C 8.4667969 8.822172 8.2147468 9.0761719 7.90625 9.0761719 L 7.4960938 9.0761719 L 5.9921875 10.580078 C 6.0077393 10.578768 6.0212338 10.570312 6.0371094 10.570312 L 7.90625 10.570312 C 8.2147502 10.570312 8.4667969 10.824316 8.4667969 11.132812 L 8.4667969 13.001953 C 8.4667969 13.310453 8.2147468 13.5625 7.90625 13.5625 L 6.0371094 13.5625 C 5.7286092 13.5625 5.4765625 13.310451 5.4765625 13.001953 L 5.4765625 11.132812 C 5.4765625 11.116249 5.4849032 11.102147 5.4863281 11.085938 L 3.9804688 12.591797 L 3.9804688 19.394531 L 5.4765625 20.890625 L 5.4765625 20.107422 C 5.4765625 19.798922 5.7286119 19.544922 6.0371094 19.544922 L 7.90625 19.544922 C 8.2147502 19.544922 8.4667969 19.798925 8.4667969 20.107422 L 8.4667969 21.976562 C 8.4667969 22.285063 8.2147468 22.537109 7.90625 22.537109 L 7.1230469 22.537109 L 10.115234 25.529297 L 21.861328 25.529297 L 24.855469 22.537109 L 23.986328 22.537109 C 23.677828 22.537109 23.423828 22.285063 23.423828 21.976562 L 23.423828 20.107422 C 23.423828 19.798922 23.677831 19.544922 23.986328 19.544922 L 25.855469 19.544922 C 26.163969 19.544922 26.416016 19.798925 26.416016 20.107422 L 26.416016 20.976562 L 27.912109 19.480469 L 27.912109 12.484375 L 26.378906 10.951172 C 26.398896 11.008612 26.416016 11.068786 26.416016 11.132812 L 26.416016 13.001953 C 26.416016 13.310453 26.163965 13.5625 25.855469 13.5625 L 23.986328 13.5625 C 23.677828 13.5625 23.423828 13.310451 23.423828 13.001953 L 23.423828 11.132812 C 23.423828 10.824313 23.677831 10.570313 23.986328 10.570312 L 25.855469 10.570312 C 25.919384 10.570312 25.977803 10.587499 26.035156 10.607422 L 24.503906 9.0761719 L 23.986328 9.0761719 C 23.677828 9.0761719 23.423828 8.8221694 23.423828 8.5136719 L 23.423828 7.9960938 L 23.007812 7.5800781 L 8.9921875 7.5800781 z M 11.271484 9.8222656 L 20.621094 9.8222656 C 20.929594 9.8222656 21.181641 10.076269 21.181641 10.384766 L 21.181641 14.871094 C 21.181641 15.179594 20.929595 15.431641 20.621094 15.431641 L 11.271484 15.431641 C 10.962984 15.431641 10.710937 15.179591 10.710938 14.871094 L 10.710938 10.384766 C 10.710938 10.076265 10.962987 9.8222656 11.271484 9.8222656 z M 6.0371094 15.058594 L 7.90625 15.058594 C 8.2147502 15.058594 8.4667969 15.310643 8.4667969 15.619141 L 8.4667969 17.488281 C 8.4667969 17.796781 8.2147468 18.050781 7.90625 18.050781 L 6.0371094 18.050781 C 5.7286092 18.050781 5.4765625 17.796778 5.4765625 17.488281 L 5.4765625 15.619141 C 5.4765625 15.31064 5.7286119 15.058594 6.0371094 15.058594 z M 23.986328 15.058594 L 25.855469 15.058594 C 26.163969 15.058594 26.416016 15.310643 26.416016 15.619141 L 26.416016 17.488281 C 26.416016 17.796781 26.163965 18.050781 25.855469 18.050781 L 23.986328 18.050781 C 23.677828 18.050781 23.423828 17.796778 23.423828 17.488281 L 23.423828 15.619141 C 23.423828 15.31064 23.677831 15.058594 23.986328 15.058594 z M 11.271484 17.675781 L 20.621094 17.675781 C 20.929594 17.675781 21.181641 17.927828 21.181641 18.236328 L 21.181641 22.724609 C 21.181641 23.03311 20.929595 23.285156 20.621094 23.285156 L 11.271484 23.285156 C 10.962984 23.285156 10.710937 23.03311 10.710938 22.724609 L 10.710938 18.236328 C 10.710938 17.927828 10.962987 17.675781 11.271484 17.675781 z M 1.2167969 19.705078 C 1.1380129 19.697357 1.0602753 19.697874 0.98242188 19.707031 C 0.46339939 19.768082 -0.001977314 20.19287 -0.001953125 20.808594 L -0.001953125 30.867188 C -0.001952747 31.477853 0.49285018 31.974607 1.1035156 31.974609 L 11.164062 31.974609 C 12.149182 31.974611 12.64191 30.782537 11.945312 30.085938 L 1.8847656 20.025391 C 1.6888463 19.829471 1.4531489 19.728241 1.2167969 19.705078 z M 30.761719 19.708984 C 30.524818 19.732152 30.289669 19.83338 30.09375 20.029297 L 20.033203 30.089844 C 19.336606 30.786442 19.83125 31.976603 20.816406 31.976562 L 30.876953 31.976562 C 31.487616 31.976562 31.982418 31.481759 31.982422 30.871094 L 31.982422 20.810547 C 31.982422 20.194848 31.517062 19.771999 30.998047 19.710938 C 30.920194 19.701782 30.840686 19.701262 30.761719 19.708984 z "
     transform="scale(0.26458333)"
     id="path1222" />
  <style
     id="style815-6"
     type="text/css">
	.st0{fill:#00005B;}
	.st1{fill:#9999FF;}
</style>
</svg>
