<?xml version="1.0" encoding="UTF-8" standalone="no"?>
<!-- Created with Inkscape (http://www.inkscape.org/) -->

<svg
   xmlns:dc="http://purl.org/dc/elements/1.1/"
   xmlns:cc="http://creativecommons.org/ns#"
   xmlns:rdf="http://www.w3.org/1999/02/22-rdf-syntax-ns#"
   xmlns:svg="http://www.w3.org/2000/svg"
   xmlns="http://www.w3.org/2000/svg"
   xmlns:sodipodi="http://sodipodi.sourceforge.net/DTD/sodipodi-0.dtd"
   xmlns:inkscape="http://www.inkscape.org/namespaces/inkscape"
   width="32"
   height="32"
   viewBox="0 0 8.4666666 8.4666666"
   version="1.1"
   id="svg8"
   inkscape:version="0.92.5 (2060ec1f9f, 2020-04-08)"
   sodipodi:docname="saveas-list-file-preset_sl.svg">
  <defs
     id="defs2" />
  <sodipodi:namedview
     id="base"
     pagecolor="#ffffff"
     bordercolor="#666666"
     borderopacity="1.0"
     inkscape:pageopacity="0.0"
     inkscape:pageshadow="2"
     inkscape:zoom="5.656854"
     inkscape:cx="37.73743"
     inkscape:cy="-11.474711"
     inkscape:document-units="mm"
     inkscape:current-layer="svg8"
     showgrid="false"
     units="px"
     inkscape:window-width="1920"
     inkscape:window-height="1043"
     inkscape:window-x="0"
     inkscape:window-y="120"
     inkscape:window-maximized="1"
     inkscape:snap-global="true"
     inkscape:snap-bbox="true"
     inkscape:snap-nodes="false"
     inkscape:bbox-paths="true"
     inkscape:bbox-nodes="true"
     inkscape:snap-bbox-edge-midpoints="true"
     inkscape:snap-bbox-midpoints="true">
    <sodipodi:guide
       position="8.4666666,0"
       orientation="-32,0"
       id="guide854"
       inkscape:locked="false" />
    <sodipodi:guide
       position="8.4666666,8.4666666"
       orientation="0,-32"
       id="guide856"
       inkscape:locked="false" />
    <sodipodi:guide
       position="0,8.4666814"
       orientation="32,0"
       id="guide858"
       inkscape:locked="false" />
  </sodipodi:namedview>
  <metadata
     id="metadata5">
    <rdf:RDF>
      <cc:Work
         rdf:about="">
        <dc:format>image/svg+xml</dc:format>
        <dc:type
           rdf:resource="http://purl.org/dc/dcmitype/StillImage" />
        <dc:title></dc:title>
      </cc:Work>
    </rdf:RDF>
  </metadata>
  <g
     id="g1237"
     style="fill:#8ad891"
     transform="matrix(0.91029302,0,0,0.91029302,0.75951919,0.40514325)">
    <path
       id="path1112-3"
       transform="scale(0.26458333)"
       d="m 9.5058594,0 c -0.8310966,0 -1.5,0.66890294 -1.5,1.5 v 7.0917969 c 1.8051166,0.494812 3.5131426,1.4506441 4.9199216,2.8574221 1.512742,1.512719 2.305861,3.400687 2.759766,5.351562 1.450348,0.01682 2.643403,1.051878 3.003906,2.316407 h 9.207031 c 0.33679,0 0.609375,0.272585 0.609375,0.609374 v 1.626954 c 0,0.33679 -0.272588,0.609375 -0.609375,0.609375 h -9.855468 c -0.05395,0.06419 -0.09464,0.137656 -0.154297,0.197265 l -3.359375,3.359375 c -1.210349,1.210818 -3.240967,1.210109 -4.451172,0 L 8.0058594,23.449219 v 7.044922 c 0,0.831097 0.6689034,1.5 1.5,1.5 H 30.501953 c 0.831097,0 1.498047,-0.668903 1.498047,-1.5 V 9.9980469 h -8.496094 c -0.824848,0 -1.5,-0.6751442 -1.5,-1.5 V 0 Z M 24.001953,0 V 8 H 32 V 7.6171875 C 32,7.2235221 31.843706,6.8417902 31.5625,6.5605469 L 25.445312,0.4375 C 25.164114,0.15610612 24.782739,0 24.382812,0 Z m -6.269531,14.238281 h 10.164062 c 0.33679,0 0.609375,0.272586 0.609375,0.609375 v 1.626953 c 0,0.336787 -0.272588,0.609375 -0.609375,0.609375 H 17.732422 c -0.33679,0 -0.609375,-0.272585 -0.609375,-0.609375 v -1.626953 c 0,-0.336786 0.272584,-0.609375 0.609375,-0.609375 z m 0,9.757813 h 10.164062 c 0.33679,0 0.609375,0.272585 0.609375,0.609375 v 1.626953 c 0,0.33679 -0.272588,0.609375 -0.609375,0.609375 H 17.732422 c -0.33679,0 -0.609375,-0.272585 -0.609375,-0.609375 v -1.626953 c 0,-0.336786 0.272584,-0.609375 0.609375,-0.609375 z"
       style="fill:#8ad891;fill-opacity:1;stroke-width:0.06248856"
       inkscape:connector-curvature="0" />
    <path
       style="fill:#8ad891;fill-opacity:1;stroke:none;stroke-width:1.42162335;stroke-miterlimit:4;stroke-dasharray:none;stroke-opacity:1"
       d="m 4.3673078,5.2491059 c 0.00743,0.063391 -0.012049,0.13085 -0.065251,0.1840066 L 3.4134427,6.3217264 c -0.087837,0.087871 -0.2299369,0.088342 -0.3177995,4.864e-4 L 2.2065573,5.4331228 C 2.0648215,5.2913807 2.1657433,5.0486758 2.3661672,5.0486654 H 2.9191387 C 2.9059616,4.6473706 2.7437621,4.2723721 2.4581728,3.9873096 1.9442975,3.4742013 1.1485452,3.3828474 0.53776775,3.7488374 0.4932109,3.7754338 0.43686114,3.7690175 0.40022605,3.7324346 L 0.01999572,3.3522047 C -0.02968849,3.3024788 -0.02209999,3.219585 0.03594183,3.1799181 0.94109694,2.5616403 2.1861453,2.6548932 2.9895374,3.4582849 3.4300503,3.8987913 3.6566441,4.4714516 3.6697291,5.048681 h 0.4736511 c 0.1252872,0 0.2115604,0.094779 0.2239122,0.2004508 z"
       id="path932"
       inkscape:connector-curvature="0"
       sodipodi:nodetypes="sccccccccccccccs" />
  </g>
  <g
     transform="matrix(1.2866843,0,0,1.2866843,13.63,-375.81807)"
     id="layer1"
     inkscape:label="Layer 1"
     style="fill:#8ad891">
    <g
       inkscape:label="Layer 1"
       id="layer1-6"
       transform="rotate(45,4.2331072,292.76613)"
       style="fill:#8ad891">
      <path
         sodipodi:nodetypes="ccccccccccccccccccccccccccccccccc"
         inkscape:connector-curvature="0"
         id="path1058"
         d="m -3.8593196,304.52716 c 0.028126,-0.021 0.067185,-0.0241 0.099145,-0.004 l 0.5136928,0.31147 -0.01264,-0.6008 c -0.00107,-0.0498 0.039039,-0.0909 0.088871,-0.0909 h 0.1441738 c 0.049839,0 0.08994,0.0409 0.088871,0.0909 l -0.01264,0.6008 0.5136929,-0.31147 c 0.042617,-0.0258 0.098124,-0.0117 0.1230415,0.0313 l 0.072087,0.12502 c 0.024921,0.0431 0.00951,0.0982 -0.034167,0.12225 l -0.5267277,0.28933 0.5267277,0.28935 c 0.043683,0.024 0.059085,0.079 0.034167,0.12224 l -0.072087,0.12502 c -0.024917,0.0431 -0.080429,0.0572 -0.1230415,0.0313 l -0.5138904,-0.31126 0.012838,0.6006 c 0.00107,0.0498 -0.039039,0.0909 -0.088871,0.0909 h -0.1441698 c -0.049835,0 -0.089938,-0.0409 -0.088875,-0.0909 l 0.012837,-0.6006 -0.5138903,0.31126 c -0.042613,0.0258 -0.098124,0.0117 -0.1230414,-0.0313 l -0.072086,-0.12503 c -0.024922,-0.0431 -0.00951,-0.0982 0.034168,-0.12226 l 0.5267278,-0.28933 -0.5267278,-0.28935 c -0.043684,-0.024 -0.059085,-0.0792 -0.034168,-0.12224 l 0.072086,-0.12502 c 0.00623,-0.0112 0.014522,-0.0196 0.023897,-0.0266 z"
         style="fill:#8ad891;fill-opacity:1;stroke:none;stroke-width:0.84586293;stroke-miterlimit:4;stroke-dasharray:none;stroke-opacity:1" />
    </g>
  </g>
</svg>
