<?xml version="1.0" encoding="UTF-8" standalone="no"?>
<!-- Created with Inkscape (http://www.inkscape.org/) -->

<svg
   xmlns:dc="http://purl.org/dc/elements/1.1/"
   xmlns:cc="http://creativecommons.org/ns#"
   xmlns:rdf="http://www.w3.org/1999/02/22-rdf-syntax-ns#"
   xmlns:svg="http://www.w3.org/2000/svg"
   xmlns="http://www.w3.org/2000/svg"
   xmlns:sodipodi="http://sodipodi.sourceforge.net/DTD/sodipodi-0.dtd"
   xmlns:inkscape="http://www.inkscape.org/namespaces/inkscape"
   width="32"
   height="32"
   viewBox="0 0 8.4666666 8.4666666"
   version="1.1"
   id="svg8"
   inkscape:version="0.92.5 (2060ec1f9f, 2020-04-08)"
   sodipodi:docname="set-storage-cache-data-database_sl.svg">
  <defs
     id="defs2">
    <style
       id="style1399">.cls-1{fill:#e3e3e3;}</style>
    <style
       id="style1399-4">.cls-1{fill:#e3e3e3;}</style>
    <style
       id="style1399-8">.cls-1{fill:#e3e3e3;}</style>
    <style
       id="style1399-4-5">.cls-1{fill:#e3e3e3;}</style>
    <style
       id="style1399-0">.cls-1{fill:#e3e3e3;}</style>
    <style
       id="style854">.cls-1{fill:#e3e3e3;}</style>
    <style
       id="style1399-84">.cls-1{fill:#e3e3e3;}</style>
    <style
       id="style1399-4-8">.cls-1{fill:#e3e3e3;}</style>
    <style
       id="style1399-8-10">.cls-1{fill:#e3e3e3;}</style>
    <style
       id="style1399-4-5-3">.cls-1{fill:#e3e3e3;}</style>
    <style
       id="style1399-0-0">.cls-1{fill:#e3e3e3;}</style>
    <style
       id="style1399-5">.cls-1{fill:#e3e3e3;}</style>
    <style
       id="style1399-4-6">.cls-1{fill:#e3e3e3;}</style>
    <style
       id="style1399-8-1">.cls-1{fill:#e3e3e3;}</style>
    <style
       id="style1399-4-5-1">.cls-1{fill:#e3e3e3;}</style>
    <style
       id="style1399-0-5">.cls-1{fill:#e3e3e3;}</style>
    <style
       id="style1399-3">.cls-1{fill:#e3e3e3;}</style>
  </defs>
  <sodipodi:namedview
     id="base"
     pagecolor="#ffffff"
     bordercolor="#666666"
     borderopacity="1.0"
     inkscape:pageopacity="0.0"
     inkscape:pageshadow="2"
     inkscape:zoom="7.9999995"
     inkscape:cx="5.3534505"
     inkscape:cy="11.973007"
     inkscape:document-units="mm"
     inkscape:current-layer="svg8"
     showgrid="false"
     units="px"
     inkscape:window-width="1309"
     inkscape:window-height="1161"
     inkscape:window-x="3231"
     inkscape:window-y="658"
     inkscape:window-maximized="0"
     inkscape:snap-bbox="true"
     inkscape:bbox-paths="true"
     inkscape:bbox-nodes="true"
     inkscape:snap-bbox-edge-midpoints="true"
     inkscape:snap-bbox-midpoints="true"
     inkscape:snap-nodes="true"
     inkscape:snap-others="true"
     inkscape:snap-object-midpoints="true"
     inkscape:snap-page="true">
    <sodipodi:guide
       position="8.4666666,0"
       orientation="-32,0"
       id="guide854"
       inkscape:locked="false" />
    <sodipodi:guide
       position="8.4666666,8.4666666"
       orientation="0,-32"
       id="guide856"
       inkscape:locked="false" />
    <sodipodi:guide
       position="0,8.4666666"
       orientation="32,0"
       id="guide858"
       inkscape:locked="false" />
  </sodipodi:namedview>
  <metadata
     id="metadata5">
    <rdf:RDF>
      <cc:Work
         rdf:about="">
        <dc:format>image/svg+xml</dc:format>
        <dc:type
           rdf:resource="http://purl.org/dc/dcmitype/StillImage" />
        <dc:title></dc:title>
      </cc:Work>
    </rdf:RDF>
  </metadata>
  <path
     style="stroke-width:0.06250001;fill:#83d3f6"
     d="M 16.121094 0 C 8.3919083 5.9211894e-16 2.1210937 2.0543937 2.1210938 4.5722656 L 2.1210938 27.427734 C 2.1210938 29.94561 8.3919083 32 16.121094 32 C 23.850282 32 30.121094 29.94561 30.121094 27.427734 L 30.121094 4.5722656 C 30.121094 2.0543937 23.850282 5.9211895e-16 16.121094 0 z M 16.0625 2.0625 C 22.241105 2.0625 27.253906 3.7040449 27.253906 5.7167969 C 27.253906 7.7295489 22.241103 9.3710938 16.0625 9.3710938 C 9.8838952 9.3710938 4.8710938 7.7295489 4.8710938 5.7167969 C 4.8710938 3.7040449 9.8838967 2.0625 16.0625 2.0625 z M 15.822266 12.162109 C 16.360761 12.162109 16.805954 12.25516 17.158203 12.441406 C 17.5145 12.623603 17.795464 12.890081 18.001953 13.238281 C 18.208443 13.582432 18.352616 14.005757 18.433594 14.507812 C 18.514571 15.005819 18.556639 15.569555 18.556641 16.201172 C 18.556641 16.828742 18.505515 17.39624 18.404297 17.902344 C 18.303076 18.408449 18.137032 18.839016 17.90625 19.195312 C 17.679516 19.551609 17.382112 19.825331 17.013672 20.015625 C 16.649276 20.20592 16.200318 20.300781 15.669922 20.300781 C 15.131426 20.300781 14.686229 20.209547 14.333984 20.027344 C 13.981735 19.841098 13.702581 19.576574 13.496094 19.232422 C 13.289598 18.884222 13.145575 18.460897 13.060547 17.962891 C 12.979616 17.460835 12.9375 16.893336 12.9375 16.261719 C 12.9375 15.638199 12.988624 15.07251 13.089844 14.566406 C 13.195116 14.056254 13.361153 13.623878 13.587891 13.267578 C 13.818675 12.911283 14.116073 12.63951 14.480469 12.449219 C 14.848913 12.258923 15.295918 12.162109 15.822266 12.162109 z M 10.466797 12.294922 L 11.212891 12.294922 C 11.433247 12.294922 11.611328 12.471048 11.611328 12.691406 L 11.611328 19.777344 C 11.611328 19.997708 11.433245 20.175781 11.212891 20.175781 L 10.466797 20.175781 C 10.246442 20.175781 10.068359 19.997694 10.068359 19.777344 L 10.068359 12.691406 C 10.068359 12.471052 10.246439 12.294922 10.466797 12.294922 z M 20.248047 12.294922 L 20.994141 12.294922 C 21.214497 12.294922 21.392578 12.471048 21.392578 12.691406 L 21.392578 19.777344 C 21.392578 19.997708 21.214491 20.175781 20.994141 20.175781 L 20.248047 20.175781 C 20.027686 20.175781 19.849609 19.997694 19.849609 19.777344 L 19.849609 12.691406 C 19.849609 12.471052 20.027693 12.294922 20.248047 12.294922 z M 15.755859 13.425781 C 15.51698 13.425781 15.318061 13.484148 15.160156 13.601562 C 15.006299 13.714929 14.884139 13.886406 14.791016 14.117188 C 14.70194 14.347971 14.637997 14.63632 14.601562 14.980469 C 14.565094 15.32462 14.546875 15.726076 14.546875 16.183594 C 14.546875 16.742332 14.570723 17.205775 14.615234 17.574219 C 14.659772 17.938612 14.727189 18.230584 14.820312 18.449219 C 14.917484 18.663811 15.041624 18.815217 15.191406 18.904297 C 15.341214 18.98934 15.52188 19.03125 15.732422 19.03125 C 15.890326 19.03125 16.02892 19.007593 16.150391 18.958984 C 16.27185 18.906347 16.377725 18.827771 16.466797 18.726562 C 16.559924 18.625343 16.636532 18.499556 16.697266 18.345703 C 16.757995 18.191844 16.805362 18.01299 16.841797 17.810547 C 16.88226 17.608104 16.909743 17.380077 16.921875 17.125 C 16.938127 16.869922 16.947264 16.58896 16.947266 16.28125 C 16.947266 15.908758 16.936274 15.580294 16.916016 15.296875 C 16.895765 15.009407 16.862871 14.75937 16.818359 14.548828 C 16.777877 14.338291 16.724934 14.161386 16.660156 14.015625 C 16.599427 13.869875 16.524619 13.752997 16.435547 13.667969 C 16.346471 13.578885 16.246179 13.516903 16.132812 13.480469 C 16.019442 13.444117 15.893525 13.425781 15.755859 13.425781 z M 19.21875 21.355469 C 19.757245 21.355472 20.202438 21.44852 20.554688 21.634766 C 20.910984 21.816964 21.1939 22.081489 21.400391 22.429688 C 21.606881 22.773838 21.749099 23.197166 21.830078 23.699219 C 21.911069 24.197224 21.951171 24.762912 21.951172 25.394531 C 21.951172 26.022099 21.902 26.587645 21.800781 27.09375 C 21.699563 27.599853 21.533517 28.030418 21.302734 28.386719 C 21.076 28.743015 20.776648 29.01674 20.408203 29.207031 C 20.043808 29.397327 19.598757 29.492188 19.068359 29.492188 C 18.529865 29.492188 18.084666 29.400953 17.732422 29.21875 C 17.380171 29.032502 17.099065 28.767984 16.892578 28.423828 C 16.686084 28.075629 16.540106 27.652303 16.455078 27.154297 C 16.374087 26.652241 16.333984 26.086697 16.333984 25.455078 C 16.333984 24.831558 16.385109 24.265871 16.486328 23.759766 C 16.591593 23.249613 16.757637 22.817237 16.984375 22.460938 C 17.215158 22.104641 17.512554 21.830917 17.876953 21.640625 C 18.245397 21.45033 18.692402 21.355469 19.21875 21.355469 z M 10.447266 21.484375 L 11.193359 21.484375 C 11.413714 21.484375 11.589844 21.660502 11.589844 21.880859 L 11.589844 28.966797 C 11.589844 29.187161 11.41371 29.365234 11.193359 29.365234 L 10.447266 29.365234 C 10.22691 29.365234 10.048828 29.187155 10.048828 28.966797 L 10.048828 21.880859 C 10.048828 21.660505 10.226912 21.484375 10.447266 21.484375 z M 13.863281 21.484375 L 14.609375 21.484375 C 14.829729 21.484375 15.005859 21.660502 15.005859 21.880859 L 15.005859 28.966797 C 15.005859 29.187161 14.829729 29.365234 14.609375 29.365234 L 13.863281 29.365234 C 13.642925 29.365234 13.464844 29.187155 13.464844 28.966797 L 13.464844 21.880859 C 13.464844 21.660505 13.642927 21.484375 13.863281 21.484375 z M 19.152344 22.617188 C 18.913462 22.617187 18.714546 22.677507 18.556641 22.794922 C 18.402787 22.908292 18.278671 23.079761 18.185547 23.310547 C 18.096475 23.541329 18.034482 23.827726 17.998047 24.171875 C 17.961578 24.516026 17.943359 24.917482 17.943359 25.375 C 17.943359 25.93374 17.965207 26.397183 18.009766 26.765625 C 18.054302 27.130019 18.123674 27.421988 18.216797 27.640625 C 18.31397 27.855216 18.438099 28.006611 18.587891 28.095703 C 18.737698 28.180746 18.916411 28.222656 19.126953 28.222656 C 19.284857 28.222656 19.425405 28.198999 19.546875 28.150391 C 19.668338 28.097761 19.774209 28.021149 19.863281 27.919922 C 19.956405 27.818705 20.033017 27.690963 20.09375 27.537109 C 20.154479 27.383254 20.2038 27.206349 20.240234 27.003906 C 20.280717 26.801463 20.306227 26.571483 20.318359 26.316406 C 20.334611 26.061328 20.341797 25.780366 20.341797 25.472656 C 20.341797 25.100164 20.332758 24.771697 20.3125 24.488281 C 20.292261 24.200813 20.259401 23.95273 20.214844 23.742188 C 20.174361 23.53165 20.121418 23.352789 20.056641 23.207031 C 19.995907 23.061278 19.921103 22.946356 19.832031 22.861328 C 19.742952 22.772245 19.642664 22.70831 19.529297 22.671875 C 19.415934 22.635524 19.290005 22.617188 19.152344 22.617188 z "
     transform="scale(0.26458333)"
     id="path834" />
</svg>
