<?xml version="1.0" encoding="UTF-8" standalone="no"?>
<!-- Created with Inkscape (http://www.inkscape.org/) -->

<svg
   xmlns:dc="http://purl.org/dc/elements/1.1/"
   xmlns:cc="http://creativecommons.org/ns#"
   xmlns:rdf="http://www.w3.org/1999/02/22-rdf-syntax-ns#"
   xmlns:svg="http://www.w3.org/2000/svg"
   xmlns="http://www.w3.org/2000/svg"
   xmlns:sodipodi="http://sodipodi.sourceforge.net/DTD/sodipodi-0.dtd"
   xmlns:inkscape="http://www.inkscape.org/namespaces/inkscape"
   width="32"
   height="32"
   viewBox="0 0 8.4666666 8.4666666"
   version="1.1"
   id="svg8"
   inkscape:version="0.92.5 (2060ec1f9f, 2020-04-08)"
   sodipodi:docname="set-lut-3d-look_sl.svg">
  <defs
     id="defs2">
    <style
       id="style1399">.cls-1{fill:#e3e3e3;}</style>
    <style
       id="style1399-4">.cls-1{fill:#e3e3e3;}</style>
    <style
       id="style1399-8">.cls-1{fill:#e3e3e3;}</style>
    <style
       id="style1399-4-5">.cls-1{fill:#e3e3e3;}</style>
    <style
       id="style1399-9">.cls-1{fill:#e3e3e3;}</style>
    <style
       id="style1399-4-6">.cls-1{fill:#e3e3e3;}</style>
    <style
       id="style1399-8-4">.cls-1{fill:#e3e3e3;}</style>
    <style
       id="style1399-4-5-3">.cls-1{fill:#e3e3e3;}</style>
    <style
       id="style1399-88">.cls-1{fill:#e3e3e3;}</style>
    <style
       id="style1399-3">.cls-1{fill:#e3e3e3;}</style>
    <style
       id="style1399-94">.cls-1{fill:#e3e3e3;}</style>
    <style
       id="style1399-5">.cls-1{fill:#e3e3e3;}</style>
    <style
       id="style1399-89">.cls-1{fill:#e3e3e3;}</style>
    <style
       id="style1399-4-7">.cls-1{fill:#e3e3e3;}</style>
    <style
       id="style1399-8-7">.cls-1{fill:#e3e3e3;}</style>
    <style
       id="style1399-4-5-6">.cls-1{fill:#e3e3e3;}</style>
  </defs>
  <sodipodi:namedview
     id="base"
     pagecolor="#ffffff"
     bordercolor="#666666"
     borderopacity="1.0"
     inkscape:pageopacity="0.0"
     inkscape:pageshadow="2"
     inkscape:zoom="2"
     inkscape:cx="-326.64643"
     inkscape:cy="-13.933492"
     inkscape:document-units="mm"
     inkscape:current-layer="svg8"
     showgrid="false"
     units="px"
     inkscape:window-width="3388"
     inkscape:window-height="1376"
     inkscape:window-x="1526"
     inkscape:window-y="507"
     inkscape:window-maximized="1"
     inkscape:snap-bbox="true"
     inkscape:snap-bbox-edge-midpoints="true"
     inkscape:bbox-nodes="true"
     inkscape:bbox-paths="true"
     inkscape:snap-bbox-midpoints="true"
     inkscape:snap-nodes="false">
    <sodipodi:guide
       position="8.4666666,0"
       orientation="-32,0"
       id="guide854"
       inkscape:locked="false" />
    <sodipodi:guide
       position="8.5622298,8.4657622"
       orientation="0,-32"
       id="guide856"
       inkscape:locked="false" />
    <sodipodi:guide
       position="0,8.4666814"
       orientation="32,0"
       id="guide858"
       inkscape:locked="false" />
  </sodipodi:namedview>
  <metadata
     id="metadata5">
    <rdf:RDF>
      <cc:Work
         rdf:about="">
        <dc:format>image/svg+xml</dc:format>
        <dc:type
           rdf:resource="http://purl.org/dc/dcmitype/StillImage" />
        <dc:title></dc:title>
      </cc:Work>
    </rdf:RDF>
  </metadata>
  <path
     style="fill:#d588f1;stroke-width:0.06251217"
     d="M 16.001953 0.546875 C 15.644852 0.54609547 15.287958 0.61012314 14.947266 0.73828125 L 1.9433594 5.6132812 C 0.77438174 6.0508666 4.4408921e-16 7.175537 0 8.4257812 L 0 22.498047 C 0 23.635769 0.64355205 24.673337 1.65625 25.179688 L 14.658203 31.681641 C 15.502115 32.106724 16.497881 32.106724 17.341797 31.681641 L 30.34375 25.179688 C 31.362699 24.673337 32 23.629518 32 22.498047 L 32 8.4257812 C 32 7.175537 31.225618 6.056726 30.056641 5.6191406 L 17.052734 0.74414062 C 16.715168 0.6128644 16.359054 0.54765453 16.001953 0.546875 z M 16.003906 4.6191406 L 28.005859 9.1210938 L 28.005859 9.1894531 L 16.003906 14.064453 L 4 9.1894531 L 4 9.1210938 L 16.003906 4.6191406 z M 4.6679688 12.625 A 4.4232238 3.2046571 49.596241 0 1 5.78125 12.816406 A 4.4232238 3.2046571 49.596241 0 1 9.3417969 16.525391 A 4.4232238 3.2046571 49.596241 0 1 10.609375 16.708984 A 4.4232238 3.2046571 49.596241 0 1 14.375 21.693359 A 4.4232238 3.2046571 49.596241 0 1 10.609375 24.238281 A 4.4232238 3.2046571 49.596241 0 1 10.390625 24.15625 A 4.4232238 3.2046571 49.596241 0 1 6.8457031 25.519531 A 4.4232238 3.2046571 49.596241 0 1 3.0800781 20.537109 A 4.4232238 3.2046571 49.596241 0 1 3.5449219 18.880859 A 4.4232238 3.2046571 49.596241 0 1 2.015625 15.363281 A 4.4232238 3.2046571 49.596241 0 1 4.6679688 12.625 z M 3.5449219 18.880859 A 4.4232238 3.2046571 49.596241 0 0 5.78125 20.345703 A 4.4232238 3.2046571 49.596241 0 0 7.0507812 20.533203 A 4.4232238 3.2046571 49.596241 0 1 6.8457031 19.255859 A 4.4232238 3.2046571 49.596241 0 1 7.0644531 18.072266 A 4.4232238 3.2046571 49.596241 0 0 6.8457031 17.990234 A 4.4232238 3.2046571 49.596241 0 0 3.5449219 18.880859 z M 7.0644531 18.072266 A 4.4232238 3.2046571 49.596241 0 1 9.0820312 19.460938 A 4.4232238 3.2046571 49.596241 0 0 9.5449219 17.800781 A 4.4232238 3.2046571 49.596241 0 0 9.3417969 16.525391 A 4.4232238 3.2046571 49.596241 0 0 7.0644531 18.072266 z M 9.0820312 19.460938 A 4.4232238 3.2046571 49.596241 0 1 7.0507812 20.533203 A 4.4232238 3.2046571 49.596241 0 0 10.390625 24.15625 A 4.4232238 3.2046571 49.596241 0 0 10.609375 22.974609 A 4.4232238 3.2046571 49.596241 0 0 9.0820312 19.460938 z M 28.005859 13.501953 L 28.005859 21.873047 L 18.003906 26.873047 L 18.003906 17.566406 L 28.005859 13.501953 z "
     transform="scale(0.26458333)"
     id="path822" />
</svg>
