<?xml version="1.0" encoding="UTF-8" standalone="no"?>
<!-- Created with Inkscape (http://www.inkscape.org/) -->

<svg
   xmlns:dc="http://purl.org/dc/elements/1.1/"
   xmlns:cc="http://creativecommons.org/ns#"
   xmlns:rdf="http://www.w3.org/1999/02/22-rdf-syntax-ns#"
   xmlns:svg="http://www.w3.org/2000/svg"
   xmlns="http://www.w3.org/2000/svg"
   xmlns:sodipodi="http://sodipodi.sourceforge.net/DTD/sodipodi-0.dtd"
   xmlns:inkscape="http://www.inkscape.org/namespaces/inkscape"
   width="32"
   height="32"
   viewBox="0 0 8.4666666 8.4666666"
   version="1.1"
   id="svg8"
   inkscape:version="0.92.5 (2060ec1f9f, 2020-04-08)"
   sodipodi:docname="set-audio-codec_sl.svg">
  <defs
     id="defs2">
    <style
       id="style1399">.cls-1{fill:#e3e3e3;}</style>
    <style
       id="style1399-4">.cls-1{fill:#e3e3e3;}</style>
    <style
       id="style1399-8">.cls-1{fill:#e3e3e3;}</style>
    <style
       id="style1399-4-5">.cls-1{fill:#e3e3e3;}</style>
    <style
       id="style1399-9">.cls-1{fill:#e3e3e3;}</style>
    <style
       id="style1399-4-6">.cls-1{fill:#e3e3e3;}</style>
    <style
       id="style1399-8-4">.cls-1{fill:#e3e3e3;}</style>
    <style
       id="style1399-4-5-3">.cls-1{fill:#e3e3e3;}</style>
    <style
       id="style1399-88">.cls-1{fill:#e3e3e3;}</style>
    <style
       id="style1399-3">.cls-1{fill:#e3e3e3;}</style>
    <style
       id="style1399-94">.cls-1{fill:#e3e3e3;}</style>
    <style
       id="style1399-5">.cls-1{fill:#e3e3e3;}</style>
    <style
       id="style1399-46">.cls-1{fill:#e3e3e3;}</style>
    <style
       id="style1399-4-2">.cls-1{fill:#e3e3e3;}</style>
    <style
       id="style1399-8-5">.cls-1{fill:#e3e3e3;}</style>
    <style
       id="style1399-4-5-8">.cls-1{fill:#e3e3e3;}</style>
    <style
       id="style1399-9-6">.cls-1{fill:#e3e3e3;}</style>
    <style
       id="style1399-4-6-2">.cls-1{fill:#e3e3e3;}</style>
    <style
       id="style1399-8-4-8">.cls-1{fill:#e3e3e3;}</style>
    <style
       id="style1399-4-5-3-4">.cls-1{fill:#e3e3e3;}</style>
    <style
       id="style1399-88-7">.cls-1{fill:#e3e3e3;}</style>
    <style
       id="style1399-3-2">.cls-1{fill:#e3e3e3;}</style>
    <style
       id="style1399-94-4">.cls-1{fill:#e3e3e3;}</style>
    <style
       id="style1399-5-0">.cls-1{fill:#e3e3e3;}</style>
    <style
       id="style1399-39">.cls-1{fill:#e3e3e3;}</style>
    <style
       id="style1399-4-1">.cls-1{fill:#e3e3e3;}</style>
    <style
       id="style1399-8-9">.cls-1{fill:#e3e3e3;}</style>
    <style
       id="style1399-4-5-6">.cls-1{fill:#e3e3e3;}</style>
    <style
       id="style1399-9-9">.cls-1{fill:#e3e3e3;}</style>
    <style
       id="style1399-4-6-3">.cls-1{fill:#e3e3e3;}</style>
    <style
       id="style1399-8-4-3">.cls-1{fill:#e3e3e3;}</style>
    <style
       id="style1399-4-5-3-8">.cls-1{fill:#e3e3e3;}</style>
    <style
       id="style1399-88-0">.cls-1{fill:#e3e3e3;}</style>
    <style
       id="style1399-3-5">.cls-1{fill:#e3e3e3;}</style>
    <style
       id="style1399-94-6">.cls-1{fill:#e3e3e3;}</style>
    <style
       id="style1399-5-6">.cls-1{fill:#e3e3e3;}</style>
    <style
       id="style1399-46-4">.cls-1{fill:#e3e3e3;}</style>
    <style
       id="style1399-4-2-0">.cls-1{fill:#e3e3e3;}</style>
    <style
       id="style1399-8-5-0">.cls-1{fill:#e3e3e3;}</style>
    <style
       id="style1399-4-5-8-4">.cls-1{fill:#e3e3e3;}</style>
    <style
       id="style1399-9-6-6">.cls-1{fill:#e3e3e3;}</style>
    <style
       id="style1399-4-6-2-2">.cls-1{fill:#e3e3e3;}</style>
    <style
       id="style1399-8-4-8-6">.cls-1{fill:#e3e3e3;}</style>
    <style
       id="style1399-4-5-3-4-7">.cls-1{fill:#e3e3e3;}</style>
    <style
       id="style1399-88-7-5">.cls-1{fill:#e3e3e3;}</style>
    <style
       id="style1399-3-2-6">.cls-1{fill:#e3e3e3;}</style>
    <style
       id="style1399-94-4-9">.cls-1{fill:#e3e3e3;}</style>
    <style
       id="style1399-5-0-8">.cls-1{fill:#e3e3e3;}</style>
    <style
       id="style1399-1">.cls-1{fill:#e3e3e3;}</style>
    <style
       id="style1399-4-59">.cls-1{fill:#e3e3e3;}</style>
    <style
       id="style1399-8-91">.cls-1{fill:#e3e3e3;}</style>
    <style
       id="style1399-4-5-4">.cls-1{fill:#e3e3e3;}</style>
    <style
       id="style1399-9-91">.cls-1{fill:#e3e3e3;}</style>
    <style
       id="style1399-4-6-0">.cls-1{fill:#e3e3e3;}</style>
    <style
       id="style1399-8-4-7">.cls-1{fill:#e3e3e3;}</style>
    <style
       id="style1399-4-5-3-5">.cls-1{fill:#e3e3e3;}</style>
    <style
       id="style1399-88-8">.cls-1{fill:#e3e3e3;}</style>
    <style
       id="style1399-3-7">.cls-1{fill:#e3e3e3;}</style>
    <style
       id="style1399-94-0">.cls-1{fill:#e3e3e3;}</style>
    <style
       id="style1399-5-4">.cls-1{fill:#e3e3e3;}</style>
    <style
       id="style1399-46-8">.cls-1{fill:#e3e3e3;}</style>
    <style
       id="style1399-4-2-04">.cls-1{fill:#e3e3e3;}</style>
    <style
       id="style1399-8-5-2">.cls-1{fill:#e3e3e3;}</style>
    <style
       id="style1399-4-5-8-9">.cls-1{fill:#e3e3e3;}</style>
    <style
       id="style1399-9-6-61">.cls-1{fill:#e3e3e3;}</style>
    <style
       id="style1399-4-6-2-0">.cls-1{fill:#e3e3e3;}</style>
    <style
       id="style1399-8-4-8-4">.cls-1{fill:#e3e3e3;}</style>
    <style
       id="style1399-4-5-3-4-2">.cls-1{fill:#e3e3e3;}</style>
    <style
       id="style1399-88-7-2">.cls-1{fill:#e3e3e3;}</style>
    <style
       id="style1399-3-2-2">.cls-1{fill:#e3e3e3;}</style>
    <style
       id="style1399-94-4-0">.cls-1{fill:#e3e3e3;}</style>
    <style
       id="style1399-5-0-5">.cls-1{fill:#e3e3e3;}</style>
    <style
       id="style1399-80">.cls-1{fill:#e3e3e3;}</style>
    <style
       id="style1399-4-4">.cls-1{fill:#e3e3e3;}</style>
    <style
       id="style1399-8-0">.cls-1{fill:#e3e3e3;}</style>
    <style
       id="style1399-4-5-9">.cls-1{fill:#e3e3e3;}</style>
    <style
       id="style1399-9-1">.cls-1{fill:#e3e3e3;}</style>
    <style
       id="style1399-4-6-9">.cls-1{fill:#e3e3e3;}</style>
    <style
       id="style1399-8-4-6">.cls-1{fill:#e3e3e3;}</style>
    <style
       id="style1399-4-5-3-2">.cls-1{fill:#e3e3e3;}</style>
    <style
       id="style1399-88-5">.cls-1{fill:#e3e3e3;}</style>
    <style
       id="style1399-3-4">.cls-1{fill:#e3e3e3;}</style>
    <style
       id="style1399-94-49">.cls-1{fill:#e3e3e3;}</style>
    <style
       id="style1399-5-9">.cls-1{fill:#e3e3e3;}</style>
    <style
       id="style1399-46-3">.cls-1{fill:#e3e3e3;}</style>
    <style
       id="style1399-4-2-6">.cls-1{fill:#e3e3e3;}</style>
    <style
       id="style1399-8-5-05">.cls-1{fill:#e3e3e3;}</style>
    <style
       id="style1399-4-5-8-0">.cls-1{fill:#e3e3e3;}</style>
    <style
       id="style1399-9-6-2">.cls-1{fill:#e3e3e3;}</style>
    <style
       id="style1399-4-6-2-9">.cls-1{fill:#e3e3e3;}</style>
    <style
       id="style1399-8-4-8-43">.cls-1{fill:#e3e3e3;}</style>
    <style
       id="style1399-4-5-3-4-5">.cls-1{fill:#e3e3e3;}</style>
    <style
       id="style1399-88-7-1">.cls-1{fill:#e3e3e3;}</style>
    <style
       id="style1399-3-2-7">.cls-1{fill:#e3e3e3;}</style>
    <style
       id="style1399-94-4-4">.cls-1{fill:#e3e3e3;}</style>
    <style
       id="style1399-5-0-3">.cls-1{fill:#e3e3e3;}</style>
    <style
       id="style1399-6">.cls-1{fill:#e3e3e3;}</style>
    <style
       id="style1399-888">.cls-1{fill:#e3e3e3;}</style>
    <style
       id="style1399-4-68">.cls-1{fill:#e3e3e3;}</style>
    <style
       id="style1399-5-3">.cls-1{fill:#e3e3e3;}</style>
    <style
       id="style1399-7">.cls-1{fill:#e3e3e3;}</style>
    <style
       id="style1399-76">.cls-1{fill:#e3e3e3;}</style>
    <style
       id="style1399-4-8">.cls-1{fill:#e3e3e3;}</style>
    <style
       id="style1399-5-90">.cls-1{fill:#e3e3e3;}</style>
    <style
       id="style1399-7-6">.cls-1{fill:#e3e3e3;}</style>
    <style
       id="style1399-73">.cls-1{fill:#e3e3e3;}</style>
    <style
       id="style1399-4-26">.cls-1{fill:#e3e3e3;}</style>
    <style
       id="style1399-5-5">.cls-1{fill:#e3e3e3;}</style>
    <style
       id="style1399-7-2">.cls-1{fill:#e3e3e3;}</style>
  </defs>
  <sodipodi:namedview
     id="base"
     pagecolor="#ffffff"
     bordercolor="#666666"
     borderopacity="1.0"
     inkscape:pageopacity="0.0"
     inkscape:pageshadow="2"
     inkscape:zoom="11.313709"
     inkscape:cx="-27.75029"
     inkscape:cy="8.3913233"
     inkscape:document-units="mm"
     inkscape:current-layer="svg8"
     showgrid="false"
     units="px"
     inkscape:window-width="1920"
     inkscape:window-height="1043"
     inkscape:window-x="0"
     inkscape:window-y="120"
     inkscape:window-maximized="1">
    <sodipodi:guide
       position="8.4666666,0"
       orientation="-32,0"
       id="guide854"
       inkscape:locked="false" />
    <sodipodi:guide
       position="8.5622298,8.4657622"
       orientation="0,-32"
       id="guide856"
       inkscape:locked="false" />
    <sodipodi:guide
       position="0,8.4666814"
       orientation="32,0"
       id="guide858"
       inkscape:locked="false" />
  </sodipodi:namedview>
  <metadata
     id="metadata5">
    <rdf:RDF>
      <cc:Work
         rdf:about="">
        <dc:format>image/svg+xml</dc:format>
        <dc:type
           rdf:resource="http://purl.org/dc/dcmitype/StillImage" />
        <dc:title></dc:title>
      </cc:Work>
    </rdf:RDF>
  </metadata>
  <path
     sodipodi:nodetypes="sccssssccssssccscccscsccccccccccccsccccssssssssscccsscccscccccccccccc"
     inkscape:connector-curvature="0"
     id="path1124"
     d="M 5.1518515,9.0440001e-4 C 5.0035121,-0.0162542 4.846416,0.0283209 4.7229371,0.15179958 L 2.7711183,2.1031016 H 0.53197849 c -0.29088692,0 -0.52606612,0.235697 -0.52606602,0.5265829 v 3.1589801 c 0,0.2906678 0.2351791,0.5260663 0.52606602,0.5260663 H 2.7711183 l 1.9518188,1.951302 c 0.329716,0.3297158 0.8986533,0.098262 0.8986533,-0.3720703 V 0.52386988 c 0,-0.29423227 -0.2225067,-0.49436784 -0.4697389,-0.52296547999 z M 7.1248576,2.4601858 C 6.9565628,2.47547 6.7984359,2.5707581 6.7104127,2.7299368 6.5702349,2.9846277 6.6629457,3.3045219 6.9176352,3.4451387 c 0.2832092,0.1555345 0.4588867,0.4485407 0.4588867,0.7637774 0,0.3154569 -0.1758971,0.6082432 -0.4588867,0.7637777 C 6.6629446,5.1133117 6.5702343,5.4332046 6.7104127,5.6878957 6.8514687,5.9436829 7.1720207,6.0344191 7.4256145,5.8951181 8.0449006,5.5539953 8.4296876,4.9082734 8.4296876,4.2089161 8.4296876,3.5095594 8.0451202,2.8636186 7.4256145,2.5227143 7.3303523,2.4706412 7.2258348,2.4510153 7.1248576,2.4601858 Z M 2.7467192,2.6237984 c 0.2081567,5e-7 0.3801613,0.037228 0.5163238,0.1092222 0.1377278,0.070429 0.2467443,0.1721082 0.3265638,0.3067052 0.07982,0.133033 0.1352905,0.2968779 0.1665917,0.4909492 0.031302,0.1925061 0.04744,0.41118 0.04744,0.655334 0,0.2425885 -0.02045,0.460801 -0.059576,0.6564371 C 3.7049334,5.0380827 3.6413061,5.2055978 3.5520958,5.3433243 3.464451,5.4810523 3.3492001,5.5863999 3.2067767,5.6599591 3.0659189,5.7335199 2.8932724,5.7702845 2.6882466,5.7702845 2.4800894,5.7702843 2.3080843,5.7347999 2.1719226,5.6643723 2.0357591,5.5923782 1.9273842,5.4907004 1.8475656,5.3576668 1.7677469,5.2230693 1.7116325,5.0592242 1.6787674,4.8667176 1.6474651,4.6726471 1.6313274,4.4533313 1.6313274,4.2091778 c 0,-0.2410238 0.019346,-0.4596982 0.058472,-0.6553348 C 1.7304917,3.3566424 1.7952244,3.1895885 1.8828697,3.0518623 1.9720797,2.9141339 2.0873304,2.8087861 2.2281888,2.7352277 2.3706116,2.6616685 2.5432581,2.6237984 2.7467192,2.6237984 Z m -2.07081156,0.051853 h 0.28905303 c 0.0851774,0 0.15335263,0.068173 0.15335263,0.1533523 v 2.7393849 c 0,0.085177 -0.068173,0.1544556 -0.15335263,0.1544556 H 0.67590764 c -0.0851793,0 -0.1533526,-0.069277 -0.1533526,-0.1544556 V 2.829004 c 0,-0.085179 0.0681733,-0.1533523 0.1533526,-0.1533526 z M 2.720241,3.1125405 c -0.092339,2.4e-6 -0.1684395,0.023011 -0.2294772,0.068402 -0.059473,0.043822 -0.1074283,0.1104786 -0.1434233,0.1996895 -0.034432,0.08921 -0.058724,0.2001493 -0.072815,0.3331832 -0.01409,0.1330327 -0.020962,0.2876176 -0.020962,0.4644704 0,0.2159821 0.00927,0.3959657 0.026478,0.5383893 0.017216,0.1408567 0.043437,0.2530808 0.079434,0.3375961 0.037562,0.082949 0.085511,0.1420887 0.1434233,0.1765208 0.05791,0.032864 0.1271296,0.048545 0.2085154,0.048545 0.06104,0 0.1152271,-0.00879 0.1621785,-0.027583 0.046952,-0.020341 0.086926,-0.050239 0.1213583,-0.089364 C 3.030946,5.1232618 3.060837,5.0740258 3.084315,5.0145536 3.107792,4.9550786 3.12649,4.8864985 3.140581,4.8082443 3.156234,4.7299903 3.166775,4.6409593 3.171472,4.5423597 3.177752,4.4437587 3.181402,4.3347438 3.181402,4.2157959 3.181402,4.071808 3.177082,3.9458325 3.169266,3.836276 3.161446,3.7251557 3.148986,3.628609 3.131756,3.5472234 3.116106,3.4658374 3.095016,3.39726 3.069973,3.3409146 3.046496,3.2845746 3.018349,3.2391847 2.983919,3.2063176 2.949485,3.1718836 2.910796,3.1486966 2.866974,3.1346056 2.82315,3.1205136 2.773454,3.1125396 2.720241,3.1125405 Z"
     style="fill:#8ad891;fill-opacity:1;stroke-width:0.02193718" />
</svg>
