<?xml version="1.0" encoding="UTF-8" standalone="no"?>
<!-- Created with Inkscape (http://www.inkscape.org/) -->

<svg
   xmlns:dc="http://purl.org/dc/elements/1.1/"
   xmlns:cc="http://creativecommons.org/ns#"
   xmlns:rdf="http://www.w3.org/1999/02/22-rdf-syntax-ns#"
   xmlns:svg="http://www.w3.org/2000/svg"
   xmlns="http://www.w3.org/2000/svg"
   xmlns:sodipodi="http://sodipodi.sourceforge.net/DTD/sodipodi-0.dtd"
   xmlns:inkscape="http://www.inkscape.org/namespaces/inkscape"
   width="32"
   height="32"
   viewBox="0 0 8.4666666 8.4666666"
   version="1.1"
   id="svg8"
   inkscape:version="0.92.4 (5da689c313, 2019-01-14)"
   sodipodi:docname="set-preset-location-folder_sl.svg">
  <defs
     id="defs2">
    <style
       id="style1399">.cls-1{fill:#e3e3e3;}</style>
    <style
       id="style1399-2">.cls-1{fill:#e3e3e3;}</style>
    <style
       id="style1399-1">.cls-1{fill:#e3e3e3;}</style>
    <style
       id="style1399-5">.cls-1{fill:#e3e3e3;}</style>
    <style
       id="style1399-8">.cls-1{fill:#e3e3e3;}</style>
    <style
       id="style1399-25">.cls-1{fill:#e3e3e3;}</style>
    <style
       id="style1399-4">.cls-1{fill:#e3e3e3;}</style>
    <style
       id="style1399-8-0">.cls-1{fill:#e3e3e3;}</style>
    <style
       id="style1399-4-5">.cls-1{fill:#e3e3e3;}</style>
    <style
       id="style1399-0">.cls-1{fill:#e3e3e3;}</style>
    <style
       id="style854">.cls-1{fill:#e3e3e3;}</style>
    <style
       id="style1399-84">.cls-1{fill:#e3e3e3;}</style>
    <style
       id="style1399-4-8">.cls-1{fill:#e3e3e3;}</style>
    <style
       id="style1399-8-10">.cls-1{fill:#e3e3e3;}</style>
    <style
       id="style1399-4-5-3">.cls-1{fill:#e3e3e3;}</style>
    <style
       id="style1399-0-0">.cls-1{fill:#e3e3e3;}</style>
    <style
       id="style1399-5-8">.cls-1{fill:#e3e3e3;}</style>
    <style
       id="style1399-4-6">.cls-1{fill:#e3e3e3;}</style>
    <style
       id="style1399-8-1">.cls-1{fill:#e3e3e3;}</style>
    <style
       id="style1399-4-5-1">.cls-1{fill:#e3e3e3;}</style>
    <style
       id="style1399-0-5">.cls-1{fill:#e3e3e3;}</style>
  </defs>
  <sodipodi:namedview
     id="base"
     pagecolor="#ffffff"
     bordercolor="#666666"
     borderopacity="1.0"
     inkscape:pageopacity="0.0"
     inkscape:pageshadow="2"
     inkscape:zoom="2.4617432"
     inkscape:cx="-14.175405"
     inkscape:cy="0.40820069"
     inkscape:document-units="mm"
     inkscape:current-layer="svg8"
     showgrid="false"
     units="px"
     inkscape:window-width="1843"
     inkscape:window-height="1146"
     inkscape:window-x="3123"
     inkscape:window-y="666"
     inkscape:window-maximized="0">
    <sodipodi:guide
       position="8.4666666,0"
       orientation="-32,0"
       id="guide854"
       inkscape:locked="false" />
    <sodipodi:guide
       position="8.4666666,8.4666666"
       orientation="0,-32"
       id="guide856"
       inkscape:locked="false" />
    <sodipodi:guide
       position="0,8.4666814"
       orientation="1,6.123234e-17"
       id="guide858"
       inkscape:locked="false" />
  </sodipodi:namedview>
  <metadata
     id="metadata5">
    <rdf:RDF>
      <cc:Work
         rdf:about="">
        <dc:format>image/svg+xml</dc:format>
        <dc:type
           rdf:resource="http://purl.org/dc/dcmitype/StillImage" />
        <dc:title></dc:title>
      </cc:Work>
    </rdf:RDF>
  </metadata>
  <path
     style="fill:#83d3f6;fill-opacity:1;stroke-width:0.05553097"
     d="M 2.8632812 10.472656 C 1.3911538 10.472656 0.19726562 11.664592 0.19726562 13.136719 L 0.19726562 28.578125 L 4.0332031 22.001953 C 4.8976835 20.519972 6.435214 19.558193 8.125 19.392578 A 1.7236018 1.7236018 0 0 1 8.1230469 19.355469 L 8.1230469 10.472656 L 2.8632812 10.472656 z "
     transform="scale(0.26458333)"
     id="path1873" />
  <path
     style="fill:#83d3f6;fill-opacity:1;stroke-width:0.0424882"
     d="M 10.710938 0 C 10.145845 0 9.6914063 0.45443863 9.6914062 1.0195312 L 9.6914062 19.369141 L 26.005859 19.369141 L 26.005859 6.7988281 L 20.228516 6.7988281 C 19.667672 6.7988281 19.208984 6.3401459 19.208984 5.7792969 L 19.208984 0 L 10.710938 0 z M 20.568359 0 L 20.568359 5.4394531 L 26.005859 5.4394531 L 26.005859 5.1796875 C 26.005859 4.9120214 25.900187 4.652165 25.708984 4.4609375 L 21.548828 0.296875 C 21.357631 0.1055453 21.098096 0 20.826172 0 L 20.568359 0 z M 13.677734 9.265625 C 14.441082 9.265625 15.0625 9.8870421 15.0625 10.650391 C 15.0625 11.413738 14.441082 12.03125 13.677734 12.03125 C 12.914386 12.03125 12.296875 11.413738 12.296875 10.650391 C 12.296875 9.8870421 12.914386 9.265625 13.677734 9.265625 z M 16.304688 9.6816406 L 23.214844 9.6816406 C 23.443838 9.6816406 23.630859 9.8667084 23.630859 10.095703 L 23.630859 11.201172 C 23.630859 11.430166 23.443835 11.617188 23.214844 11.617188 L 16.304688 11.617188 C 16.075693 11.617188 15.890625 11.430167 15.890625 11.201172 L 15.890625 10.095703 C 15.890625 9.8667091 16.075692 9.6816406 16.304688 9.6816406 z M 13.677734 12.583984 C 14.441082 12.583984 15.0625 13.203448 15.0625 13.966797 C 15.0625 14.730144 14.441082 15.349609 13.677734 15.349609 C 12.914386 15.349609 12.296875 14.730144 12.296875 13.966797 C 12.296875 13.203448 12.914386 12.583984 13.677734 12.583984 z M 16.304688 12.998047 L 23.214844 12.998047 C 23.443838 12.998047 23.630859 13.185068 23.630859 13.414062 L 23.630859 14.519531 C 23.630859 14.748525 23.443835 14.933594 23.214844 14.933594 L 16.304688 14.933594 C 16.075693 14.933594 15.890625 14.748526 15.890625 14.519531 L 15.890625 13.414062 C 15.890625 13.185068 16.075692 12.998047 16.304688 12.998047 z M 13.677734 15.900391 C 14.441082 15.900391 15.0625 16.519855 15.0625 17.283203 C 15.0625 18.046552 14.441082 18.666016 13.677734 18.666016 C 12.914386 18.666016 12.296875 18.046552 12.296875 17.283203 C 12.296875 16.519855 12.914386 15.900391 13.677734 15.900391 z M 16.304688 16.316406 L 23.214844 16.316406 C 23.443838 16.316406 23.630859 16.501474 23.630859 16.730469 L 23.630859 17.835938 C 23.630859 18.064932 23.443835 18.251953 23.214844 18.251953 L 16.304688 18.251953 C 16.075693 18.251953 15.890625 18.064932 15.890625 17.835938 L 15.890625 16.730469 C 15.890625 16.501475 16.075692 16.316406 16.304688 16.316406 z "
     transform="scale(0.26458333)"
     id="path1112" />
  <path
     style="fill:#83d3f6;fill-opacity:1;stroke-width:0.01469257"
     d="M 8.4666667,6.1219286 7.4025711,7.9460847 A 0.94028074,0.94028074 0 0 1 6.5903507,8.4126034 H 0.71384977 c -0.2721504,0 -0.4417178,-0.2952177 -0.3045917,-0.5302985 L 1.4733533,6.0581479 A 0.94032478,0.94032478 0 0 1 2.285588,5.5916292 h 5.876501 c 0.2721508,0 0.441718,0.2952177 0.3045777,0.5302994 z"
     id="path879" />
</svg>
