<?xml version="1.0" encoding="UTF-8" standalone="no"?>
<!-- Created with Inkscape (http://www.inkscape.org/) -->

<svg
   xmlns:dc="http://purl.org/dc/elements/1.1/"
   xmlns:cc="http://creativecommons.org/ns#"
   xmlns:rdf="http://www.w3.org/1999/02/22-rdf-syntax-ns#"
   xmlns:svg="http://www.w3.org/2000/svg"
   xmlns="http://www.w3.org/2000/svg"
   xmlns:sodipodi="http://sodipodi.sourceforge.net/DTD/sodipodi-0.dtd"
   xmlns:inkscape="http://www.inkscape.org/namespaces/inkscape"
   width="32"
   height="32"
   viewBox="0 0 8.4666666 8.4666666"
   version="1.1"
   id="svg8"
   inkscape:version="0.92.5 (2060ec1f9f, 2020-04-08)"
   sodipodi:docname="set-after-effects-composition_sl.svg">
  <defs
     id="defs2">
    <style
       id="style1399">.cls-1{fill:#e3e3e3;}</style>
    <style
       id="style1399-4">.cls-1{fill:#e3e3e3;}</style>
    <style
       id="style1399-5">.cls-1{fill:#e3e3e3;}</style>
    <style
       id="style1399-7">.cls-1{fill:#e3e3e3;}</style>
    <style
       id="style1399-85">.cls-1{fill:#e3e3e3;}</style>
    <style
       id="style1399-4-6">.cls-1{fill:#e3e3e3;}</style>
    <style
       id="style1399-8">.cls-1{fill:#e3e3e3;}</style>
    <style
       id="style1399-4-5">.cls-1{fill:#e3e3e3;}</style>
    <style
       id="style1399-44">.cls-1{fill:#e3e3e3;}</style>
    <style
       id="style1399-59">.cls-1{fill:#e3e3e3;}</style>
    <style
       id="style1399-41">.cls-1{fill:#e3e3e3;}</style>
    <style
       id="style1399-83">.cls-1{fill:#e3e3e3;}</style>
    <style
       id="style1399-4-1">.cls-1{fill:#e3e3e3;}</style>
  </defs>
  <sodipodi:namedview
     id="base"
     pagecolor="#ffffff"
     bordercolor="#666666"
     borderopacity="1.0"
     inkscape:pageopacity="0.0"
     inkscape:pageshadow="2"
     inkscape:zoom="4"
     inkscape:cx="-24.456124"
     inkscape:cy="33.45977"
     inkscape:document-units="mm"
     inkscape:current-layer="svg8"
     showgrid="false"
     units="px"
     inkscape:window-width="1920"
     inkscape:window-height="1043"
     inkscape:window-x="0"
     inkscape:window-y="120"
     inkscape:window-maximized="1"
     inkscape:snap-global="true"
     inkscape:snap-bbox="true"
     inkscape:bbox-paths="true"
     inkscape:bbox-nodes="true"
     inkscape:snap-bbox-edge-midpoints="true"
     inkscape:snap-bbox-midpoints="true"
     inkscape:snap-nodes="false"
     inkscape:snap-others="false">
    <sodipodi:guide
       position="8.4666666,0"
       orientation="-32,0"
       id="guide854"
       inkscape:locked="false" />
    <sodipodi:guide
       position="0,8.4666666"
       orientation="0,-32"
       id="guide856"
       inkscape:locked="false" />
    <sodipodi:guide
       position="0,8.4666666"
       orientation="32,0"
       id="guide858"
       inkscape:locked="false" />
  </sodipodi:namedview>
  <metadata
     id="metadata5">
    <rdf:RDF>
      <cc:Work
         rdf:about="">
        <dc:format>image/svg+xml</dc:format>
        <dc:type
           rdf:resource="http://purl.org/dc/dcmitype/StillImage" />
        <dc:title></dc:title>
      </cc:Work>
    </rdf:RDF>
  </metadata>
  <path
     id="path1007"
     d="m 3.4207155,3.1527698 c -0.074759,0 -0.1305768,0.00868 -0.1673814,0.025932 -0.036804,0.016103 -0.063195,0.044965 -0.079298,0.08637 L 2.4856526,5.07133 c -0.0069,0.017253 -0.010288,0.032705 -0.010288,0.046506 0,0.027603 0.013195,0.051736 0.039648,0.07244 0.027604,0.020702 0.072484,0.038062 0.1345907,0.051864 0.058658,0.013801 0.1052293,0.020574 0.1397341,0.020574 0.031054,0 0.055752,-0.00565 0.074154,-0.017145 0.019552,-0.011499 0.033877,-0.029425 0.043077,-0.053578 L 3.0291582,4.8591575 H 3.7848379 L 3.9037836,5.191991 c 0.0092,0.024153 0.022961,0.042077 0.041364,0.053578 0.018403,0.011499 0.043878,0.017145 0.076082,0.017145 0.035653,0 0.082792,-0.00677 0.141449,-0.020574 0.062107,-0.013801 0.1069881,-0.031162 0.1345908,-0.051864 0.027603,-0.020702 0.041363,-0.0454 0.041363,-0.074154 0,-0.017253 -0.00303,-0.03214 -0.00879,-0.044792 L 3.6639645,3.2650716 c -0.014952,-0.040255 -0.040778,-0.069117 -0.077582,-0.08637 -0.035654,-0.017252 -0.090908,-0.025932 -0.165667,-0.025932 z m 1.7584663,0.453708 c -0.1736706,0 -0.3248926,0.035635 -0.4537079,0.1069443 -0.1288153,0.071309 -0.22782,0.1703132 -0.2968283,0.2968283 -0.067858,0.1265144 -0.1018003,0.2701855 -0.1018003,0.4312047 0,0.1621693 0.03112,0.3066184 0.093228,0.4331335 0.063257,0.1253644 0.1547112,0.2238053 0.274325,0.2951137 0.1207649,0.071308 0.2649993,0.1069443 0.4329194,0.1069443 0.1207648,0 0.2444666,-0.010945 0.3709817,-0.03279 0.1276655,-0.020702 0.2502386,-0.050694 0.3675526,-0.089799 0.029903,-0.010345 0.051002,-0.023547 0.063653,-0.039648 0.013803,-0.017253 0.02079,-0.040821 0.02079,-0.070725 0,-0.029904 -0.00565,-0.066103 -0.017145,-0.1086582 C 5.918199,4.8798194 5.901402,4.8405844 5.883001,4.8175809 5.864599,4.7945779 5.842722,4.7830769 5.817421,4.7830769 c -0.013802,0 -0.027562,0.00247 -0.041366,0.00707 -0.208175,0.063257 -0.4129571,0.094728 -0.6142311,0.094728 -0.1012112,0 -0.185114,-0.024134 -0.2518217,-0.07244 -0.06671,-0.048301 -0.111026,-0.1190074 -0.1328783,-0.2121685 h 1.1075873 c 0.039105,0 0.066838,-0.00812 0.082941,-0.024218 0.017253,-0.016101 0.025717,-0.043621 0.025717,-0.082726 0,-0.1736707 -0.030905,-0.3271501 -0.093013,-0.4605662 C 5.8382496,3.8993373 5.7462318,3.7952531 5.6243173,3.7204941 5.5024024,3.6445852 5.3540026,3.6064778 5.1791818,3.6064778 Z M 3.4104283,3.746212 h 0.00686 L 3.6553917,4.4536707 H 3.1654645 Z m 1.7687535,0.2520362 c 0.098911,0 0.1811203,0.023568 0.2466782,0.070724 0.065558,0.047156 0.1081809,0.1120041 0.1277327,0.1948138 H 4.7839823 c 0.025303,-0.08856 0.071312,-0.1545376 0.1380198,-0.1982427 0.066708,-0.044855 0.1525172,-0.067296 0.2571797,-0.067295 z"
     style="font-style:normal;font-variant:normal;font-weight:bold;font-stretch:normal;font-size:7.69734335px;line-height:1.25;font-family:'Courier Prime Sans';-inkscape-font-specification:'Courier Prime Sans, Bold';font-variant-ligatures:normal;font-variant-caps:normal;font-variant-numeric:normal;font-feature-settings:normal;text-align:start;letter-spacing:0px;word-spacing:0px;writing-mode:lr-tb;text-anchor:start;fill:#83d3f6;fill-opacity:1;stroke:none;stroke-width:0.08833055"
     inkscape:connector-curvature="0" />
  <path
     id="rect819"
     d="m 0.39869109,1.0406781 c -0.2198854,0 -0.39662404,0.1767382 -0.39662404,0.396624 v 5.5548123 c 0,0.2198858 0.17673864,0.3966239 0.39662404,0.3966239 H 0.53107213 V 7.0585646 c 0,-0.1091166 0.0891954,-0.1988312 0.19831193,-0.1988312 H 1.3907702 c 0.109116,0 0.1983119,0.089717 0.1983119,0.1988312 V 7.3887383 H 6.8796516 V 7.0585646 c 0,-0.1091166 0.089197,-0.1988312 0.1983118,-0.1988312 h 0.6613861 c 0.1091158,0 0.198312,0.089717 0.198312,0.1988312 v 0.3301737 h 0.132381 c 0.219885,0 0.3966242,-0.1767381 0.3966242,-0.3966239 V 1.4373021 c 0,-0.2198858 -0.1767392,-0.3966241 -0.3966242,-0.396624 h -0.132381 v 0.3301738 c 0,0.1091168 -0.089198,0.1988312 -0.198312,0.1988312 H 7.0779634 c -0.1091166,0 -0.198312,-0.089717 -0.1983118,-0.1988312 V 1.0406781 H 1.5890821 v 0.3301738 c 0,0.1091168 -0.089195,0.1988312 -0.1983119,0.1988312 H 0.72938406 c -0.10911622,0 -0.19831193,-0.089717 -0.19831193,-0.1988312 V 1.0406781 Z M 2.5811613,1.833926 h 3.3064112 c 0.1091161,0 0.1983119,0.089197 0.1983119,0.1983121 v 4.3649404 c 0,0.1091164 -0.089196,0.1983119 -0.1983119,0.1983119 H 2.5811613 c -0.1091162,0 -0.198312,-0.089197 -0.198312,-0.1983119 V 2.0322381 c 0,-0.1091167 0.089195,-0.1983121 0.198312,-0.1983121 z M 0.72938406,2.0986881 H 1.3907702 c 0.109116,0 0.1983119,0.089197 0.1983119,0.198312 v 0.6613863 c 0,0.1091163 -0.089195,0.1983117 -0.1983119,0.1983117 H 0.72938406 c -0.10911622,0 -0.19831193,-0.089197 -0.19831193,-0.1983117 V 2.2970001 c 0,-0.1091166 0.0891954,-0.198312 0.19831193,-0.198312 z m 6.34857934,0 h 0.6613861 c 0.1091158,0 0.198312,0.089197 0.198312,0.198312 v 0.6613863 c 0,0.1091163 -0.089198,0.1983117 -0.198312,0.1983117 H 7.0779634 c -0.1091166,0 -0.1983118,-0.089197 -0.1983118,-0.1983117 V 2.2970001 c 0,-0.1091166 0.089197,-0.198312 0.1983118,-0.198312 z M 0.72938406,3.6857033 H 1.3907702 c 0.109116,0 0.1983119,0.089198 0.1983119,0.1983118 v 0.6613862 c 0,0.1091167 -0.089195,0.1983118 -0.1983119,0.1983118 H 0.72938406 c -0.10911622,0 -0.19831193,-0.089197 -0.19831193,-0.1983118 V 3.8840151 c 0,-0.1091155 0.0891954,-0.1983118 0.19831193,-0.1983118 z m 6.34857934,0 h 0.6613861 c 0.1091158,0 0.198312,0.089198 0.198312,0.1983118 v 0.6613862 c 0,0.1091167 -0.089198,0.1983118 -0.198312,0.1983118 H 7.0779634 c -0.1091166,0 -0.1983118,-0.089197 -0.1983118,-0.1983118 V 3.8840151 c 0,-0.1091155 0.089197,-0.1983118 0.1983118,-0.1983118 z M 0.72938406,5.2727183 H 1.3907702 c 0.109116,0 0.1983119,0.089197 0.1983119,0.1983118 v 0.6613863 c 0,0.1091156 -0.089195,0.1983121 -0.1983119,0.1983121 H 0.72938406 c -0.10911622,0 -0.19831193,-0.089198 -0.19831193,-0.1983121 V 5.4710301 c 0,-0.1091164 0.0891954,-0.1983118 0.19831193,-0.1983118 z m 6.34857934,0 h 0.6613861 c 0.1091158,0 0.198312,0.089197 0.198312,0.1983118 v 0.6613863 c 0,0.1091156 -0.089198,0.1983121 -0.198312,0.1983121 H 7.0779634 c -0.1091166,0 -0.1983118,-0.089198 -0.1983118,-0.1983121 V 5.4710301 c 0,-0.1091164 0.089197,-0.1983118 0.1983118,-0.1983118 z"
     style="opacity:1;fill:#83d3f6;fill-opacity:1;stroke:none;stroke-width:0.86491024;stroke-linecap:round;stroke-linejoin:round;stroke-miterlimit:4;stroke-dasharray:none;stroke-dashoffset:10.3937006;stroke-opacity:1"
     inkscape:connector-curvature="0"
     sodipodi:nodetypes="sssscssssccsssscsssscssscccsssscssssssssssssssssssssssssssssssssssssssssssssssssssssssssssssssss" />
</svg>
