<?xml version="1.0" encoding="UTF-8" standalone="no"?>
<!-- Created with Inkscape (http://www.inkscape.org/) -->

<svg
   xmlns:dc="http://purl.org/dc/elements/1.1/"
   xmlns:cc="http://creativecommons.org/ns#"
   xmlns:rdf="http://www.w3.org/1999/02/22-rdf-syntax-ns#"
   xmlns:svg="http://www.w3.org/2000/svg"
   xmlns="http://www.w3.org/2000/svg"
   xmlns:sodipodi="http://sodipodi.sourceforge.net/DTD/sodipodi-0.dtd"
   xmlns:inkscape="http://www.inkscape.org/namespaces/inkscape"
   width="32"
   height="32"
   viewBox="0 0 8.4666666 8.4666666"
   version="1.1"
   id="svg8"
   inkscape:version="0.92.4 (5da689c313, 2019-01-14)"
   sodipodi:docname="set-bash-batch-command-file_sl.svg">
  <defs
     id="defs2">
    <style
       id="style1399">.cls-1{fill:#e3e3e3;}</style>
  </defs>
  <sodipodi:namedview
     id="base"
     pagecolor="#ffffff"
     bordercolor="#666666"
     borderopacity="1.0"
     inkscape:pageopacity="0.0"
     inkscape:pageshadow="2"
     inkscape:zoom="9.8469729"
     inkscape:cx="16.364037"
     inkscape:cy="15.836213"
     inkscape:document-units="mm"
     inkscape:current-layer="svg8"
     showgrid="false"
     units="px"
     inkscape:window-width="1843"
     inkscape:window-height="1146"
     inkscape:window-x="2473"
     inkscape:window-y="513"
     inkscape:window-maximized="0">
    <sodipodi:guide
       position="8.4666666,0"
       orientation="-32,0"
       id="guide854"
       inkscape:locked="false" />
    <sodipodi:guide
       position="8.4666666,8.4666666"
       orientation="0,-32"
       id="guide856"
       inkscape:locked="false" />
    <sodipodi:guide
       position="0,8.4666814"
       orientation="1,6.123234e-17"
       id="guide858"
       inkscape:locked="false" />
  </sodipodi:namedview>
  <metadata
     id="metadata5">
    <rdf:RDF>
      <cc:Work
         rdf:about="">
        <dc:format>image/svg+xml</dc:format>
        <dc:type
           rdf:resource="http://purl.org/dc/dcmitype/StillImage" />
        <dc:title></dc:title>
      </cc:Work>
    </rdf:RDF>
  </metadata>
  <path
     style="fill:#83d3f6;fill-opacity:1;stroke-width:0.06231719"
     d="M 5.3710938 0 C 4.5450788 0 3.875 0.67007917 3.875 1.4960938 L 3.875 30.410156 C 3.875 31.23617 4.5450788 31.90625 5.3710938 31.90625 L 26.308594 31.90625 C 27.134608 31.90625 27.804687 31.23617 27.804688 30.410156 L 27.804688 9.9707031 L 19.330078 9.9707031 C 18.507491 9.9707031 17.833984 9.2971963 17.833984 8.4746094 L 17.833984 0 L 5.3710938 0 z M 19.828125 0 L 19.828125 7.9765625 L 27.804688 7.9765625 L 27.804688 7.5996094 C 27.804667 7.2029491 27.647636 6.8215284 27.367188 6.5410156 L 21.263672 0.4375 C 20.983182 0.15707259 20.601729 0 20.205078 0 L 19.828125 0 z M 8.0175781 17.894531 C 8.1332377 17.891242 8.2495735 17.932951 8.3398438 18.017578 L 13.759766 23.101562 C 13.951588 23.27834 13.951588 23.582986 13.759766 23.759766 L 8.3398438 28.841797 C 8.1555415 29.011033 7.8704267 29.00266 7.7011719 28.818359 L 6.0644531 27.074219 C 5.8876922 26.889918 5.9038808 26.595036 6.0957031 26.425781 L 9.5019531 23.429688 L 6.0957031 20.427734 C 5.9038619 20.258479 5.8914339 19.965551 6.0644531 19.78125 L 7.7011719 18.035156 C 7.7876777 17.944897 7.9019208 17.897818 8.0175781 17.894531 z M 25.291016 25.808594 C 25.541063 25.806438 25.741973 26.011671 25.744141 26.261719 L 25.746094 28.650391 C 25.748261 28.900442 25.543015 29.101348 25.292969 29.103516 L 15.167969 29.107422 C 14.916871 29.105975 14.713399 28.907347 14.714844 28.65625 L 14.714844 26.265625 C 14.712676 26.015574 14.91597 25.81662 15.166016 25.814453 L 25.291016 25.808594 z "
     transform="scale(0.26458333)"
     id="path1026" />
</svg>
