<?xml version="1.0" encoding="UTF-8" standalone="no"?>
<!-- Created with Inkscape (http://www.inkscape.org/) -->

<svg
   xmlns:dc="http://purl.org/dc/elements/1.1/"
   xmlns:cc="http://creativecommons.org/ns#"
   xmlns:rdf="http://www.w3.org/1999/02/22-rdf-syntax-ns#"
   xmlns:svg="http://www.w3.org/2000/svg"
   xmlns="http://www.w3.org/2000/svg"
   xmlns:sodipodi="http://sodipodi.sourceforge.net/DTD/sodipodi-0.dtd"
   xmlns:inkscape="http://www.inkscape.org/namespaces/inkscape"
   width="32"
   height="32"
   viewBox="0 0 8.4666666 8.4666666"
   version="1.1"
   id="svg8"
   inkscape:version="0.92.5 (2060ec1f9f, 2020-04-08)"
   sodipodi:docname="set-video-range_sl.svg">
  <defs
     id="defs2">
    <style
       id="style1399">.cls-1{fill:#e3e3e3;}</style>
  </defs>
  <sodipodi:namedview
     id="base"
     pagecolor="#ffffff"
     bordercolor="#666666"
     borderopacity="1.0"
     inkscape:pageopacity="0.0"
     inkscape:pageshadow="2"
     inkscape:zoom="2"
     inkscape:cx="5.5411588"
     inkscape:cy="12.805108"
     inkscape:document-units="mm"
     inkscape:current-layer="svg8"
     showgrid="false"
     units="px"
     inkscape:window-width="3388"
     inkscape:window-height="1376"
     inkscape:window-x="1526"
     inkscape:window-y="507"
     inkscape:window-maximized="1"
     inkscape:snap-global="true"
     inkscape:snap-bbox="true"
     inkscape:snap-nodes="false"
     inkscape:bbox-paths="true"
     inkscape:bbox-nodes="true"
     inkscape:snap-bbox-edge-midpoints="true"
     inkscape:snap-bbox-midpoints="true">
    <sodipodi:guide
       position="8.4666666,0"
       orientation="-32,0"
       id="guide854"
       inkscape:locked="false" />
    <sodipodi:guide
       position="8.4666666,8.4666666"
       orientation="0,-32"
       id="guide856"
       inkscape:locked="false" />
    <sodipodi:guide
       position="0,8.4666814"
       orientation="32,0"
       id="guide858"
       inkscape:locked="false" />
  </sodipodi:namedview>
  <metadata
     id="metadata5">
    <rdf:RDF>
      <cc:Work
         rdf:about="">
        <dc:format>image/svg+xml</dc:format>
        <dc:type
           rdf:resource="http://purl.org/dc/dcmitype/StillImage" />
        <dc:title></dc:title>
      </cc:Work>
    </rdf:RDF>
  </metadata>
  <g
     aria-label="[]"
     style="font-style:normal;font-variant:normal;font-weight:bold;font-stretch:normal;font-size:9.2429285px;line-height:1.25;font-family:'Courier Prime Sans';-inkscape-font-specification:'Courier Prime Sans, Bold';font-variant-ligatures:normal;font-variant-caps:normal;font-variant-numeric:normal;font-feature-settings:normal;text-align:start;letter-spacing:0px;word-spacing:0px;writing-mode:lr-tb;text-anchor:start;fill:#83d3f6;fill-opacity:1;stroke:none;stroke-width:0.2310732"
     id="text821">
    <path
       d="m 2.5860343,7.0185585 q 0.1579602,0 0.2211443,0.1038024 0.063184,0.1083156 0.063184,0.4061834 0,0.2978678 -0.063184,0.4016702 -0.063184,0.1038024 -0.2211443,0.1038024 H 0.28432851 q -0.15344706,0 -0.22114429,-0.067697 Q 1.4249235e-7,7.9031356 1.4249235e-7,7.7496886 V 0.62342679 q 0,-0.15344705 0.0631840775076,-0.21663113 0.06769723,-0.0676972 0.22114429,-0.0676972 H 2.5860343 q 0.1579602,0 0.2211443,0.10831556 0.063184,0.10380242 0.063184,0.40167024 0,0.29786774 -0.063184,0.40167024 -0.063184,0.1038024 -0.2211443,0.1038024 h -1.457747 v 5.6640016 z"
       style="font-style:normal;font-variant:normal;font-weight:bold;font-stretch:normal;font-size:9.2429285px;font-family:'Courier Prime Sans';-inkscape-font-specification:'Courier Prime Sans, Bold';font-variant-ligatures:normal;font-variant-caps:normal;font-variant-numeric:normal;font-feature-settings:normal;text-align:start;writing-mode:lr-tb;text-anchor:start;fill:#83d3f6;stroke-width:0.2310732"
       id="path827"
       inkscape:connector-curvature="0" />
    <path
       d="m 8.1823388,0.33909843 q 0.1534471,0 0.2166311,0.0676972 0.067697,0.0631841 0.067697,0.21663113 V 7.7496886 q 0,0.153447 -0.067697,0.2166311 -0.063184,0.067697 -0.2166311,0.067697 H 5.880633 q -0.1579602,0 -0.2211443,-0.1038024 -0.063184,-0.1038024 -0.063184,-0.4016702 0,-0.2978678 0.063184,-0.4061834 Q 5.7226728,7.0185585 5.880633,7.0185585 H 7.33838 V 1.3545569 H 5.880633 q -0.1579602,0 -0.2211443,-0.1038024 -0.063184,-0.1038025 -0.063184,-0.40167027 0,-0.29786782 0.063184,-0.40167024 0.063184,-0.10831556 0.2211443,-0.10831556 z"
       style="font-style:normal;font-variant:normal;font-weight:bold;font-stretch:normal;font-size:9.2429285px;font-family:'Courier Prime Sans';-inkscape-font-specification:'Courier Prime Sans, Bold';font-variant-ligatures:normal;font-variant-caps:normal;font-variant-numeric:normal;font-feature-settings:normal;text-align:start;writing-mode:lr-tb;text-anchor:start;fill:#83d3f6;stroke-width:0.2310732"
       id="path829"
       inkscape:connector-curvature="0" />
  </g>
  <path
     style="fill:#83d3f6;fill-opacity:1;stroke-width:0.00862546"
     inkscape:connector-curvature="0"
     d="m 6.2344376,2.5304706 h -0.069004 v 0.1725091 c 0,0.056928 -0.046577,0.1035054 -0.1035054,0.1035054 h -0.345018 c -0.056928,0 -0.1035055,-0.046577 -0.1035055,-0.1035054 V 2.5304706 h -2.760145 v 0.1725091 c 0,0.056928 -0.046575,0.1035054 -0.1035052,0.1035054 H 2.4047359 c -0.056926,0 -0.1035045,-0.046577 -0.1035045,-0.1035054 V 2.5304706 h -0.069003 c -0.1147185,0 -0.2070104,0.092292 -0.2070104,0.2070108 v 2.8981522 c 0,0.1147187 0.092292,0.2070109 0.2070104,0.2070109 h 0.069003 V 5.6701357 c 0,-0.056928 0.046575,-0.1035054 0.1035045,-0.1035054 h 0.3450186 c 0.056926,0 0.1035052,0.046577 0.1035052,0.1035054 V 5.8426445 H 5.6134049 V 5.6701357 c 0,-0.056928 0.046577,-0.1035054 0.1035055,-0.1035054 h 0.345018 c 0.056928,0 0.1035054,0.046577 0.1035054,0.1035054 v 0.1725088 h 0.069004 c 0.1147182,0 0.2070109,-0.092292 0.2070109,-0.2070109 V 2.7374814 c 0,-0.1147185 -0.092293,-0.2070108 -0.2070111,-0.2070108 z M 2.8532597,5.1871103 c 0,0.056928 -0.046575,0.1035053 -0.1035052,0.1035053 H 2.4047359 c -0.056926,0 -0.1035045,-0.046577 -0.1035045,-0.1035053 V 4.842092 c 0,-0.056928 0.046575,-0.1035053 0.1035045,-0.1035053 h 0.3450186 c 0.056926,0 0.1035052,0.046577 0.1035052,0.1035053 z m 0,-0.8280436 c 0,0.056928 -0.046575,0.1035055 -0.1035052,0.1035055 H 2.4047359 c -0.056926,0 -0.1035045,-0.046577 -0.1035045,-0.1035055 V 4.0140486 c 0,-0.056928 0.046575,-0.1035054 0.1035045,-0.1035054 h 0.3450186 c 0.056926,0 0.1035052,0.046577 0.1035052,0.1035054 z m 0,-0.8280435 c 0,0.056928 -0.046575,0.1035054 -0.1035052,0.1035054 H 2.4047359 c -0.056926,0 -0.1035045,-0.046577 -0.1035045,-0.1035054 v -0.345018 c 0,-0.056928 0.046575,-0.1035055 0.1035045,-0.1035055 h 0.3450186 c 0.056926,0 0.1035052,0.046577 0.1035052,0.1035055 z m 2.3461234,1.7940942 c 0,0.056928 -0.046577,0.1035055 -0.1035054,0.1035055 H 3.3707873 c -0.056928,0 -0.103506,-0.046577 -0.103506,-0.1035055 V 4.4970741 c 0,-0.056928 0.046575,-0.1035055 0.103506,-0.1035055 h 1.7250904 c 0.056928,0 0.1035054,0.046577 0.1035054,0.1035055 z m 0,-1.449076 c 0,0.056928 -0.046577,0.1035054 -0.1035054,0.1035054 H 3.3707873 c -0.056928,0 -0.103506,-0.046577 -0.103506,-0.1035054 V 3.0479977 c 0,-0.056928 0.046575,-0.1035053 0.103506,-0.1035053 h 1.7250904 c 0.056928,0 0.1035054,0.046577 0.1035054,0.1035053 z m 0.9660507,1.3110689 c 0,0.056928 -0.046577,0.1035053 -0.1035054,0.1035053 h -0.345018 c -0.056928,0 -0.1035055,-0.046577 -0.1035055,-0.1035053 V 4.842092 c 0,-0.056928 0.046577,-0.1035053 0.1035055,-0.1035053 h 0.345018 c 0.056928,0 0.1035054,0.046577 0.1035054,0.1035053 z m 0,-0.8280436 c 0,0.056928 -0.046577,0.1035055 -0.1035054,0.1035055 h -0.345018 c -0.056928,0 -0.1035055,-0.046577 -0.1035055,-0.1035055 V 4.0140486 c 0,-0.056928 0.046577,-0.1035054 0.1035055,-0.1035054 h 0.345018 c 0.056928,0 0.1035054,0.046577 0.1035054,0.1035054 z m 0,-0.8280435 c 0,0.056928 -0.046577,0.1035054 -0.1035054,0.1035054 h -0.345018 c -0.056928,0 -0.1035055,-0.046577 -0.1035055,-0.1035054 v -0.345018 c 0,-0.056928 0.046577,-0.1035055 0.1035055,-0.1035055 h 0.345018 c 0.056928,0 0.1035054,0.046577 0.1035054,0.1035055 z"
     id="path1222" />
</svg>
