<?xml version="1.0" encoding="UTF-8" standalone="no"?>
<!-- Created with Inkscape (http://www.inkscape.org/) -->

<svg
   xmlns:dc="http://purl.org/dc/elements/1.1/"
   xmlns:cc="http://creativecommons.org/ns#"
   xmlns:rdf="http://www.w3.org/1999/02/22-rdf-syntax-ns#"
   xmlns:svg="http://www.w3.org/2000/svg"
   xmlns="http://www.w3.org/2000/svg"
   xmlns:sodipodi="http://sodipodi.sourceforge.net/DTD/sodipodi-0.dtd"
   xmlns:inkscape="http://www.inkscape.org/namespaces/inkscape"
   width="32"
   height="32"
   viewBox="0 0 8.4666666 8.4666666"
   version="1.1"
   id="svg8"
   inkscape:version="0.92.5 (2060ec1f9f, 2020-04-08)"
   sodipodi:docname="set-after-effects-thread-process_sl.svg">
  <defs
     id="defs2">
    <style
       id="style1399">.cls-1{fill:#e3e3e3;}</style>
    <style
       id="style1399-4">.cls-1{fill:#e3e3e3;}</style>
    <style
       id="style1399-5">.cls-1{fill:#e3e3e3;}</style>
    <style
       id="style1399-7">.cls-1{fill:#e3e3e3;}</style>
    <style
       id="style1399-85">.cls-1{fill:#e3e3e3;}</style>
    <style
       id="style1399-4-6">.cls-1{fill:#e3e3e3;}</style>
    <style
       id="style1399-8">.cls-1{fill:#e3e3e3;}</style>
    <style
       id="style1399-4-5">.cls-1{fill:#e3e3e3;}</style>
    <style
       id="style1399-44">.cls-1{fill:#e3e3e3;}</style>
    <style
       id="style1399-59">.cls-1{fill:#e3e3e3;}</style>
    <style
       id="style1399-41">.cls-1{fill:#e3e3e3;}</style>
    <style
       id="style1399-83">.cls-1{fill:#e3e3e3;}</style>
    <style
       id="style1399-4-1">.cls-1{fill:#e3e3e3;}</style>
    <style
       id="style1399-86">.cls-1{fill:#e3e3e3;}</style>
  </defs>
  <sodipodi:namedview
     id="base"
     pagecolor="#ffffff"
     bordercolor="#666666"
     borderopacity="1.0"
     inkscape:pageopacity="0.0"
     inkscape:pageshadow="2"
     inkscape:zoom="11.313709"
     inkscape:cx="14.41339"
     inkscape:cy="23.489258"
     inkscape:document-units="mm"
     inkscape:current-layer="svg8"
     showgrid="false"
     units="px"
     inkscape:window-width="1920"
     inkscape:window-height="1043"
     inkscape:window-x="0"
     inkscape:window-y="120"
     inkscape:window-maximized="1"
     inkscape:snap-global="true"
     inkscape:snap-bbox="true"
     inkscape:bbox-paths="true"
     inkscape:bbox-nodes="true"
     inkscape:snap-bbox-edge-midpoints="true"
     inkscape:snap-bbox-midpoints="true"
     inkscape:snap-nodes="false"
     inkscape:snap-others="false">
    <sodipodi:guide
       position="8.4666666,0"
       orientation="-32,0"
       id="guide854"
       inkscape:locked="false" />
    <sodipodi:guide
       position="0,8.4666666"
       orientation="0,-32"
       id="guide856"
       inkscape:locked="false" />
    <sodipodi:guide
       position="0,8.4666666"
       orientation="32,0"
       id="guide858"
       inkscape:locked="false" />
  </sodipodi:namedview>
  <metadata
     id="metadata5">
    <rdf:RDF>
      <cc:Work
         rdf:about="">
        <dc:format>image/svg+xml</dc:format>
        <dc:type
           rdf:resource="http://purl.org/dc/dcmitype/StillImage" />
        <dc:title></dc:title>
      </cc:Work>
    </rdf:RDF>
  </metadata>
  <path
     style="fill:#83d3f6;stroke-width:0.06250001"
     d="M 9 0 C 7.3431254 0 6 1.3431249 6 3 L 6 29 C 6 30.656874 7.3431254 32 9 32 L 23 32 C 24.656875 32 26 30.656874 26 29 L 26 3 C 26 1.3431249 24.656875 -2.9605947e-16 23 0 L 9 0 z M 12.306641 2.6992188 C 12.636373 2.6992197 12.879853 2.7383602 13.037109 2.8144531 C 13.199439 2.8905455 13.31296 3.0177646 13.378906 3.1953125 L 16.316406 11.162109 C 16.341782 11.21791 16.355469 11.283286 16.355469 11.359375 C 16.355469 11.486197 16.293621 11.59619 16.171875 11.6875 C 16.050128 11.77881 15.852058 11.855143 15.578125 11.916016 C 15.319413 11.976904 15.112337 12.005859 14.955078 12.005859 C 14.81304 12.005859 14.700306 11.980416 14.619141 11.929688 C 14.537975 11.878959 14.478081 11.799889 14.4375 11.693359 L 13.912109 10.226562 L 10.580078 10.226562 L 10.039062 11.693359 C 9.9984817 11.799889 9.9358469 11.878959 9.8496094 11.929688 C 9.768444 11.980401 9.6584507 12.005859 9.5214844 12.005859 C 9.3693006 12.005859 9.1649624 11.976889 8.90625 11.916016 C 8.6323178 11.855139 8.4342499 11.77881 8.3125 11.6875 C 8.195826 11.596187 8.1367188 11.488934 8.1367188 11.367188 C 8.1367187 11.306311 8.1511776 11.238199 8.1816406 11.162109 L 11.21875 3.1953125 C 11.289771 3.0126915 11.406032 2.8854716 11.568359 2.8144531 C 11.73069 2.7383622 11.976911 2.6992188 12.306641 2.6992188 z M 20.0625 4.7011719 C 20.833566 4.7011719 21.487673 4.8683197 22.025391 5.203125 C 22.563109 5.5328574 22.970211 5.9935921 23.244141 6.5820312 C 23.51807 7.1704772 23.654297 7.8472874 23.654297 8.6132812 C 23.654297 8.7857524 23.615152 8.9074945 23.539062 8.9785156 C 23.468045 9.0495367 23.346303 9.0839844 23.173828 9.0839844 L 18.289062 9.0839844 C 18.385445 9.4948818 18.580783 9.8064831 18.875 10.019531 C 19.169222 10.232591 19.539921 10.339844 19.986328 10.339844 C 20.874069 10.339844 21.777134 10.20088 22.695312 9.921875 C 22.756189 9.9016167 22.816084 9.890625 22.876953 9.890625 C 22.988555 9.890625 23.08485 9.9415149 23.166016 10.042969 C 23.247181 10.144424 23.322727 10.317051 23.388672 10.560547 C 23.439386 10.74824 23.462891 10.909125 23.462891 11.041016 C 23.462891 11.172914 23.431967 11.275473 23.371094 11.351562 C 23.315293 11.42258 23.223687 11.481687 23.091797 11.527344 C 22.574371 11.699821 22.033785 11.832519 21.470703 11.923828 C 20.912695 12.02021 20.366629 12.068359 19.833984 12.068359 C 19.093354 12.068359 18.456473 11.910217 17.923828 11.595703 C 17.396257 11.28119 16.993852 10.847858 16.714844 10.294922 C 16.440915 9.7369128 16.302734 9.1000314 16.302734 8.3847656 C 16.302734 7.6745727 16.452658 7.0404309 16.751953 6.4824219 C 17.056322 5.9244136 17.492392 5.4883415 18.060547 5.1738281 C 18.628701 4.8593159 19.296507 4.7011719 20.0625 4.7011719 z M 12.261719 5.3183594 L 11.179688 8.4375 L 13.341797 8.4375 L 12.291016 5.3183594 L 12.261719 5.3183594 z M 1.8476562 5.5 C 1.6512978 5.5143554 1.499476 5.6781181 1.5 5.875 L 1.5 6.25 L 0.375 6.25 C 0.16789322 6.25 -3.7007434e-17 6.4178932 0 6.625 L 0 7.375 C 0 7.5821068 0.16789322 7.75 0.375 7.75 L 1.5 7.75 L 1.5 8.125 C 1.5 8.3321068 1.6678932 8.5 1.875 8.5 L 4.5 8.5 L 4.5 5.5 L 1.875 5.5 C 1.86589 5.4996676 1.856768 5.4996676 1.8476562 5.5 z M 27.5 5.5 L 27.5 8.5 L 30.125 8.5 C 30.332107 8.5 30.5 8.3321068 30.5 8.125 L 30.5 7.75 L 31.625 7.75 C 31.832107 7.75 32 7.5821068 32 7.375 L 32 6.625 C 32 6.4178932 31.832107 6.25 31.625 6.25 L 30.5 6.25 L 30.5 5.875 C 30.5 5.6678932 30.332107 5.5 30.125 5.5 L 27.5 5.5 z M 20.0625 6.4296875 C 19.600875 6.4296871 19.221958 6.5287235 18.927734 6.7265625 C 18.633511 6.919329 18.429961 7.2090016 18.318359 7.5996094 L 21.712891 7.5996094 C 21.626653 7.2343679 21.43954 6.9482218 21.150391 6.7402344 C 20.86124 6.5322508 20.498761 6.4296875 20.0625 6.4296875 z M 1.8476562 11.5 C 1.6512978 11.514355 1.499476 11.678118 1.5 11.875 L 1.5 12.25 L 0.375 12.25 C 0.16789322 12.25 -3.7007434e-17 12.417893 0 12.625 L 0 13.375 C 0 13.582107 0.16789322 13.75 0.375 13.75 L 1.5 13.75 L 1.5 14.125 C 1.5 14.332107 1.6678932 14.5 1.875 14.5 L 4.5 14.5 L 4.5 11.5 L 1.875 11.5 C 1.86589 11.499668 1.856768 11.499668 1.8476562 11.5 z M 27.5 11.5 L 27.5 14.5 L 30.125 14.5 C 30.332107 14.5 30.5 14.332107 30.5 14.125 L 30.5 13.75 L 31.625 13.75 C 31.832107 13.75 32 13.582107 32 13.375 L 32 12.625 C 32 12.417893 31.832107 12.25 31.625 12.25 L 30.5 12.25 L 30.5 11.875 C 30.5 11.667893 30.332107 11.5 30.125 11.5 L 27.5 11.5 z M 13.939453 15.091797 L 15.242188 15.091797 C 15.481803 15.091797 15.663235 15.309057 15.621094 15.544922 L 15.152344 18.169922 L 18.314453 18.169922 L 18.808594 15.410156 C 18.840734 15.226848 18.999445 15.092807 19.185547 15.091797 L 20.490234 15.091797 C 20.729819 15.091797 20.911248 15.309057 20.869141 15.544922 L 20.398438 18.169922 L 22.798828 18.169922 C 23.038413 18.169922 23.219842 18.387182 23.177734 18.623047 L 22.947266 19.90625 C 22.914286 20.088783 22.755798 20.221817 22.570312 20.222656 L 20.033203 20.222656 L 19.300781 24.328125 L 21.699219 24.328125 C 21.938803 24.328125 22.120232 24.543432 22.078125 24.779297 L 21.849609 26.0625 C 21.817339 26.246532 21.657543 26.380793 21.470703 26.380859 L 18.933594 26.380859 L 18.439453 29.140625 C 18.407183 29.324657 18.247387 29.458918 18.060547 29.458984 L 16.757812 29.458984 C 16.518197 29.458984 16.336765 29.241724 16.378906 29.005859 L 16.847656 26.380859 L 13.685547 26.380859 L 13.191406 29.140625 C 13.159266 29.323933 13.000555 29.457974 12.814453 29.458984 L 11.509766 29.458984 C 11.270179 29.458984 11.088752 29.241724 11.130859 29.005859 L 11.601562 26.380859 L 9.2011719 26.380859 C 8.9615861 26.380859 8.7801579 26.163599 8.8222656 25.927734 L 9.0527344 24.644531 C 9.0857094 24.461998 9.2442023 24.328964 9.4296875 24.328125 L 11.966797 24.328125 L 12.699219 20.222656 L 10.300781 20.222656 C 10.061195 20.222656 9.8797673 20.007349 9.921875 19.771484 L 10.150391 18.488281 C 10.182661 18.304249 10.342457 18.169987 10.529297 18.169922 L 13.066406 18.169922 L 13.560547 15.410156 C 13.592817 15.226125 13.752614 15.091862 13.939453 15.091797 z M 1.8476562 17.5 C 1.6512978 17.514355 1.499476 17.678118 1.5 17.875 L 1.5 18.25 L 0.375 18.25 C 0.16789322 18.25 -3.7007434e-17 18.417893 0 18.625 L 0 19.375 C 0 19.582107 0.16789322 19.75 0.375 19.75 L 1.5 19.75 L 1.5 20.125 C 1.5 20.332107 1.6678932 20.5 1.875 20.5 L 4.5 20.5 L 4.5 17.5 L 1.875 17.5 C 1.86589 17.499668 1.856768 17.499668 1.8476562 17.5 z M 27.5 17.5 L 27.5 20.5 L 30.125 20.5 C 30.332107 20.5 30.5 20.332107 30.5 20.125 L 30.5 19.75 L 31.625 19.75 C 31.832107 19.75 32 19.582107 32 19.375 L 32 18.625 C 32 18.417893 31.832107 18.25 31.625 18.25 L 30.5 18.25 L 30.5 17.875 C 30.5 17.667893 30.332107 17.5 30.125 17.5 L 27.5 17.5 z M 14.785156 20.222656 L 14.052734 24.328125 L 17.214844 24.328125 L 17.947266 20.222656 L 14.785156 20.222656 z M 1.8476562 23.5 C 1.6512978 23.514355 1.499476 23.678118 1.5 23.875 L 1.5 24.25 L 0.375 24.25 C 0.16789322 24.25 -3.7007434e-17 24.417893 0 24.625 L 0 25.375 C 0 25.582107 0.16789322 25.75 0.375 25.75 L 1.5 25.75 L 1.5 26.125 C 1.5 26.332107 1.6678932 26.5 1.875 26.5 L 4.5 26.5 L 4.5 23.5 L 1.875 23.5 C 1.86589 23.499668 1.856768 23.499668 1.8476562 23.5 z M 27.5 23.5 L 27.5 26.5 L 30.125 26.5 C 30.332107 26.5 30.5 26.332107 30.5 26.125 L 30.5 25.75 L 31.625 25.75 C 31.832107 25.75 32 25.582107 32 25.375 L 32 24.625 C 32 24.417893 31.832107 24.25 31.625 24.25 L 30.5 24.25 L 30.5 23.875 C 30.5 23.667893 30.332107 23.5 30.125 23.5 L 27.5 23.5 z "
     transform="scale(0.26458333)"
     id="path1131" />
</svg>
