<?xml version="1.0" encoding="UTF-8" standalone="no"?>
<!-- Created with Inkscape (http://www.inkscape.org/) -->

<svg
   xmlns:dc="http://purl.org/dc/elements/1.1/"
   xmlns:cc="http://creativecommons.org/ns#"
   xmlns:rdf="http://www.w3.org/1999/02/22-rdf-syntax-ns#"
   xmlns:svg="http://www.w3.org/2000/svg"
   xmlns="http://www.w3.org/2000/svg"
   xmlns:sodipodi="http://sodipodi.sourceforge.net/DTD/sodipodi-0.dtd"
   xmlns:inkscape="http://www.inkscape.org/namespaces/inkscape"
   width="32"
   height="32"
   viewBox="0 0 8.4666666 8.4666666"
   version="1.1"
   id="svg8"
   inkscape:version="0.92.5 (2060ec1f9f, 2020-04-08)"
   sodipodi:docname="video-quality_sl.svg">
  <defs
     id="defs2">
    <style
       id="style1399">.cls-1{fill:#e3e3e3;}</style>
    <style
       id="style1399-4">.cls-1{fill:#e3e3e3;}</style>
    <style
       id="style1399-8">.cls-1{fill:#e3e3e3;}</style>
    <style
       id="style1399-4-5">.cls-1{fill:#e3e3e3;}</style>
    <style
       id="style1399-9">.cls-1{fill:#e3e3e3;}</style>
    <style
       id="style1399-4-6">.cls-1{fill:#e3e3e3;}</style>
    <style
       id="style1399-8-4">.cls-1{fill:#e3e3e3;}</style>
    <style
       id="style1399-4-5-3">.cls-1{fill:#e3e3e3;}</style>
    <style
       id="style1399-88">.cls-1{fill:#e3e3e3;}</style>
    <style
       id="style1399-3">.cls-1{fill:#e3e3e3;}</style>
  </defs>
  <sodipodi:namedview
     id="base"
     pagecolor="#ffffff"
     bordercolor="#666666"
     borderopacity="1.0"
     inkscape:pageopacity="0.0"
     inkscape:pageshadow="2"
     inkscape:zoom="4"
     inkscape:cx="-90.470455"
     inkscape:cy="48.043125"
     inkscape:document-units="mm"
     inkscape:current-layer="svg8"
     showgrid="false"
     units="px"
     inkscape:window-width="1848"
     inkscape:window-height="1136"
     inkscape:window-x="1920"
     inkscape:window-y="27"
     inkscape:window-maximized="1">
    <sodipodi:guide
       position="8.4666666,0"
       orientation="-32,0"
       id="guide854"
       inkscape:locked="false" />
    <sodipodi:guide
       position="8.5622298,8.4657622"
       orientation="0,-32"
       id="guide856"
       inkscape:locked="false" />
    <sodipodi:guide
       position="0,8.4666814"
       orientation="32,0"
       id="guide858"
       inkscape:locked="false" />
  </sodipodi:namedview>
  <metadata
     id="metadata5">
    <rdf:RDF>
      <cc:Work
         rdf:about="">
        <dc:format>image/svg+xml</dc:format>
        <dc:type
           rdf:resource="http://purl.org/dc/dcmitype/StillImage" />
        <dc:title></dc:title>
      </cc:Work>
    </rdf:RDF>
  </metadata>
  <path
     style="fill:#838383;fill-opacity:1;stroke-width:0.06219987"
     d="m 19.033203,8.0371094 0.492188,0.2832031 c 0.246593,0.1408778 0.440616,0.3582109 0.552734,0.6191406 l 0.828125,1.9199219 c 0.02287,0.05331 0.02956,0.10801 0.04687,0.162109 h 1.246094 c 0.410519,0 0.746093,0.337529 0.746093,0.748047 v 5.970703 c 0,0.410519 -0.335574,0.746094 -0.746093,0.746094 H 9.7578125 c -0.4105191,0 -0.7460937,-0.335575 -0.7460937,-0.746094 v -3.623046 c -0.3913053,0.117292 -0.785453,0.226077 -1.1796876,0.330078 l 0.015625,4.132812 c 0.00149,0.284265 -0.089706,0.561272 -0.2597656,0.789063 L 6.3339844,21.039062 C 6.0460004,21.480363 5.5974204,21.96875 5.2792969,21.96875 H 2.7929688 c -0.4105191,0 -0.7480469,-0.335574 -0.7480469,-0.746094 V 19.335938 C 1.8957248,19.117941 1.8160553,18.859866 1.8164062,18.595703 L 1.8085938,14.46875 C 1.2200578,14.312146 0.62826855,14.170108 0.0546875,13.935547 v 16.494141 c 0,0.827258 0.66688266,1.492187 1.4941406,1.492187 h 0.4960938 v -1.244141 c 0,-0.410518 0.3375274,-0.746093 0.7480469,-0.746093 h 2.4863281 c 0.4105187,0 0.7480469,0.335575 0.7480469,0.746093 v 1.244141 H 25.929688 v -1.244141 c 0,-0.410518 0.337527,-0.746093 0.748046,-0.746093 h 2.486328 c 0.410519,0 0.748047,0.335575 0.748047,0.746093 v 1.244141 h 0.496094 c 0.827256,0 1.494141,-0.664929 1.494141,-1.492187 V 9.5292969 c 0,-0.8272581 -0.666885,-1.4921875 -1.494141,-1.4921875 H 29.912109 V 9.28125 c 0,0.4105194 -0.337528,0.746094 -0.748047,0.746094 h -2.486328 c -0.410519,0 -0.748046,-0.3355742 -0.748046,-0.746094 V 8.0371094 Z m 7.644531,3.9804686 h 2.486328 c 0.410519,0 0.748047,0.335574 0.748047,0.746094 v 2.488281 c 0,0.41052 -0.337528,0.746094 -0.748047,0.746094 h -2.486328 c -0.410519,0 -0.748046,-0.335574 -0.748046,-0.746094 v -2.488281 c 0,-0.41052 0.337527,-0.746094 0.748046,-0.746094 z m 0,5.970703 h 2.486328 c 0.410519,0 0.748047,0.335575 0.748047,0.746094 v 2.488281 c 0,0.410519 -0.337528,0.746094 -0.748047,0.746094 h -2.486328 c -0.410519,0 -0.748046,-0.335574 -0.748046,-0.746094 v -2.488281 c 0,-0.410519 0.337527,-0.746094 0.748046,-0.746094 z M 9.7578125,21.472656 H 22.199219 c 0.410519,0 0.746093,0.335575 0.746093,0.746094 v 5.970703 c 0,0.41052 -0.335574,0.746094 -0.746093,0.746094 H 9.7578125 c -0.4105191,0 -0.7460937,-0.335574 -0.7460937,-0.746094 V 22.21875 c 0,-0.410519 0.3355739,-0.746094 0.7460937,-0.746094 z m -6.9648437,2.488282 h 2.4863281 c 0.4105187,0 0.7480469,0.335575 0.7480469,0.746093 v 2.488281 c 0,0.410519 -0.3375279,0.746094 -0.7480469,0.746094 H 2.7929688 c -0.4105191,0 -0.7480469,-0.335575 -0.7480469,-0.746094 v -2.488281 c 0,-0.410518 0.3375274,-0.746093 0.7480469,-0.746093 z m 23.8847652,0 h 2.486328 c 0.410519,0 0.748047,0.335575 0.748047,0.746093 v 2.488281 c 0,0.410519 -0.337528,0.746094 -0.748047,0.746094 h -2.486328 c -0.410519,0 -0.748046,-0.335575 -0.748046,-0.746094 v -2.488281 c 0,-0.410518 0.337527,-0.746093 0.748046,-0.746093 z"
     transform="scale(0.26458333)"
     id="path1222"
     inkscape:connector-curvature="0"
     sodipodi:nodetypes="cccccssssssccccccssccccsscssssccsssscsssscssssccsssssssssssssssssssssssssssssssssssssssssssss" />
  <path
     style="fill:#838383;fill-opacity:1;stroke-width:0.00941205"
     inkscape:connector-curvature="0"
     d="M 4.0972323,1.9859121 C 3.9892846,2.2697241 3.8443051,2.53715 3.6568387,2.7750327 L 4.5443681,3.2851084 5.0924129,3.2179315 C 5.1920695,3.2057202 5.2520575,3.1012909 5.2124713,3.0090268 L 4.9945587,2.5016217 Z M 3.9966437,1.0153855 C 3.9999947,0.92998832 3.9270812,0.85998992 3.8416545,0.86166262 l -0.3020621,0.005785 C 3.4590954,0.86898172 3.3974651,0.93399902 3.3935106,1.0144123 3.3588053,1.7257849 2.9661546,2.376233 2.3453485,2.7363003 2.1505175,2.8493021 1.9407457,2.9247262 1.7257853,2.9701931 l -0.00256,-1.2680622 c 0.00579,-0.00315 0.011897,-0.00462 0.017597,-0.00793 0.0057,-0.00331 0.010096,-0.00794 0.01562,-0.011337 l 0.833875,0.4792858 C 2.8022729,1.9417253 2.9536425,1.6712469 3.0318962,1.3737567 L 2.1866088,0.88792542 C 2.182901,0.74177282 2.1477126,0.59462172 2.0691827,0.45922519 1.818812,0.02755127 1.265921,-0.11941978 0.83424696,0.13095092 c -0.4316733,0.2503703 -0.5786443,0.8032609 -0.3282736,1.23493478 0.07853,0.1353966 0.1887853,0.2390094 0.3137234,0.3148479 l 0.0026,1.2857715 C 0.66529756,2.9312441 0.51110706,2.8794438 0.36392296,2.8080214 0.29139716,2.7728347 0.20475528,2.795668 0.16468348,2.8655866 L 0.0146365,3.1274646 C -0.02783685,3.201498 -0.00154937,3.2989729 0.07482468,3.3370422 0.31322386,3.455988 0.56602896,3.5331745 0.82346846,3.5776433 l 0.00266,1.341774 0.33222264,0.4411052 c 0.060431,0.080175 0.1808615,0.079961 0.2409456,-4.774e-4 L 1.7297428,4.9176983 1.7270942,3.5849488 C 2.0469757,3.5325962 2.3595169,3.4244396 2.6475706,3.2573686 3.4540072,2.7896358 3.9607821,1.9406882 3.9966437,1.0153855 Z M 1.1364689,0.65201972 C 1.2803336,0.56857827 1.4646728,0.61758002 1.5481142,0.76144462 1.6315553,0.90530872 1.5825537,1.0896483 1.4386892,1.1730896 1.2948255,1.2565305 1.1104858,1.2075289 1.0270446,1.0636647 0.94360336,0.91980042 0.99260486,0.73546082 1.1364689,0.65201972 Z"
     id="path5209" />
</svg>
