<?xml version="1.0" encoding="UTF-8" standalone="no"?>
<!-- Created with Inkscape (http://www.inkscape.org/) -->

<svg
   xmlns:dc="http://purl.org/dc/elements/1.1/"
   xmlns:cc="http://creativecommons.org/ns#"
   xmlns:rdf="http://www.w3.org/1999/02/22-rdf-syntax-ns#"
   xmlns:svg="http://www.w3.org/2000/svg"
   xmlns="http://www.w3.org/2000/svg"
   xmlns:sodipodi="http://sodipodi.sourceforge.net/DTD/sodipodi-0.dtd"
   xmlns:inkscape="http://www.inkscape.org/namespaces/inkscape"
   width="32"
   height="32"
   viewBox="0 0 8.4666666 8.4666666"
   version="1.1"
   id="svg8"
   inkscape:version="0.92.5 (2060ec1f9f, 2020-04-08)"
   sodipodi:docname="video-framerate_sl.svg">
  <defs
     id="defs2">
    <style
       id="style1399">.cls-1{fill:#e3e3e3;}</style>
    <style
       id="style1399-4">.cls-1{fill:#e3e3e3;}</style>
    <style
       id="style1399-8">.cls-1{fill:#e3e3e3;}</style>
    <style
       id="style1399-4-5">.cls-1{fill:#e3e3e3;}</style>
    <style
       id="style1399-9">.cls-1{fill:#e3e3e3;}</style>
    <style
       id="style1399-4-6">.cls-1{fill:#e3e3e3;}</style>
    <style
       id="style1399-8-4">.cls-1{fill:#e3e3e3;}</style>
    <style
       id="style1399-4-5-3">.cls-1{fill:#e3e3e3;}</style>
    <style
       id="style1399-88">.cls-1{fill:#e3e3e3;}</style>
  </defs>
  <sodipodi:namedview
     id="base"
     pagecolor="#ffffff"
     bordercolor="#666666"
     borderopacity="1.0"
     inkscape:pageopacity="0.0"
     inkscape:pageshadow="2"
     inkscape:zoom="11.313709"
     inkscape:cx="-13.06042"
     inkscape:cy="15.013764"
     inkscape:document-units="mm"
     inkscape:current-layer="svg8"
     showgrid="false"
     units="px"
     inkscape:window-width="1848"
     inkscape:window-height="1136"
     inkscape:window-x="1920"
     inkscape:window-y="27"
     inkscape:window-maximized="1">
    <sodipodi:guide
       position="8.4666666,0"
       orientation="-32,0"
       id="guide854"
       inkscape:locked="false" />
    <sodipodi:guide
       position="8.5622298,8.4657622"
       orientation="0,-32"
       id="guide856"
       inkscape:locked="false" />
    <sodipodi:guide
       position="0,8.4666814"
       orientation="32,0"
       id="guide858"
       inkscape:locked="false" />
  </sodipodi:namedview>
  <metadata
     id="metadata5">
    <rdf:RDF>
      <cc:Work
         rdf:about="">
        <dc:format>image/svg+xml</dc:format>
        <dc:type
           rdf:resource="http://purl.org/dc/dcmitype/StillImage" />
        <dc:title></dc:title>
      </cc:Work>
    </rdf:RDF>
  </metadata>
  <path
     style="fill:#838383;fill-opacity:1;stroke-width:0.06231285"
     d="M 10.447266 0.05859375 C 9.6192293 0.058594884 8.9472656 0.73055936 8.9472656 1.5585938 L 8.9472656 2.3417969 C 9.3950618 2.0918095 9.9061987 1.949218 10.447266 1.9492188 L 21.445312 1.9492188 C 21.986383 1.9492188 22.497516 2.0918159 22.945312 2.3417969 L 22.945312 1.5585938 C 22.945312 0.73055973 22.273347 0.058594884 21.445312 0.05859375 L 10.447266 0.05859375 z M 10.447266 4.7109375 C 9.6192289 4.7109375 8.947266 5.38095 8.9472656 6.2089844 L 8.9472656 7.0214844 C 9.3950622 6.7714951 9.9061986 6.6269531 10.447266 6.6269531 L 21.445312 6.6269531 C 21.986383 6.6269531 22.497517 6.7715 22.945312 7.0214844 L 22.945312 6.2089844 C 22.945312 5.3809511 22.273347 4.7109375 21.445312 4.7109375 L 10.447266 4.7109375 z M 10.447266 9.4960938 C 9.6192285 9.4960947 8.9472656 10.168059 8.9472656 10.996094 L 8.9472656 11.779297 C 9.3950618 11.529309 9.9061979 11.386718 10.447266 11.386719 L 21.445312 11.386719 C 21.986383 11.386719 22.497518 11.529316 22.945312 11.779297 L 22.945312 10.996094 C 22.945312 10.16806 22.273347 9.4960947 21.445312 9.4960938 L 10.447266 9.4960938 z M 1.4960938 13.875 C 0.66733327 13.875 0.001953125 14.54038 0.001953125 15.369141 L 0.001953125 30.472656 C 0.001953125 31.301419 0.66733327 31.96875 1.4960938 31.96875 L 1.9960938 31.96875 L 1.9960938 30.722656 C 1.9960938 30.311395 2.3328762 29.974609 2.7441406 29.974609 L 5.2363281 29.974609 C 5.6475917 29.974609 5.984375 30.311404 5.984375 30.722656 L 5.984375 31.96875 L 25.923828 31.96875 L 25.923828 30.722656 C 25.923828 30.311395 26.26061 29.974609 26.671875 29.974609 L 29.164062 29.974609 C 29.575327 29.974609 29.912109 30.311404 29.912109 30.722656 L 29.912109 31.96875 L 30.410156 31.96875 C 31.238914 31.96875 31.90625 31.301419 31.90625 30.472656 L 31.90625 15.369141 C 31.90625 14.54038 31.238914 13.875 30.410156 13.875 L 29.880859 13.875 L 29.880859 15.183594 C 29.880859 15.58611 29.556814 15.910157 29.154297 15.910156 L 26.615234 15.910156 C 26.21272 15.910156 25.888672 15.58611 25.888672 15.183594 L 25.888672 13.875 L 5.96875 13.875 L 5.96875 15.183594 C 5.96875 15.58611 5.6447011 15.910156 5.2421875 15.910156 L 2.703125 15.910156 C 2.3006094 15.910156 1.9765625 15.58611 1.9765625 15.183594 L 1.9765625 13.875 L 1.4960938 13.875 z M 9.7226562 16.865234 L 22.185547 16.865234 C 22.59681 16.865234 22.933594 17.202016 22.933594 17.613281 L 22.933594 28.230469 C 22.933594 28.641737 22.596808 28.978516 22.185547 28.978516 L 9.7226562 28.978516 C 9.3113932 28.978516 8.9746094 28.641734 8.9746094 28.230469 L 8.9746094 17.613281 C 8.9746094 17.202017 9.3113955 16.865234 9.7226562 16.865234 z M 2.7441406 17.861328 L 5.2363281 17.861328 C 5.6475917 17.861328 5.984375 18.19811 5.984375 18.609375 L 5.984375 21.101562 C 5.984375 21.512831 5.6475891 21.849609 5.2363281 21.849609 L 2.7441406 21.849609 C 2.3328773 21.849609 1.9960937 21.51282 1.9960938 21.101562 L 1.9960938 18.609375 C 1.9960938 18.198112 2.3328762 17.861328 2.7441406 17.861328 z M 26.671875 17.861328 L 29.164062 17.861328 C 29.575327 17.861328 29.912109 18.19811 29.912109 18.609375 L 29.912109 21.101562 C 29.912109 21.512831 29.575327 21.849609 29.164062 21.849609 L 26.671875 21.849609 C 26.260612 21.849609 25.923828 21.51282 25.923828 21.101562 L 25.923828 18.609375 C 25.923828 18.198112 26.26061 17.861328 26.671875 17.861328 z M 2.7441406 23.84375 L 5.2363281 23.84375 C 5.6475917 23.84375 5.984375 24.180536 5.984375 24.591797 L 5.984375 27.083984 C 5.984375 27.495248 5.6475891 27.83203 5.2363281 27.832031 L 2.7441406 27.832031 C 2.3328773 27.832031 1.9960937 27.495242 1.9960938 27.083984 L 1.9960938 24.591797 C 1.9960938 24.180534 2.3328762 23.84375 2.7441406 23.84375 z M 26.671875 23.84375 L 29.164062 23.84375 C 29.575327 23.84375 29.912109 24.180536 29.912109 24.591797 L 29.912109 27.083984 C 29.912109 27.495248 29.575327 27.83203 29.164062 27.832031 L 26.671875 27.832031 C 26.260612 27.832031 25.923828 27.495242 25.923828 27.083984 L 25.923828 24.591797 C 25.923828 24.180534 26.26061 23.84375 26.671875 23.84375 z "
     transform="scale(0.26458333)"
     id="path1222" />
</svg>
