<?xml version="1.0" encoding="UTF-8" standalone="no"?>
<!-- Created with Inkscape (http://www.inkscape.org/) -->

<svg
   xmlns:dc="http://purl.org/dc/elements/1.1/"
   xmlns:cc="http://creativecommons.org/ns#"
   xmlns:rdf="http://www.w3.org/1999/02/22-rdf-syntax-ns#"
   xmlns:svg="http://www.w3.org/2000/svg"
   xmlns="http://www.w3.org/2000/svg"
   xmlns:sodipodi="http://sodipodi.sourceforge.net/DTD/sodipodi-0.dtd"
   xmlns:inkscape="http://www.inkscape.org/namespaces/inkscape"
   width="32"
   height="32"
   viewBox="0 0 8.4666666 8.4666666"
   version="1.1"
   id="svg8"
   inkscape:version="0.92.5 (2060ec1f9f, 2020-04-08)"
   sodipodi:docname="video-codec_sl.svg">
  <defs
     id="defs2">
    <style
       id="style1399">.cls-1{fill:#e3e3e3;}</style>
    <style
       id="style1399-4">.cls-1{fill:#e3e3e3;}</style>
    <style
       id="style1399-8">.cls-1{fill:#e3e3e3;}</style>
    <style
       id="style1399-4-5">.cls-1{fill:#e3e3e3;}</style>
  </defs>
  <sodipodi:namedview
     id="base"
     pagecolor="#ffffff"
     bordercolor="#666666"
     borderopacity="1.0"
     inkscape:pageopacity="0.0"
     inkscape:pageshadow="2"
     inkscape:zoom="16"
     inkscape:cx="-5.2231649"
     inkscape:cy="20.906969"
     inkscape:document-units="mm"
     inkscape:current-layer="svg8"
     showgrid="false"
     units="px"
     inkscape:window-width="1848"
     inkscape:window-height="1136"
     inkscape:window-x="1920"
     inkscape:window-y="27"
     inkscape:window-maximized="1">
    <sodipodi:guide
       position="8.4666666,0"
       orientation="-32,0"
       id="guide854"
       inkscape:locked="false" />
    <sodipodi:guide
       position="9.9390855,8.4423761"
       orientation="0,-32"
       id="guide856"
       inkscape:locked="false" />
    <sodipodi:guide
       position="0,8.4666814"
       orientation="32,0"
       id="guide858"
       inkscape:locked="false" />
  </sodipodi:namedview>
  <metadata
     id="metadata5">
    <rdf:RDF>
      <cc:Work
         rdf:about="">
        <dc:format>image/svg+xml</dc:format>
        <dc:type
           rdf:resource="http://purl.org/dc/dcmitype/StillImage" />
        <dc:title></dc:title>
      </cc:Work>
    </rdf:RDF>
  </metadata>
  <path
     sodipodi:nodetypes="sssscssssccsssscsssscssscccsssscssssssssssssssssssssssssscssccccscccsccccccccsscccccccccccscccccccsssssssssssssssscsssssssssssssssssssssssssscsss"
     inkscape:connector-curvature="0"
     id="rect819"
     d="m 0.39868373,1.2061281 c -0.2188786,0 -0.394808,0.1759289 -0.394808,0.3948079 v 5.5293782 c 0,0.218879 0.1759294,0.3948078 0.394808,0.3948078 h 0.1317749 V 7.1964601 c 0,-0.108617 0.088787,-0.1979208 0.19740389,-0.1979208 H 1.3862203 c 0.1086164,0 0.1974039,0.089306 0.1974039,0.1979208 V 7.525122 H 6.8499695 V 7.1964601 c 0,-0.108617 0.088789,-0.1979208 0.1974038,-0.1979208 H 7.705731 c 0.1086162,0 0.197404,0.089306 0.197404,0.1979208 V 7.525122 h 0.1317749 c 0.2188782,0 0.3948081,-0.1759288 0.3948081,-0.3948078 V 1.600936 c 0,-0.218879 -0.1759299,-0.394808 -0.3948081,-0.3948079 H 7.903135 v 0.328662 c 0,0.1086171 -0.08879,0.1979208 -0.197404,0.1979208 H 7.0473733 c -0.108617,0 -0.197404,-0.089306 -0.1974038,-0.1979208 V 1.2061281 H 1.5836242 v 0.328662 c 0,0.1086171 -0.088787,0.1979208 -0.1974039,0.1979208 H 0.72786253 c -0.1086166,0 -0.1974039,-0.089306 -0.1974039,-0.1979208 V 1.2061281 Z M 2.5711609,1.9957439 h 3.291272 c 0.1086165,0 0.1974038,0.088789 0.1974038,0.197404 v 4.3449545 c 0,0.1086165 -0.088787,0.1974038 -0.1974038,0.1974038 h -3.291272 c -0.1086166,0 -0.197404,-0.088789 -0.197404,-0.1974038 V 2.1931479 c 0,-0.108617 0.088787,-0.197404 0.197404,-0.197404 z M 0.72786253,2.2592937 H 1.3862203 c 0.1086164,0 0.1974039,0.088789 0.1974039,0.197404 v 0.6583579 c 0,0.1086165 -0.088787,0.1974037 -0.1974039,0.1974037 H 0.72786253 c -0.1086166,0 -0.1974039,-0.088789 -0.1974039,-0.1974037 V 2.4566977 c 0,-0.108617 0.088787,-0.197404 0.1974039,-0.197404 z m 6.31951077,0 H 7.705731 c 0.1086162,0 0.197404,0.088789 0.197404,0.197404 v 0.6583579 c 0,0.1086165 -0.08879,0.1974037 -0.197404,0.1974037 H 7.0473733 c -0.108617,0 -0.197404,-0.088789 -0.1974038,-0.1974037 V 2.4566977 c 0,-0.108617 0.088789,-0.197404 0.1974038,-0.197404 z M 4.7277189,2.7233372 c -0.2113667,0 -0.3912352,0.038361 -0.5391918,0.1147785 C 4.0421961,2.9145334 3.9226323,3.0242458 3.8299556,3.1673251 3.7389043,3.3104035 3.6729238,3.483858 3.63065,3.688722 3.590001,3.8919595 3.569257,4.1198856 3.569257,4.3702743 c 0,0.2536407 0.016417,0.4808308 0.048937,0.6824427 0.034144,0.1999859 0.092361,0.3700024 0.1752814,0.5098299 0.082921,0.1382022 0.1948735,0.2446311 0.3363277,0.3194222 0.1414532,0.073165 0.3202771,0.1094396 0.5365229,0.1094396 0.2129925,0 0.3928607,-0.038362 0.539192,-0.1147784 C 5.3534754,5.8002131 5.4730387,5.6913902 5.5640893,5.5483107 5.6567667,5.4052315 5.7236362,5.231042 5.7642841,5.0278039 5.8049334,4.8245663 5.8256775,4.597376 5.8256775,4.3453612 5.8256764,4.0917207 5.8083605,3.8646847 5.7758512,3.6646983 5.7433339,3.4630856 5.6861593,3.2930701 5.6032386,3.1548687 5.5203176,3.0150412 5.4073202,2.9086118 5.2642417,2.8354463 5.1227881,2.7606548 4.9439641,2.7233376 4.7277189,2.7233372 Z M 4.7001369,3.2313876 H 4.70101 c 0.055276,0 0.1057312,0.00673 0.1512583,0.021354 0.045519,0.014634 0.086126,0.039859 0.1218965,0.075629 0.035766,0.034145 0.065473,0.08027 0.089866,0.138802 0.026017,0.058532 0.047809,0.1298839 0.064062,0.2144313 0.017888,0.084546 0.030138,0.185298 0.038259,0.300737 0.00809,0.1138132 0.012457,0.2454683 0.012457,0.3950515 -1.1e-6,0.1235684 -0.00325,0.2365648 -0.00979,0.3389966 -0.00487,0.1024327 -0.015766,0.1936396 -0.03203,0.2749346 -0.014637,0.081294 -0.034335,0.1535364 -0.058724,0.2153211 -0.024389,0.061785 -0.055136,0.1123916 -0.092535,0.1530382 -0.035774,0.040649 -0.077571,0.072287 -0.1263454,0.093424 -0.048778,0.019505 -0.1047536,0.029361 -0.1681639,0.029361 -0.084548,0 -0.1569431,-0.017462 -0.2171001,-0.051606 C 4.4139569,5.3950929 4.3645515,5.3337471 4.3255313,5.2475731 4.2881396,5.1597738 4.260666,5.0424504 4.2427839,4.8961194 4.2248954,4.7481626 4.2152003,4.5626174 4.2152003,4.3382428 c 0,-0.1837269 0.00764,-0.3449357 0.022244,-0.4831373 0.014636,-0.1382017 0.039856,-0.2534386 0.075629,-0.3461145 0.037392,-0.092676 0.086805,-0.1617876 0.1485892,-0.2073132 0.063424,-0.047151 0.1433361,-0.082623 0.2384673,-0.070291 z M 0.72786253,3.8390423 H 1.3862203 c 0.1086164,0 0.1974039,0.08879 0.1974039,0.1974038 V 4.694804 c 0,0.1086171 -0.088787,0.1974038 -0.1974039,0.1974038 H 0.72786253 c -0.1086166,0 -0.1974039,-0.088789 -0.1974039,-0.1974038 V 4.0364461 c 0,-0.1086159 0.088787,-0.1974038 0.1974039,-0.1974038 z m 6.31951077,0 H 7.705731 c 0.1086162,0 0.197404,0.08879 0.197404,0.1974038 V 4.694804 c 0,0.1086171 -0.08879,0.1974038 -0.197404,0.1974038 H 7.0473733 c -0.108617,0 -0.197404,-0.088789 -0.1974038,-0.1974038 V 4.0364461 c 0,-0.1086159 0.088789,-0.1974038 0.1974038,-0.1974038 z M 2.828604,2.7586987 c -0.088489,0 -0.160156,0.071667 -0.160156,0.1601562 v 2.8454376 c 0,0.088489 0.071665,0.1592667 0.160156,0.1592667 h 0.2998473 c 0.088489,0 0.1592664,-0.070777 0.1592664,-0.1592667 V 2.9188549 c 0,-0.088489 -0.070777,-0.1601562 -0.1592664,-0.1601562 z M 0.72786253,5.4187908 H 1.3862203 c 0.1086164,0 0.1974039,0.088789 0.1974039,0.1974038 v 0.6583579 c 0,0.108616 -0.088787,0.1974041 -0.1974039,0.1974041 H 0.72786253 c -0.1086166,0 -0.1974039,-0.08879 -0.1974039,-0.1974041 V 5.6161946 c 0,-0.1086165 0.088787,-0.1974038 0.1974039,-0.1974038 z m 6.31951077,0 H 7.705731 c 0.1086162,0 0.197404,0.088789 0.197404,0.1974038 v 0.6583579 c 0,0.108616 -0.08879,0.1974041 -0.197404,0.1974041 H 7.0473733 c -0.108617,0 -0.197404,-0.08879 -0.1974038,-0.1974041 V 5.6161946 c 0,-0.1086165 0.088789,-0.1974038 0.1974038,-0.1974038 z"
     style="opacity:1;fill:#838383;fill-opacity:1;stroke:none;stroke-width:0.86095005;stroke-linecap:round;stroke-linejoin:round;stroke-miterlimit:4;stroke-dasharray:none;stroke-dashoffset:10.3937006;stroke-opacity:1" />
</svg>
