<?xml version="1.0" encoding="UTF-8" standalone="no"?>
<!-- Created with Inkscape (http://www.inkscape.org/) -->

<svg
   xmlns:dc="http://purl.org/dc/elements/1.1/"
   xmlns:cc="http://creativecommons.org/ns#"
   xmlns:rdf="http://www.w3.org/1999/02/22-rdf-syntax-ns#"
   xmlns:svg="http://www.w3.org/2000/svg"
   xmlns="http://www.w3.org/2000/svg"
   xmlns:sodipodi="http://sodipodi.sourceforge.net/DTD/sodipodi-0.dtd"
   xmlns:inkscape="http://www.inkscape.org/namespaces/inkscape"
   width="32"
   height="32"
   viewBox="0 0 8.4666666 8.4666666"
   version="1.1"
   id="svg8"
   inkscape:version="0.92.5 (2060ec1f9f, 2020-04-08)"
   sodipodi:docname="bug-report.svg">
  <defs
     id="defs2">
    <style
       id="style1399">.cls-1{fill:#e3e3e3;}</style>
    <style
       id="style1399-1">.cls-1{fill:#e3e3e3;}</style>
    <style
       id="style1399-5">.cls-1{fill:#e3e3e3;}</style>
    <style
       id="style1399-8">.cls-1{fill:#e3e3e3;}</style>
    <style
       id="style1399-7">.cls-1{fill:#e3e3e3;}</style>
    <style
       id="style1399-1-5">.cls-1{fill:#e3e3e3;}</style>
    <style
       id="style1399-5-6">.cls-1{fill:#e3e3e3;}</style>
    <style
       id="style1399-8-9">.cls-1{fill:#e3e3e3;}</style>
  </defs>
  <sodipodi:namedview
     id="base"
     pagecolor="#ffffff"
     bordercolor="#666666"
     borderopacity="1.0"
     inkscape:pageopacity="0.0"
     inkscape:pageshadow="2"
     inkscape:zoom="15.999999"
     inkscape:cx="-5.9630218"
     inkscape:cy="22.213504"
     inkscape:document-units="mm"
     inkscape:current-layer="svg8"
     showgrid="false"
     units="px"
     inkscape:window-width="3368"
     inkscape:window-height="1376"
     inkscape:window-x="783"
     inkscape:window-y="27"
     inkscape:window-maximized="1">
    <sodipodi:guide
       position="8.4666666,0"
       orientation="-32,0"
       id="guide854"
       inkscape:locked="false" />
    <sodipodi:guide
       position="8.4666666,8.4666666"
       orientation="0,-32"
       id="guide856"
       inkscape:locked="false" />
    <sodipodi:guide
       position="0,8.4666814"
       orientation="1,6.123234e-17"
       id="guide858"
       inkscape:locked="false" />
  </sodipodi:namedview>
  <metadata
     id="metadata5">
    <rdf:RDF>
      <cc:Work
         rdf:about="">
        <dc:format>image/svg+xml</dc:format>
        <dc:type
           rdf:resource="http://purl.org/dc/dcmitype/StillImage" />
        <dc:title />
      </cc:Work>
    </rdf:RDF>
  </metadata>
  <path
     style="fill:#e3e3e3;fill-opacity:1;stroke-width:0.0286748"
     d="M 4.2423285,0 C 5.2634089,0 6.0916408,0.82823943 6.0916408,1.849312 H 2.3939182 C 2.3939182,0.82823943 3.2212485,0 4.2423285,0 Z M 1.0567512,1.5851246 c 0.135187,0 0.270134,0.05104 0.3732888,0.1541845 L 2.3317037,2.6409728 H 6.1204941 L 7.0221577,1.7393091 c 0.2063099,-0.2062869 0.5402684,-0.2062869 0.7465772,0 0.2062767,0.2062977 0.2062767,0.5411815 0,0.7474791 L 6.9996161,3.2559075 v 0.9701898 h 0.9242053 c 0.2966698,0 0.5365625,0.2442701 0.5283747,0.5428018 -0.00787,0.2877162 -0.2513722,0.5139481 -0.539195,0.5139481 h -0.913385 v 0.2641872 c 0,0.3609165 -0.080603,0.702561 -0.2245142,1.0089617 l 0.993633,0.994535 c 0.2062767,0.2062974 0.2062767,0.5402798 0,0.7465777 -0.2063099,0.2062868 -0.5402844,0.2062784 -0.7465772,0 L 6.1186909,7.3936415 C 5.7101332,7.7249884 5.188974,7.92382 4.621929,7.92382 H 3.8302683 c -0.5670446,0 -1.0882042,-0.1988316 -1.4967614,-0.5301785 L 1.43004,8.2971088 c -0.20631,0.2062868 -0.54028491,0.2062784 -0.74657761,0 -0.20627655,-0.2062974 -0.20627655,-0.5402798 0,-0.7465777 L 1.6770958,6.5559961 C 1.5331846,6.2495954 1.4525816,5.9079509 1.4525816,5.5470344 V 5.2828472 H 0.5391963 C 0.25137355,5.2828472 0.0078919,5.0566153 1.4385283e-6,4.7688991 -0.00820765,4.4703674 0.23170559,4.2260973 0.5283763,4.2260973 H 1.4525816 V 3.2559075 L 0.68346239,2.4867882 c -0.20627655,-0.2062973 -0.20627655,-0.5411913 0,-0.7474791 C 0.78661719,1.6361656 0.9215641,1.5851246 1.0567512,1.5851246 Z"
     id="path1110"
     inkscape:connector-curvature="0"
     sodipodi:nodetypes="sccssccccccccscscscccccsscccccscscsccccs" />
</svg>
