<?xml version="1.0" encoding="UTF-8" standalone="no"?>
<!-- Created with Inkscape (http://www.inkscape.org/) -->

<svg
   xmlns:dc="http://purl.org/dc/elements/1.1/"
   xmlns:cc="http://creativecommons.org/ns#"
   xmlns:rdf="http://www.w3.org/1999/02/22-rdf-syntax-ns#"
   xmlns:svg="http://www.w3.org/2000/svg"
   xmlns="http://www.w3.org/2000/svg"
   xmlns:sodipodi="http://sodipodi.sourceforge.net/DTD/sodipodi-0.dtd"
   xmlns:inkscape="http://www.inkscape.org/namespaces/inkscape"
   width="32"
   height="32"
   viewBox="0 0 8.4666666 8.4666666"
   version="1.1"
   id="svg8"
   inkscape:version="0.92.5 (2060ec1f9f, 2020-04-08)"
   sodipodi:docname="color.svg">
  <defs
     id="defs2">
    <style
       id="style1399">.cls-1{fill:#e3e3e3;}</style>
    <style
       id="style1399-4">.cls-1{fill:#e3e3e3;}</style>
    <style
       id="style1399-8">.cls-1{fill:#e3e3e3;}</style>
    <style
       id="style1399-4-5">.cls-1{fill:#e3e3e3;}</style>
    <style
       id="style1399-9">.cls-1{fill:#e3e3e3;}</style>
    <style
       id="style1399-4-6">.cls-1{fill:#e3e3e3;}</style>
    <style
       id="style1399-8-4">.cls-1{fill:#e3e3e3;}</style>
    <style
       id="style1399-4-5-3">.cls-1{fill:#e3e3e3;}</style>
    <style
       id="style1399-88">.cls-1{fill:#e3e3e3;}</style>
    <style
       id="style1399-3">.cls-1{fill:#e3e3e3;}</style>
    <style
       id="style1399-94">.cls-1{fill:#e3e3e3;}</style>
    <style
       id="style1399-5">.cls-1{fill:#e3e3e3;}</style>
  </defs>
  <sodipodi:namedview
     id="base"
     pagecolor="#ffffff"
     bordercolor="#666666"
     borderopacity="1.0"
     inkscape:pageopacity="0.0"
     inkscape:pageshadow="2"
     inkscape:zoom="8"
     inkscape:cx="42.915096"
     inkscape:cy="23.065572"
     inkscape:document-units="mm"
     inkscape:current-layer="svg8"
     showgrid="false"
     units="px"
     inkscape:window-width="1704"
     inkscape:window-height="901"
     inkscape:window-x="1213"
     inkscape:window-y="544"
     inkscape:window-maximized="0">
    <sodipodi:guide
       position="8.4666666,0"
       orientation="-32,0"
       id="guide854"
       inkscape:locked="false" />
    <sodipodi:guide
       position="8.5622298,8.4657622"
       orientation="0,-32"
       id="guide856"
       inkscape:locked="false" />
    <sodipodi:guide
       position="0,8.4666814"
       orientation="32,0"
       id="guide858"
       inkscape:locked="false" />
  </sodipodi:namedview>
  <metadata
     id="metadata5">
    <rdf:RDF>
      <cc:Work
         rdf:about="">
        <dc:format>image/svg+xml</dc:format>
        <dc:type
           rdf:resource="http://purl.org/dc/dcmitype/StillImage" />
        <dc:title />
      </cc:Work>
    </rdf:RDF>
  </metadata>
  <path
     id="path5532"
     d="M 3.377058,0.08308094 C 1.7339221,0.40377344 0.40982577,1.7245638 0.08582697,3.3627402 -0.52580326,6.4539511 2.2628994,8.7583089 4.3639312,8.4326573 5.0449897,8.3268616 5.3789067,7.5300898 5.0664794,6.9168068 4.6846237,6.1663201 5.2301316,5.2902015 6.0731895,5.2902015 h 1.3174842 c 0.591793,0 1.0711789,-0.4893043 1.0728321,-1.0794444 C 8.4552435,1.6055438 6.0847605,-0.44424355 3.377058,0.08308094 Z M 1.5868004,5.2902015 c -0.2925908,0 -0.5289773,-0.2363869 -0.5289773,-0.5289774 0,-0.2925908 0.2363865,-0.5289773 0.5289773,-0.5289773 0.2925905,0 0.5289774,0.2363865 0.5289774,0.5289773 0,0.2925905 -0.2363869,0.5289774 -0.5289774,0.5289774 z M 2.1157778,3.174292 c -0.2925906,0 -0.5289774,-0.2363865 -0.5289774,-0.5289773 0,-0.2925905 0.2363868,-0.5289774 0.5289774,-0.5289774 0.2925904,0 0.5289773,0.2363869 0.5289773,0.5289774 0,0.2925908 -0.2363869,0.5289773 -0.5289773,0.5289773 z M 4.2316869,2.1163373 c -0.2925904,0 -0.5289773,-0.2363868 -0.5289773,-0.5289773 0,-0.2925904 0.2363869,-0.5289773 0.5289773,-0.5289773 0.2925906,0 0.5289774,0.2363869 0.5289774,0.5289773 0,0.2925905 -0.2363868,0.5289773 -0.5289774,0.5289773 z M 6.3475962,3.174292 c -0.2925905,0 -0.5289773,-0.2363865 -0.5289773,-0.5289773 0,-0.2925905 0.2363868,-0.5289774 0.5289773,-0.5289774 0.2925906,0 0.5289777,0.2363869 0.5289777,0.5289774 0,0.2925908 -0.2363871,0.5289773 -0.5289777,0.5289773 z"
     inkscape:connector-curvature="0"
     style="stroke-width:0.01653054;fill:#83d3f6;fill-opacity:1" />
</svg>
