<?xml version="1.0" encoding="UTF-8" standalone="no"?>
<!-- Created with Inkscape (http://www.inkscape.org/) -->

<svg
   width="32"
   height="32"
   viewBox="0 0 8.4666666 8.4666666"
   version="1.1"
   id="svg8"
   inkscape:version="1.1.1 (3bf5ae0d25, 2021-09-20)"
   sodipodi:docname="hide_sl.svg"
   xmlns:inkscape="http://www.inkscape.org/namespaces/inkscape"
   xmlns:sodipodi="http://sodipodi.sourceforge.net/DTD/sodipodi-0.dtd"
   xmlns="http://www.w3.org/2000/svg"
   xmlns:svg="http://www.w3.org/2000/svg"
   xmlns:rdf="http://www.w3.org/1999/02/22-rdf-syntax-ns#"
   xmlns:cc="http://creativecommons.org/ns#"
   xmlns:dc="http://purl.org/dc/elements/1.1/">
  <defs
     id="defs2" />
  <sodipodi:namedview
     id="base"
     pagecolor="#ffffff"
     bordercolor="#666666"
     borderopacity="1.0"
     inkscape:pageopacity="0.0"
     inkscape:pageshadow="2"
     inkscape:zoom="11.313708"
     inkscape:cx="-5.9220196"
     inkscape:cy="16.837981"
     inkscape:document-units="mm"
     inkscape:current-layer="layer1"
     showgrid="false"
     units="px"
     inkscape:window-width="1858"
     inkscape:window-height="1057"
     inkscape:window-x="54"
     inkscape:window-y="150"
     inkscape:window-maximized="1"
     inkscape:pagecheckerboard="0">
    <sodipodi:guide
       position="8.4666666,0"
       orientation="-32,0"
       id="guide854"
       inkscape:locked="false" />
    <sodipodi:guide
       position="8.4666666,8.4666666"
       orientation="0,-32"
       id="guide856"
       inkscape:locked="false" />
    <sodipodi:guide
       position="0,8.4666814"
       orientation="32,0"
       id="guide858"
       inkscape:locked="false" />
  </sodipodi:namedview>
  <metadata
     id="metadata5">
    <rdf:RDF>
      <cc:Work
         rdf:about="">
        <dc:format>image/svg+xml</dc:format>
        <dc:type
           rdf:resource="http://purl.org/dc/dcmitype/StillImage" />
        <dc:title />
      </cc:Work>
    </rdf:RDF>
  </metadata>
  <g
     inkscape:label="Layer 1"
     inkscape:groupmode="layer"
     id="layer1"
     transform="translate(0,-288.53334)">
    <path
       style="fill:#e3e3e3;fill-opacity:1;stroke-width:0.0499559"
       d="M 1.6875,2.5136719 C 1.4844394,2.5391364 1.2897587,2.6419811 1.1542969,2.8164062 L 0.17382812,4.0800781 c -0.2709304,0.3484725 -0.20783515,0.8501394 0.140625,1.1210938 L 29.707031,27.917969 c 0.348613,0.270992 0.85017,0.208225 1.121094,-0.140625 l 0.982422,-1.263672 c 0.270765,-0.348473 0.207946,-0.850291 -0.140625,-1.121094 L 26.146484,21.125 c 1.677607,-1.413808 3.057005,-3.147672 4.058594,-5.099609 0.231761,-0.458457 0.231761,-1.000528 0,-1.458985 -2.709113,-5.2858202 -8.071802,-8.8613279 -14.21289,-8.8613279 -2.571987,0.00314 -5.10206,0.6500818 -7.3593755,1.8828125 L 2.2773438,2.6757812 C 2.1030369,2.5400962 1.8905606,2.4882073 1.6875,2.5136719 Z m 14.304688,5.5898437 c 3.973889,-0.00219 7.195605,3.2194884 7.193359,7.1933594 0,1.080491 -0.265193,2.086778 -0.695313,3.001953 -1.240088,-0.961859 -1.267597,-0.977156 -1.998046,-1.542969 a 4.5961941,4.5961941 0 0 0 0.324218,-1.68164 4.5961941,4.5961941 0 0 0 -4.597656,-4.597657 4.5961941,4.5961941 0 0 0 -2.701172,0.888672 C 12.7751,10.792393 12.726812,10.754262 11.4375,9.7578125 12.714861,8.6903605 14.327515,8.1047629 15.992188,8.1035156 Z M 3.6132812,11.791016 c -0.688893,0.864264 -1.3224352,1.778225 -1.8339843,2.777343 -0.2317727,0.458457 -0.2317727,0.998575 0,1.457032 2.7091122,5.28582 8.0718035,8.863281 14.2128911,8.863281 1.344315,0 2.640726,-0.200439 3.890624,-0.523438 l -2.591796,-2.005859 c -0.428111,0.08277 -0.862822,0.126702 -1.298828,0.130859 -3.789161,0 -6.8564214,-2.933678 -7.1386724,-6.65039 z"
       transform="matrix(0.26458333,0,0,0.26458333,0,288.53334)"
       id="path997"
       inkscape:connector-curvature="0" />
  </g>
</svg>
