<?xml version="1.0" encoding="UTF-8" standalone="no"?>
<!-- Created with Inkscape (http://www.inkscape.org/) -->

<svg
   xmlns:dc="http://purl.org/dc/elements/1.1/"
   xmlns:cc="http://creativecommons.org/ns#"
   xmlns:rdf="http://www.w3.org/1999/02/22-rdf-syntax-ns#"
   xmlns:svg="http://www.w3.org/2000/svg"
   xmlns="http://www.w3.org/2000/svg"
   xmlns:sodipodi="http://sodipodi.sourceforge.net/DTD/sodipodi-0.dtd"
   xmlns:inkscape="http://www.inkscape.org/namespaces/inkscape"
   width="32"
   height="32"
   viewBox="0 0 8.4666666 8.4666666"
   version="1.1"
   id="svg8"
   inkscape:version="0.92.5 (2060ec1f9f, 2020-04-08)"
   sodipodi:docname="application_sl.svg">
  <defs
     id="defs2">
    <style
       id="style857">.cls-1{fill:#e52120;}.cls-1,.cls-2,.cls-3,.cls-4,.cls-5{stroke:#000;stroke-miterlimit:10;stroke-width:1.2px;}.cls-2{fill:#6dbc88;}.cls-3{fill:#701034;}.cls-4{fill:#51aae0;}.cls-5{fill:none;}</style>
  </defs>
  <sodipodi:namedview
     id="base"
     pagecolor="#ffffff"
     bordercolor="#666666"
     borderopacity="1.0"
     inkscape:pageopacity="0.0"
     inkscape:pageshadow="2"
     inkscape:zoom="5.6568543"
     inkscape:cx="-40.781991"
     inkscape:cy="19.31033"
     inkscape:document-units="mm"
     inkscape:current-layer="svg8"
     showgrid="false"
     units="px"
     inkscape:window-width="1920"
     inkscape:window-height="1043"
     inkscape:window-x="0"
     inkscape:window-y="120"
     inkscape:window-maximized="1">
    <sodipodi:guide
       position="8.4666666,0"
       orientation="-32,0"
       id="guide854"
       inkscape:locked="false" />
    <sodipodi:guide
       position="8.4666666,8.4666666"
       orientation="0,-32"
       id="guide856"
       inkscape:locked="false" />
    <sodipodi:guide
       position="0,8.4666814"
       orientation="32,0"
       id="guide858"
       inkscape:locked="false" />
  </sodipodi:namedview>
  <metadata
     id="metadata5">
    <rdf:RDF>
      <cc:Work
         rdf:about="">
        <dc:format>image/svg+xml</dc:format>
        <dc:type
           rdf:resource="http://purl.org/dc/dcmitype/StillImage" />
        <dc:title></dc:title>
      </cc:Work>
    </rdf:RDF>
  </metadata>
  <path
     style="opacity:1;fill:#e3e3e3;fill-opacity:1;stroke:none;stroke-width:2.65322828;stroke-linecap:round;stroke-linejoin:round;stroke-miterlimit:10;stroke-dasharray:none;stroke-opacity:1"
     d="M 2.875 0 C 1.28225 5.9211895e-16 0 1.28225 0 2.875 L 0 29.125 C 5.9211895e-16 30.71775 1.28225 32 2.875 32 L 29.125 32 C 30.71775 32 32 30.71775 32 29.125 L 32 2.875 C 32 1.28225 30.71775 0 29.125 0 L 2.875 0 z M 8.0019531 5.9804688 L 14.382812 5.9804688 L 14.382812 7.6308594 L 13.714844 7.6308594 C 12.491422 7.6340028 11.47964 8.6360194 11.466797 9.859375 L 11.466797 9.8652344 L 11.466797 11.013672 C 11.470011 12.24585 12.486572 13.264356 13.71875 13.267578 L 14.382812 13.267578 L 14.382812 14.355469 L 13.1875 14.355469 C 12.381159 14.359912 11.711477 15.031551 11.707031 15.837891 L 11.707031 16.603516 C 11.707043 16.977023 11.424274 17.264645 11.050781 17.267578 L 9.9121094 17.267578 C 9.5377071 17.267579 9.2509708 16.981811 9.2519531 16.607422 L 9.2519531 16.603516 L 9.2519531 15.837891 C 9.2474835 15.026721 8.5724739 14.353077 7.7617188 14.355469 L 5.9824219 14.355469 L 5.9824219 8 C 5.9824219 6.8814239 6.8833778 5.9804688 8.0019531 5.9804688 z M 15.976562 5.9804688 L 23.982422 5.9804688 C 25.100998 5.9804688 26 6.8814239 26 8 L 26 15.947266 L 24.283203 15.947266 L 24.283203 15.292969 C 24.286449 14.056215 23.268007 13.035152 22.03125 13.035156 L 20.882812 13.035156 L 20.876953 13.035156 C 19.647036 13.044841 18.638635 14.062994 18.638672 15.292969 L 18.638672 15.947266 L 15.976562 15.947266 L 15.976562 13.169922 L 15.976562 13.164062 C 15.97897 12.348476 15.299947 11.671419 14.484375 11.673828 L 13.724609 11.673828 L 13.71875 11.673828 C 13.347708 11.670891 13.061531 11.384716 13.058594 11.013672 L 13.058594 9.875 C 13.062463 9.5064216 13.346858 9.2275464 13.714844 9.2246094 L 14.470703 9.2246094 C 15.292265 9.2336897 15.981153 8.5501275 15.976562 7.7285156 L 15.976562 5.9804688 z M 20.890625 14.626953 L 22.03125 14.626953 C 22.405654 14.626952 22.692389 14.912707 22.691406 15.287109 L 22.691406 15.292969 L 22.691406 16.058594 C 22.695873 16.871029 23.375065 17.543564 24.1875 17.539062 L 26 17.539062 L 26 23.978516 C 26 25.097092 25.100998 25.998047 23.982422 25.998047 L 17.558594 25.998047 L 17.558594 24.263672 L 18.228516 24.263672 C 19.451937 24.260528 20.46371 23.258514 20.476562 22.035156 L 20.476562 20.880859 C 20.47335 19.648682 19.456787 18.632142 18.224609 18.628906 L 17.558594 18.628906 L 17.558594 17.539062 L 18.75 17.539062 L 18.753906 17.539062 C 19.560254 17.534619 20.231883 16.864934 20.236328 16.058594 L 20.236328 15.292969 C 20.236316 14.919462 20.517109 14.629894 20.890625 14.626953 z M 5.9824219 15.947266 L 7.6582031 15.947266 L 7.6582031 16.603516 C 7.6549569 17.84027 8.6753512 18.859379 9.9121094 18.859375 L 11.060547 18.859375 C 12.290486 18.849719 13.298866 17.833491 13.298828 16.603516 L 13.298828 15.947266 L 15.966797 15.947266 L 15.966797 18.730469 C 15.964387 19.546056 16.641444 20.223112 17.457031 20.220703 L 18.224609 20.220703 C 18.596951 20.223657 18.881837 20.513765 18.882812 20.886719 L 18.882812 22.021484 C 18.87893 22.391374 18.59452 22.670925 18.224609 22.671875 L 17.472656 22.671875 C 16.651081 22.662783 15.962207 23.346358 15.966797 24.167969 L 15.966797 25.998047 L 8.0019531 25.998047 C 6.8833778 25.998047 5.9824219 25.097092 5.9824219 23.978516 L 5.9824219 15.947266 z "
     transform="scale(0.26458333)"
     id="rect1427" />
  <style
     type="text/css"
     id="style815">
	.st0{fill:#00005B;}
	.st1{fill:#9999FF;}
</style>
</svg>
