<?xml version="1.0" encoding="UTF-8" standalone="no"?>
<!-- Created with Inkscape (http://www.inkscape.org/) -->

<svg
   width="32"
   height="32"
   viewBox="0 0 8.4666666 8.4666666"
   version="1.1"
   id="svg8"
   inkscape:version="1.1.1 (3bf5ae0d25, 2021-09-20)"
   sodipodi:docname="load-file_sl.svg"
   xmlns:inkscape="http://www.inkscape.org/namespaces/inkscape"
   xmlns:sodipodi="http://sodipodi.sourceforge.net/DTD/sodipodi-0.dtd"
   xmlns="http://www.w3.org/2000/svg"
   xmlns:svg="http://www.w3.org/2000/svg"
   xmlns:rdf="http://www.w3.org/1999/02/22-rdf-syntax-ns#"
   xmlns:cc="http://creativecommons.org/ns#"
   xmlns:dc="http://purl.org/dc/elements/1.1/">
  <defs
     id="defs2" />
  <sodipodi:namedview
     id="base"
     pagecolor="#ffffff"
     bordercolor="#666666"
     borderopacity="1.0"
     inkscape:pageopacity="0.0"
     inkscape:pageshadow="2"
     inkscape:zoom="22.627416"
     inkscape:cx="17.478797"
     inkscape:cy="17.081049"
     inkscape:document-units="mm"
     inkscape:current-layer="svg8"
     showgrid="false"
     units="px"
     inkscape:window-width="3378"
     inkscape:window-height="1417"
     inkscape:window-x="1974"
     inkscape:window-y="-8"
     inkscape:window-maximized="1"
     inkscape:pagecheckerboard="0">
    <sodipodi:guide
       position="8.4666666,0"
       orientation="-32,0"
       id="guide854"
       inkscape:locked="false" />
    <sodipodi:guide
       position="8.4666666,8.4666666"
       orientation="0,-32"
       id="guide856"
       inkscape:locked="false" />
    <sodipodi:guide
       position="0,8.4666814"
       orientation="1,6.123234e-17"
       id="guide858"
       inkscape:locked="false" />
  </sodipodi:namedview>
  <metadata
     id="metadata5">
    <rdf:RDF>
      <cc:Work
         rdf:about="">
        <dc:format>image/svg+xml</dc:format>
        <dc:type
           rdf:resource="http://purl.org/dc/dcmitype/StillImage" />
      </cc:Work>
    </rdf:RDF>
  </metadata>
  <path
     style="fill:#e3e3e3;fill-opacity:1;stroke-width:0.016551"
     d="m 6.5247918,2.017365 c 0,-0.1042684 -0.041311,-0.2049546 -0.1157926,-0.2794463 L 4.7884168,0.11579263 C 4.713937,0.04126117 4.6128388,0 4.5069122,0 H 0.56636015 C 0.34623152,0 0.16906277,0.17716864 0.16906277,0.39729739 V 8.0766648 c 0,0.2201288 0.17716875,0.3972972 0.39729738,0.3972972 H 6.1274942 c 0.2201288,0 0.3972976,-0.1771684 0.3972976,-0.3972972 -0.00369,-0.9632951 -0.00432,-1.9486366 -0.00432,-2.9087111 -0.7509522,0.2566318 -0.5941488,0.9878052 -0.3996636,1.3323874 6.85e-4,5.006e-4 0.00137,0.00103 0.00206,0.00155 C 6.2797076,6.7644573 6.2471077,7.1347974 6.0158155,7.365966 L 5.6267524,7.7529708 C 5.3255738,8.0539293 4.7867982,8.0074181 4.5434481,7.6515878 3.75394,6.4957526 3.8771715,4.90225 4.8975162,3.8818945 5.6162175,3.3246138 6.3304515,3.1469363 6.5268167,3.108289 6.5345845,2.8980127 6.5215416,2.2277065 6.5247878,2.017365 Z M 7.1449255,2.8968744 C 7.0370917,2.9094799 6.9401019,2.9975062 6.9401014,3.1253718 v 0.483756 C 6.3510089,3.6224868 5.7670153,3.8532913 5.3174606,4.3028542 4.4975687,5.1227548 4.4024042,6.3938305 5.0333827,7.3175796 c 0.040485,0.059197 0.12475,0.066657 0.17549,0.015954 L 5.5969066,6.9455002 C 5.6343128,6.908114 5.6410582,6.8504847 5.6138887,6.8050051 5.240378,6.1816803 5.3336644,5.3697095 5.8573105,4.8452792 6.1482343,4.5538187 6.5305554,4.3883578 6.9401003,4.3749038 v 0.5645534 c 1.24e-5,0.2045688 0.2480053,0.3072729 0.3926656,0.1626242 L 8.2400654,4.1947819 c 0.089665,-0.089667 0.089163,-0.2345795 -5.27e-4,-0.3242194 L 7.3327535,2.9637776 C 7.2784991,2.9094812 7.2096124,2.8892766 7.144912,2.8968752 Z"
     id="path1112"
     sodipodi:nodetypes="cccccsssscccccccccccccccccccccccccccc" />
</svg>
