<svg id="Calque_1" data-name="Calque 1" xmlns="http://www.w3.org/2000/svg" viewBox="0 0 32 32"><title>icones</title><path d="M24.7,25.61l-9.21-9.22a.65.65,0,0,1-.2-.45.69.69,0,0,1,.2-.46L24.7,6.27a.69.69,0,0,1,.46-.2.65.65,0,0,1,.45.2l1,1a.65.65,0,0,1,.2.45.69.69,0,0,1-.2.46l-7.77,7.77,7.77,7.77a.62.62,0,0,1,0,.91l-1,1a.65.65,0,0,1-.45.2A.69.69,0,0,1,24.7,25.61Z" style="fill:#6d6d6d"/><path d="M9.08,7.28l9.22,9.21a.69.69,0,0,1,.2.46.67.67,0,0,1-.2.45L9.08,26.62a.61.61,0,0,1-.9,0l-1-1a.65.65,0,0,1-.2-.46.69.69,0,0,1,.2-.45L15,17,7.19,9.18A.69.69,0,0,1,7,8.72a.65.65,0,0,1,.2-.45l1-1a.61.61,0,0,1,.9,0Z" style="fill:#6d6d6d"/></svg>